Oceane-Bold.ufo
<glyph name="exclam" format="2">
  <advance width="252"/>
  <unicode hex="0021"/>
  <outline>
    <contour>
      <point x="125.99" y="99.9814" type="curve" smooth="yes"/>
      <point x="153.603" y="99.9814"/>
      <point x="175.98" y="77.6035"/>
      <point x="175.98" y="49.9912" type="curve" smooth="yes"/>
      <point x="175.98" y="22.3789"/>
      <point x="153.603" y="0.000976562"/>
      <point x="125.99" y="0.000976562" type="curve" smooth="yes"/>
      <point x="98.3779" y="0.000976562"/>
      <point x="76" y="22.3789"/>
      <point x="76" y="49.9912" type="curve" smooth="yes"/>
      <point x="76" y="77.6035"/>
      <point x="98.3779" y="99.9814"/>
    </contour>
    <contour>
      <point x="168.319" y="244.634" type="line" smooth="yes"/>
      <point x="168.319" y="197.874"/>
      <point x="130.421" y="159.976"/>
      <point x="83.6611" y="159.976" type="curve"/>
      <point x="83.6611" y="555.272" type="line" smooth="yes"/>
      <point x="83.6611" y="602.032"/>
      <point x="121.56" y="639.931"/>
      <point x="168.319" y="639.931" type="curve"/>
    </contour>
  </outline>
</glyph>
<glyph name="quotedbl" format="2">
  <advance width="313"/>
  <unicode hex="0022"/>
  <outline>
    <contour>
      <point x="55" y="555.32" type="line" smooth="yes"/>
      <point x="55" y="602.08"/>
      <point x="92.9004" y="639.98"/>
      <point x="139.66" y="639.98" type="curve"/>
      <point x="139.66" y="564.66" type="line" smooth="yes"/>
      <point x="139.66" y="517.9"/>
      <point x="101.76" y="480"/>
      <point x="55" y="480" type="curve"/>
    </contour>
    <contour>
      <point x="173.14" y="555.32" type="line" smooth="yes"/>
      <point x="173.14" y="602.08"/>
      <point x="211.04" y="639.98"/>
      <point x="257.8" y="639.98" type="curve"/>
      <point x="257.8" y="564.66" type="line" smooth="yes"/>
      <point x="257.8" y="517.9"/>
      <point x="219.899" y="480"/>
      <point x="173.14" y="480" type="curve"/>
    </contour>
  </outline>
</glyph>
<glyph name="numbersign" format="2">
  <advance width="683"/>
  <unicode hex="0023"/>
  <outline>
    <contour>
      <point x="612.22" y="617.53" type="curve"/>
      <point x="550.79" y="433.259" type="line"/>
      <point x="612.21" y="433.259" type="line"/>
      <point x="612.21" y="386.499"/>
      <point x="574.31" y="348.599"/>
      <point x="527.55" y="348.599" type="curve" smooth="yes"/>
      <point x="522.569" y="348.599" type="line"/>
      <point x="497.479" y="273.329" type="line"/>
      <point x="601.34" y="273.329" type="line"/>
      <point x="601.34" y="226.569"/>
      <point x="563.439" y="188.669"/>
      <point x="516.68" y="188.669" type="curve" smooth="yes"/>
      <point x="469.26" y="188.669" type="line"/>
      <point x="425.689" y="57.9287" type="line" smooth="yes"/>
      <point x="410.92" y="13.5684"/>
      <point x="362.97" y="-10.4014"/>
      <point x="318.609" y="4.37891" type="curve"/>
      <point x="380.029" y="188.669" type="line"/>
      <point x="255.989" y="188.669" type="line"/>
      <point x="212.419" y="57.9287" type="line" smooth="yes"/>
      <point x="197.629" y="13.5684"/>
      <point x="149.688" y="-10.4014"/>
      <point x="105.328" y="4.37891" type="curve"/>
      <point x="166.748" y="188.669" type="line"/>
      <point x="62.998" y="188.669" type="line"/>
      <point x="62.998" y="235.429"/>
      <point x="100.898" y="273.329"/>
      <point x="147.658" y="273.329" type="curve" smooth="yes"/>
      <point x="194.968" y="273.329" type="line"/>
      <point x="220.048" y="348.599" type="line"/>
      <point x="132.258" y="348.599" type="line"/>
      <point x="132.258" y="395.358"/>
      <point x="170.158" y="433.259"/>
      <point x="216.918" y="433.259" type="curve" smooth="yes"/>
      <point x="248.268" y="433.259" type="line"/>
      <point x="291.838" y="563.989" type="line" smooth="yes"/>
      <point x="306.628" y="608.35"/>
      <point x="354.578" y="632.319"/>
      <point x="398.938" y="617.529" type="curve"/>
      <point x="337.519" y="433.26" type="line"/>
      <point x="461.559" y="433.26" type="line"/>
      <point x="505.129" y="563.99" type="line" smooth="yes"/>
      <point x="519.909" y="608.351"/>
      <point x="567.859" y="632.32"/>
    </contour>
    <contour>
      <point x="408.25" y="273.309" type="line"/>
      <point x="433.34" y="348.589" type="line"/>
      <point x="309.3" y="348.589" type="line"/>
      <point x="284.21" y="273.309" type="line"/>
    </contour>
  </outline>
</glyph>
<glyph name="dollar" format="2">
  <advance width="664"/>
  <unicode hex="0024"/>
  <outline>
    <contour>
      <point x="374.23" y="521.33" type="curve"/>
      <point x="374.231" y="358.167" type="line"/>
      <point x="475.182" y="342.767"/>
      <point x="583.812" y="315.227"/>
      <point x="591.701" y="200.957" type="curve" smooth="yes"/>
      <point x="591.801" y="198.107" type="line" smooth="yes"/>
      <point x="591.871" y="148.377"/>
      <point x="563.611" y="104.627"/>
      <point x="512.191" y="74.8965" type="curve" smooth="yes"/>
      <point x="469.731" y="50.3564"/>
      <point x="413.791" y="36.3066"/>
      <point x="356.251" y="32.627" type="curve"/>
      <point x="340.761" y="12.7969"/>
      <point x="316.69" y="0.00683594"/>
      <point x="289.57" y="0.00683594" type="curve"/>
      <point x="289.57" y="33.1064" type="line"/>
      <point x="236.84" y="37.1963"/>
      <point x="186.6" y="50.1064"/>
      <point x="148.3" y="72.2461" type="curve" smooth="yes"/>
      <point x="99.0303" y="100.716"/>
      <point x="71.9307" y="143.206"/>
      <point x="72.001" y="191.856" type="curve"/>
      <point x="75.2705" y="191.856" type="line" smooth="yes"/>
      <point x="112.65" y="191.797"/>
      <point x="148.091" y="177.787"/>
      <point x="177.341" y="154.518" type="curve" smooth="yes"/>
      <point x="181.061" y="151.558"/>
      <point x="185.471" y="148.548"/>
      <point x="190.661" y="145.548" type="curve" smooth="yes"/>
      <point x="216.421" y="130.658"/>
      <point x="251.73" y="121.519"/>
      <point x="289.57" y="117.988" type="curve"/>
      <point x="289.57" y="284.809" type="line"/>
      <point x="188.971" y="300.059"/>
      <point x="80.3408" y="327.209"/>
      <point x="72.1104" y="440.529" type="curve"/>
      <point x="72" y="443.52" type="line" smooth="yes"/>
      <point x="71.9102" y="492.43"/>
      <point x="99.7197" y="535.47"/>
      <point x="150.33" y="564.72" type="curve" smooth="yes"/>
      <point x="193.061" y="589.41"/>
      <point x="249.45" y="603.51"/>
      <point x="307.5" y="607.029" type="curve"/>
      <point x="322.99" y="626.899"/>
      <point x="347.08" y="639.729"/>
      <point x="374.23" y="639.729" type="curve"/>
      <point x="374.23" y="606.27" type="line"/>
      <point x="427.07" y="602.01"/>
      <point x="477.42" y="588.939"/>
      <point x="515.92" y="566.689" type="curve" smooth="yes"/>
      <point x="564.95" y="538.329"/>
      <point x="591.9" y="496.189"/>
      <point x="591.801" y="448.02" type="curve"/>
      <point x="587.73" y="448.02" type="line" smooth="yes"/>
      <point x="550.53" y="448.1"/>
      <point x="515.391" y="462.3"/>
      <point x="485.99" y="485.109" type="curve" smooth="yes"/>
      <point x="482.46" y="487.85"/>
      <point x="478.34" y="490.63"/>
      <point x="473.53" y="493.41" type="curve" smooth="yes"/>
      <point x="447.61" y="508.391"/>
      <point x="412.181" y="517.66"/>
    </contour>
    <contour>
      <point x="156.672" y="445.207" type="curve" smooth="yes"/>
      <point x="160.922" y="399.997"/>
      <point x="209.231" y="383.638"/>
      <point x="289.571" y="370.558" type="curve"/>
      <point x="289.571" y="520.268" type="line"/>
      <point x="252.831" y="515.857"/>
      <point x="218.431" y="506.287"/>
      <point x="192.711" y="491.417" type="curve" smooth="yes"/>
      <point x="159.081" y="471.987"/>
      <point x="156.812" y="453.077"/>
    </contour>
    <contour>
      <point x="469.822" y="148.168" type="curve" smooth="yes"/>
      <point x="494.013" y="162.168"/>
      <point x="506.553" y="178.438"/>
      <point x="507.112" y="196.598" type="curve" smooth="yes"/>
      <point x="502.952" y="242.538"/>
      <point x="454.622" y="259.168"/>
      <point x="374.232" y="272.348" type="curve"/>
      <point x="374.232" y="119.388" type="line"/>
      <point x="410.452" y="123.918"/>
      <point x="444.372" y="133.468"/>
    </contour>
  </outline>
</glyph>
<glyph name="percent" format="2">
  <advance width="823"/>
  <unicode hex="0025"/>
  <outline>
    <contour>
      <point x="170.96" y="480" type="curve" smooth="yes"/>
      <point x="126.78" y="480"/>
      <point x="90.9707" y="515.82"/>
      <point x="90.9707" y="560" type="curve" smooth="yes"/>
      <point x="90.9707" y="604.18"/>
      <point x="126.78" y="639.989"/>
      <point x="170.96" y="639.989" type="curve" smooth="yes"/>
      <point x="215.13" y="639.989"/>
      <point x="250.939" y="604.159"/>
      <point x="250.939" y="559.979" type="curve" smooth="yes"/>
      <point x="250.939" y="515.81"/>
      <point x="215.13" y="480"/>
    </contour>
    <contour>
      <point x="170.96" y="583.551" type="curve" smooth="yes"/>
      <point x="157.979" y="583.551"/>
      <point x="147.409" y="572.98"/>
      <point x="147.409" y="560" type="curve" smooth="yes"/>
      <point x="147.409" y="547.02"/>
      <point x="157.979" y="536.449"/>
      <point x="170.96" y="536.449" type="curve" smooth="yes"/>
      <point x="183.94" y="536.449"/>
      <point x="194.511" y="547.02"/>
      <point x="194.511" y="560" type="curve" smooth="yes"/>
      <point x="194.511" y="572.98"/>
      <point x="183.94" y="583.551"/>
    </contour>
    <contour>
      <point x="645.96" y="159.98" type="curve" smooth="yes"/>
      <point x="690.14" y="159.98"/>
      <point x="725.949" y="124.171"/>
      <point x="725.949" y="79.9912" type="curve" smooth="yes"/>
      <point x="725.949" y="35.8115"/>
      <point x="690.14" y="0.00195312"/>
      <point x="645.96" y="0.00195312" type="curve" smooth="yes"/>
      <point x="601.78" y="0.00195312"/>
      <point x="565.971" y="35.8115"/>
      <point x="565.971" y="79.9912" type="curve" smooth="yes"/>
      <point x="565.971" y="124.171"/>
      <point x="601.78" y="159.98"/>
    </contour>
    <contour>
      <point x="645.96" y="56.4209" type="curve" smooth="yes"/>
      <point x="658.94" y="56.4209"/>
      <point x="669.511" y="66.9912"/>
      <point x="669.511" y="79.9717" type="curve" smooth="yes"/>
      <point x="669.511" y="92.9521"/>
      <point x="658.94" y="103.522"/>
      <point x="645.96" y="103.522" type="curve" smooth="yes"/>
      <point x="632.979" y="103.522"/>
      <point x="622.409" y="92.9521"/>
      <point x="622.409" y="79.9717" type="curve" smooth="yes"/>
      <point x="622.409" y="66.9912"/>
      <point x="632.979" y="56.4209"/>
    </contour>
    <contour>
      <point x="641.13" y="608.311" type="line" smooth="yes"/>
      <point x="674.14" y="641.41"/>
      <point x="727.771" y="641.471"/>
      <point x="760.87" y="608.44" type="curve"/>
      <point x="180.72" y="27.0107" type="line" smooth="yes"/>
      <point x="147.7" y="-6.09961"/>
      <point x="94.0898" y="-6.14941"/>
      <point x="61" y="26.8809" type="curve"/>
    </contour>
  </outline>
</glyph>
<glyph name="ampersand" format="2">
  <advance width="619"/>
  <unicode hex="0026"/>
  <outline>
    <contour>
      <point x="480.929" y="106.144" type="curve"/>
      <point x="553.539" y="19.8809" type="line"/>
      <point x="517.757" y="-10.2148"/>
      <point x="464.366" y="-5.61523"/>
      <point x="434.256" y="30.1523" type="curve" smooth="yes"/>
      <point x="419.666" y="47.4932" type="line"/>
      <point x="384.293" y="24.5225"/>
      <point x="342.147" y="11.1748"/>
      <point x="296.926" y="11.1748" type="curve" smooth="yes"/>
      <point x="172.352" y="11.1748"/>
      <point x="71.002" y="112.511"/>
      <point x="71.002" y="237.085" type="curve" smooth="yes"/>
      <point x="71.002" y="296.19"/>
      <point x="94.5088" y="352.728"/>
      <point x="135.258" y="394.591" type="curve"/>
      <point x="123.843" y="418.549"/>
      <point x="117.86" y="444.708"/>
      <point x="117.987" y="471.911" type="curve" smooth="yes"/>
      <point x="118.438" y="564.908"/>
      <point x="193.051" y="644.007"/>
      <point x="285.878" y="649.608" type="curve" smooth="yes"/>
      <point x="389.514" y="655.873"/>
      <point x="475.851" y="573.331"/>
      <point x="475.837" y="471.021" type="curve" smooth="yes"/>
      <point x="475.837" y="430.244"/>
      <point x="462.391" y="391.781"/>
      <point x="436.951" y="359.78" type="curve"/>
      <point x="428.697" y="366.341" type="line" smooth="yes"/>
      <point x="400.111" y="389.058"/>
      <point x="387.018" y="425.023"/>
      <point x="390.7" y="461.355" type="curve" smooth="yes"/>
      <point x="390.742" y="461.793"/>
      <point x="390.784" y="462.216"/>
      <point x="390.826" y="462.639" type="curve" smooth="yes"/>
      <point x="395.397" y="514.731"/>
      <point x="352.18" y="563.607"/>
      <point x="299.903" y="565.23" type="curve" smooth="yes"/>
      <point x="246.568" y="566.881"/>
      <point x="202.645" y="523.974"/>
      <point x="202.645" y="471.006" type="curve" smooth="yes"/>
      <point x="202.645" y="449.63"/>
      <point x="209.714" y="429.453"/>
      <point x="223.048" y="412.606" type="curve" smooth="yes"/>
      <point x="423.504" y="174.393" type="line"/>
      <point x="441.705" y="211.924"/>
      <point x="478.221" y="237.067"/>
      <point x="519.9" y="237.067" type="curve" smooth="yes"/>
      <point x="522.835" y="237.067" type="line"/>
      <point x="522.835" y="188.318"/>
      <point x="507.3" y="143.111"/>
    </contour>
    <contour>
      <point x="293.229" y="95.8613" type="curve" smooth="yes"/>
      <point x="319.05" y="95.1982"/>
      <point x="343.402" y="101.504"/>
      <point x="364.482" y="113.046" type="curve"/>
      <point x="186.362" y="324.705" type="line"/>
      <point x="155.321" y="285.607"/>
      <point x="145.642" y="231.116"/>
      <point x="167.427" y="180.857" type="curve" smooth="yes"/>
      <point x="189.043" y="131.008"/>
      <point x="238.921" y="97.2578"/>
    </contour>
  </outline>
</glyph>
<glyph name="quotesingle" format="2">
  <advance width="195"/>
  <unicode hex="0027"/>
  <outline>
    <contour>
      <point x="55" y="555.32" type="line" smooth="yes"/>
      <point x="55" y="602.08"/>
      <point x="92.9004" y="639.98"/>
      <point x="139.66" y="639.98" type="curve"/>
      <point x="139.66" y="564.66" type="line" smooth="yes"/>
      <point x="139.66" y="517.9"/>
      <point x="101.76" y="480"/>
      <point x="55" y="480" type="curve"/>
    </contour>
  </outline>
</glyph>
<glyph name="parenleft" format="2">
  <advance width="342"/>
  <unicode hex="0028"/>
  <outline>
    <contour>
      <point x="277.548" y="610.95" type="line"/>
      <point x="117.638" y="451.021"/>
      <point x="117.638" y="190.81"/>
      <point x="277.548" y="30.8799" type="curve"/>
      <point x="264.758" y="18.0898" type="line" smooth="yes"/>
      <point x="237.768" y="-8.89062"/>
      <point x="193.367" y="-5.10059"/>
      <point x="170.567" y="25.499" type="curve" smooth="yes"/>
      <point x="40.4775" y="200.109"/>
      <point x="40.4775" y="441.72"/>
      <point x="170.567" y="616.33" type="curve" smooth="yes"/>
      <point x="193.367" y="646.93"/>
      <point x="237.768" y="650.71"/>
      <point x="264.758" y="623.74" type="curve" smooth="yes"/>
    </contour>
  </outline>
</glyph>
<glyph name="parenright" format="2">
  <advance width="342"/>
  <unicode hex="0029"/>
  <outline>
    <contour>
      <point x="170.99" y="616.34" type="curve" smooth="yes"/>
      <point x="301.08" y="441.74"/>
      <point x="301.07" y="200.11"/>
      <point x="170.98" y="25.5" type="curve" smooth="yes"/>
      <point x="148.181" y="-5.09961"/>
      <point x="103.78" y="-8.88965"/>
      <point x="76.7803" y="18.0908" type="curve" smooth="yes"/>
      <point x="64" y="30.8809" type="line"/>
      <point x="223.9" y="190.811"/>
      <point x="223.9" y="451.021"/>
      <point x="64" y="610.95" type="curve"/>
      <point x="76.7803" y="623.74" type="line" smooth="yes"/>
      <point x="103.78" y="650.73"/>
      <point x="148.181" y="646.95"/>
    </contour>
  </outline>
</glyph>
<glyph name="asterisk" format="2">
  <advance width="315"/>
  <unicode hex="002A"/>
  <outline>
    <contour>
      <point x="261.527" y="567.58" type="curve"/>
      <point x="191.77" y="547.053" type="line"/>
      <point x="234.028" y="487.891" type="line"/>
      <point x="215.009" y="474.303"/>
      <point x="188.581" y="478.705"/>
      <point x="174.993" y="497.725" type="curve" smooth="yes"/>
      <point x="157.257" y="522.558" type="line"/>
      <point x="139.521" y="497.738" type="line" smooth="yes"/>
      <point x="125.933" y="478.732"/>
      <point x="99.5049" y="474.33"/>
      <point x="80.4854" y="487.918" type="curve"/>
      <point x="122.744" y="547.065" type="line"/>
      <point x="53" y="567.581" type="line"/>
      <point x="59.6035" y="590.001"/>
      <point x="83.124" y="602.841"/>
      <point x="105.544" y="596.252" type="curve" smooth="yes"/>
      <point x="136.119" y="587.264" type="line"/>
      <point x="136.077" y="619.081" type="line" smooth="yes"/>
      <point x="136.035" y="642.461"/>
      <point x="154.956" y="661.438"/>
      <point x="178.336" y="661.48" type="curve"/>
      <point x="178.449" y="587.277" type="line"/>
      <point x="208.969" y="596.251" type="line" smooth="yes"/>
      <point x="231.403" y="602.84"/>
      <point x="254.924" y="590.015"/>
    </contour>
  </outline>
</glyph>
<glyph name="plus" format="2">
  <advance width="352"/>
  <unicode hex="002B"/>
  <outline>
    <contour>
      <point x="295.98" y="332.32" type="line"/>
      <point x="295.98" y="287.82"/>
      <point x="261.61" y="251.4"/>
      <point x="217.98" y="248" type="curve"/>
      <point x="214.58" y="204.37"/>
      <point x="178.16" y="170"/>
      <point x="133.66" y="170" type="curve"/>
      <point x="133.66" y="247.66" type="line"/>
      <point x="56" y="247.66" type="line"/>
      <point x="56" y="292.16"/>
      <point x="90.3701" y="328.58"/>
      <point x="134" y="331.98" type="curve"/>
      <point x="137.4" y="375.61"/>
      <point x="173.82" y="409.98"/>
      <point x="218.32" y="409.98" type="curve"/>
      <point x="218.32" y="332.32" type="line"/>
    </contour>
  </outline>
</glyph>
<glyph name="hyphen" format="2">
  <advance width="252"/>
  <unicode hex="002D"/>
  <outline>
    <contour>
      <point x="130.66" y="334.66" type="curve" smooth="yes"/>
      <point x="205.99" y="334.66" type="line"/>
      <point x="205.99" y="287.9"/>
      <point x="168.09" y="250"/>
      <point x="121.33" y="250" type="curve" smooth="yes"/>
      <point x="46" y="250" type="line"/>
      <point x="46" y="296.76"/>
      <point x="83.9004" y="334.66"/>
    </contour>
  </outline>
</glyph>
<glyph name="period" format="2">
  <advance width="198"/>
  <unicode hex="002E"/>
  <outline>
    <contour>
      <point x="98.9902" y="0" type="curve" smooth="yes"/>
      <point x="71.3809" y="0"/>
      <point x="48.999" y="22.3818"/>
      <point x="48.999" y="49.9912" type="curve" smooth="yes"/>
      <point x="48.999" y="77.6006"/>
      <point x="71.3809" y="99.9824"/>
      <point x="98.9902" y="99.9824" type="curve" smooth="yes"/>
      <point x="126.6" y="99.9824"/>
      <point x="148.981" y="77.6006"/>
      <point x="148.981" y="49.9912" type="curve" smooth="yes"/>
      <point x="148.981" y="22.3818"/>
      <point x="126.6" y="0"/>
    </contour>
  </outline>
</glyph>
<glyph name="slash" format="2">
  <advance width="368"/>
  <unicode hex="002F"/>
  <outline>
    <contour>
      <point x="202.36" y="557.83" type="line" smooth="yes"/>
      <point x="213.75" y="603.16"/>
      <point x="259.73" y="630.7"/>
      <point x="305.08" y="619.32" type="curve"/>
      <point x="165.72" y="64.0605" type="line" smooth="yes"/>
      <point x="154.33" y="18.7207"/>
      <point x="108.35" y="-8.81934"/>
      <point x="63" y="2.57031" type="curve"/>
    </contour>
  </outline>
</glyph>
<glyph name="zero" format="2">
  <advance width="546"/>
  <unicode hex="0030"/>
  <outline>
    <contour>
      <point x="272.98" y="639.85" type="curve" smooth="yes"/>
      <point x="383.431" y="639.85"/>
      <point x="472.95" y="496.59"/>
      <point x="472.95" y="319.88" type="curve" smooth="yes"/>
      <point x="472.95" y="143.17"/>
      <point x="383.41" y="-0.0800781"/>
      <point x="272.98" y="-0.0800781" type="curve" smooth="yes"/>
      <point x="162.54" y="-0.0800781"/>
      <point x="73" y="143.17"/>
      <point x="73" y="319.88" type="curve" smooth="yes"/>
      <point x="73" y="496.59"/>
      <point x="162.54" y="639.85"/>
    </contour>
    <contour>
      <point x="272.98" y="84.5801" type="curve" smooth="yes"/>
      <point x="319.99" y="84.5801"/>
      <point x="388.289" y="176.25"/>
      <point x="388.289" y="319.88" type="curve" smooth="yes"/>
      <point x="388.289" y="463.52"/>
      <point x="319.989" y="555.189"/>
      <point x="272.979" y="555.189" type="curve" smooth="yes"/>
      <point x="225.96" y="555.189"/>
      <point x="157.66" y="463.52"/>
      <point x="157.66" y="319.88" type="curve" smooth="yes"/>
      <point x="157.66" y="176.25"/>
      <point x="225.95" y="84.5801"/>
    </contour>
  </outline>
</glyph>
<glyph name="one" format="2">
  <advance width="420"/>
  <unicode hex="0031"/>
  <outline>
    <contour>
      <point x="325.95" y="627.86" type="curve" smooth="yes"/>
      <point x="335.13" y="619.71"/>
      <point x="339.749" y="607.51"/>
      <point x="339.749" y="595.22" type="curve" smooth="yes"/>
      <point x="339.749" y="-0.0703125" type="line"/>
      <point x="292.989" y="-0.0703125"/>
      <point x="255.089" y="37.8496"/>
      <point x="255.089" y="84.5898" type="curve" smooth="yes"/>
      <point x="255.089" y="494.35" type="line"/>
      <point x="175.719" y="414.979" type="line" smooth="yes"/>
      <point x="142.659" y="381.909"/>
      <point x="89.0596" y="381.909"/>
      <point x="56" y="414.979" type="curve"/>
      <point x="267.49" y="626.46" type="line" smooth="yes"/>
      <point x="282.91" y="641.91"/>
      <point x="308.311" y="643.521"/>
    </contour>
  </outline>
</glyph>
<glyph name="two" format="2">
  <advance width="560"/>
  <unicode hex="0032"/>
  <outline>
    <contour>
      <point x="210.535" y="84.5098" type="line"/>
      <point x="393.906" y="84.5107" type="line" smooth="yes"/>
      <point x="440.666" y="84.5107"/>
      <point x="478.566" y="46.6104"/>
      <point x="478.566" y="-0.149414" type="curve"/>
      <point x="109.526" y="-0.149414" type="line" smooth="yes"/>
      <point x="97.2363" y="-0.149414"/>
      <point x="85.0566" y="4.49023"/>
      <point x="76.9365" y="13.7002" type="curve" smooth="yes"/>
      <point x="61.3262" y="31.3701"/>
      <point x="62.9766" y="56.7002"/>
      <point x="78.3965" y="72.1201" type="curve" smooth="yes"/>
      <point x="369.967" y="363.58" type="line" smooth="yes"/>
      <point x="408.117" y="401.73"/>
      <point x="408.228" y="451.261"/>
      <point x="395.617" y="484.881" type="curve" smooth="yes"/>
      <point x="380.277" y="525.761"/>
      <point x="345.747" y="551.871"/>
      <point x="303.267" y="554.751" type="curve" smooth="yes"/>
      <point x="300.017" y="554.961"/>
      <point x="296.747" y="555.081"/>
      <point x="293.447" y="555.081" type="curve" smooth="yes"/>
      <point x="250.098" y="555.081"/>
      <point x="210.397" y="535.581"/>
      <point x="183.897" y="503.971" type="curve" smooth="yes"/>
      <point x="157.997" y="473.07"/>
      <point x="117.827" y="458.13"/>
      <point x="78.8271" y="468.27" type="curve" smooth="yes"/>
      <point x="73.3174" y="469.71" type="line"/>
      <point x="99.377" y="569.82"/>
      <point x="189.896" y="639.74"/>
      <point x="293.446" y="639.74" type="curve" smooth="yes"/>
      <point x="298.666" y="639.74"/>
      <point x="303.846" y="639.55"/>
      <point x="308.966" y="639.21" type="curve" smooth="yes"/>
      <point x="384.396" y="634.12"/>
      <point x="447.955" y="586.37"/>
      <point x="474.875" y="514.61" type="curve" smooth="yes"/>
      <point x="502.785" y="440.21"/>
      <point x="485.516" y="359.4"/>
      <point x="429.815" y="303.71" type="curve" smooth="yes"/>
    </contour>
  </outline>
</glyph>
<glyph name="three" format="2">
  <advance width="528"/>
  <unicode hex="0033"/>
  <outline>
    <contour>
      <point x="377.24" y="339.08" type="curve"/>
      <point x="424.32" y="304.61"/>
      <point x="454.931" y="250.191"/>
      <point x="454.931" y="188.842" type="curve" smooth="yes"/>
      <point x="454.931" y="84.832"/>
      <point x="367.371" y="0.202148"/>
      <point x="259.751" y="0.202148" type="curve" smooth="yes"/>
      <point x="162.071" y="0.202148"/>
      <point x="81.1514" y="69.9824"/>
      <point x="67.001" y="160.643" type="curve"/>
      <point x="111.841" y="160.643" type="line" smooth="yes"/>
      <point x="133.751" y="160.643"/>
      <point x="154.681" y="150.373"/>
      <point x="167.121" y="132.333" type="curve" smooth="yes"/>
      <point x="186.821" y="103.793"/>
      <point x="220.941" y="84.8525"/>
      <point x="259.741" y="84.8525" type="curve" smooth="yes"/>
      <point x="320.682" y="84.8525"/>
      <point x="370.262" y="131.522"/>
      <point x="370.262" y="188.843" type="curve" smooth="yes"/>
      <point x="370.262" y="235.652"/>
      <point x="337.191" y="275.272"/>
      <point x="291.882" y="288.232" type="curve" smooth="yes"/>
      <point x="278.012" y="292.202"/>
      <point x="268.361" y="304.702"/>
      <point x="268.361" y="319.122" type="curve" smooth="yes"/>
      <point x="268.361" y="352.472" type="line" smooth="yes"/>
      <point x="268.361" y="366.292"/>
      <point x="277.321" y="378.142"/>
      <point x="290.291" y="382.911" type="curve" smooth="yes"/>
      <point x="327.861" y="396.751"/>
      <point x="353.581" y="435.331"/>
      <point x="347.531" y="478.812" type="curve" smooth="yes"/>
      <point x="342.241" y="516.882"/>
      <point x="311.531" y="548.021"/>
      <point x="273.541" y="553.791" type="curve" smooth="yes"/>
      <point x="236.891" y="559.351"/>
      <point x="203.671" y="542.32"/>
      <point x="185.541" y="514.54" type="curve" smooth="yes"/>
      <point x="172.241" y="494.16"/>
      <point x="150.801" y="480.59"/>
      <point x="126.471" y="480.59" type="curve" smooth="yes"/>
      <point x="87.1211" y="480.59" type="line"/>
      <point x="94.8008" y="573.02"/>
      <point x="175.181" y="645.14"/>
      <point x="270.841" y="639.14" type="curve" smooth="yes"/>
      <point x="357.931" y="633.68"/>
      <point x="428.86" y="561.47"/>
      <point x="432.891" y="474.3" type="curve" smooth="yes"/>
      <point x="435.36" y="420.819"/>
      <point x="413.32" y="372.47"/>
    </contour>
  </outline>
</glyph>
<glyph name="four" format="2">
  <advance width="566"/>
  <unicode hex="0034"/>
  <outline>
    <contour>
      <point x="438.389" y="236.99" type="line"/>
      <point x="470.669" y="236.99"/>
      <point x="496.819" y="210.81"/>
      <point x="496.819" y="178.529" type="curve" smooth="yes"/>
      <point x="496.819" y="152.329" type="line"/>
      <point x="438.359" y="152.329" type="line"/>
      <point x="438.359" y="58.2891" type="line" smooth="yes"/>
      <point x="438.359" y="26.0088"/>
      <point x="412.189" y="-0.170898"/>
      <point x="379.899" y="-0.170898" type="curve" smooth="yes"/>
      <point x="353.699" y="-0.170898" type="line"/>
      <point x="353.699" y="152.329" type="line"/>
      <point x="105.499" y="152.329" type="line" smooth="yes"/>
      <point x="92.8594" y="152.329"/>
      <point x="80.1992" y="156.899"/>
      <point x="71.7988" y="166.369" type="curve" smooth="yes"/>
      <point x="58.1992" y="181.729"/>
      <point x="57.6191" y="203.76"/>
      <point x="69.0791" y="219.529" type="curve" smooth="yes"/>
      <point x="361.799" y="622.56" type="line" smooth="yes"/>
      <point x="374.129" y="639.55"/>
      <point x="397.369" y="645.24"/>
      <point x="416.569" y="634.721" type="curve" smooth="yes"/>
      <point x="430.589" y="627.051"/>
      <point x="438.389" y="611.44"/>
      <point x="438.389" y="595.471" type="curve" smooth="yes"/>
    </contour>
    <contour>
      <point x="353.729" y="236.989" type="line"/>
      <point x="353.729" y="467.379" type="line"/>
      <point x="186.399" y="236.989" type="line"/>
    </contour>
  </outline>
</glyph>
<glyph name="five" format="2">
  <advance width="536"/>
  <unicode hex="0035"/>
  <outline>
    <contour>
      <point x="239.67" y="435.31" type="curve" smooth="yes"/>
      <point x="364.11" y="435.31"/>
      <point x="465.372" y="337.628"/>
      <point x="465.372" y="217.538" type="curve" smooth="yes"/>
      <point x="465.372" y="97.4482"/>
      <point x="364.112" y="-0.242188"/>
      <point x="239.672" y="-0.242188" type="curve" smooth="yes"/>
      <point x="193.562" y="-0.242188"/>
      <point x="149.212" y="13.0879"/>
      <point x="111.422" y="38.3076" type="curve" smooth="yes"/>
      <point x="96.5723" y="48.208"/>
      <point x="82.9824" y="59.8184"/>
      <point x="71.002" y="72.8184" type="curve"/>
      <point x="106.912" y="105.918" type="line" smooth="yes"/>
      <point x="121.092" y="118.988"/>
      <point x="142.111" y="119.648"/>
      <point x="158.131" y="108.908" type="curve" smooth="yes"/>
      <point x="158.23" y="108.858"/>
      <point x="158.311" y="108.788"/>
      <point x="158.41" y="108.729" type="curve" smooth="yes"/>
      <point x="182.25" y="92.8281"/>
      <point x="210.35" y="84.418"/>
      <point x="239.67" y="84.418" type="curve" smooth="yes"/>
      <point x="317.439" y="84.418"/>
      <point x="380.709" y="144.128"/>
      <point x="380.709" y="217.538" type="curve" smooth="yes"/>
      <point x="380.709" y="290.958"/>
      <point x="317.439" y="350.668"/>
      <point x="239.67" y="350.668" type="curve" smooth="yes"/>
      <point x="209.6" y="350.668"/>
      <point x="180.909" y="341.858"/>
      <point x="156.729" y="325.198" type="curve" smooth="yes"/>
      <point x="139.05" y="313.008"/>
      <point x="114.109" y="315.598"/>
      <point x="99.2598" y="333.958" type="curve" smooth="yes"/>
      <point x="93.1895" y="341.448"/>
      <point x="90.3896" y="351.118"/>
      <point x="90.3896" y="360.769" type="curve" smooth="yes"/>
      <point x="90.3896" y="598.169" type="line" smooth="yes"/>
      <point x="90.3896" y="621.539"/>
      <point x="109.34" y="640.489"/>
      <point x="132.72" y="640.489" type="curve" smooth="yes"/>
      <point x="422.37" y="640.489" type="line"/>
      <point x="422.37" y="593.729"/>
      <point x="384.47" y="555.84"/>
      <point x="337.72" y="555.84" type="curve" smooth="yes"/>
      <point x="175.04" y="555.84" type="line"/>
      <point x="175.04" y="426.28" type="line"/>
      <point x="195.81" y="432.25"/>
      <point x="217.51" y="435.31"/>
    </contour>
  </outline>
</glyph>
<glyph name="six" format="2">
  <advance width="545"/>
  <unicode hex="0036"/>
  <outline>
    <contour>
      <point x="474.954" y="232.1" type="curve" smooth="yes"/>
      <point x="492.935" y="103.97"/>
      <point x="390.384" y="-5.74316"/>
      <point x="264.414" y="0.0771484" type="curve" smooth="yes"/>
      <point x="152.844" y="5.22754"/>
      <point x="69.0537" y="102.598"/>
      <point x="71.0342" y="214.258" type="curve" smooth="yes"/>
      <point x="76.5244" y="521.538"/>
      <point x="302.624" y="678.058"/>
      <point x="312.354" y="684.647" type="curve"/>
      <point x="336.074" y="649.598" type="line" smooth="yes"/>
      <point x="349.055" y="630.527"/>
      <point x="345.955" y="604.888"/>
      <point x="328.755" y="589.508" type="curve" smooth="yes"/>
      <point x="290.995" y="555.758"/>
      <point x="227.885" y="488.268"/>
      <point x="189.194" y="387.128" type="curve"/>
      <point x="225.904" y="404.108"/>
      <point x="268.305" y="410.799"/>
      <point x="312.975" y="402.159" type="curve" smooth="yes"/>
      <point x="396.935" y="385.949"/>
      <point x="463.074" y="316.77"/>
    </contour>
    <contour>
      <point x="390.693" y="182.827" type="curve" smooth="yes"/>
      <point x="404.043" y="263.717"/>
      <point x="334.793" y="332.977"/>
      <point x="253.913" y="319.606" type="curve" smooth="yes"/>
      <point x="204.913" y="311.507"/>
      <point x="165.394" y="271.987"/>
      <point x="157.273" y="222.978" type="curve" smooth="yes"/>
      <point x="143.884" y="142.077"/>
      <point x="213.184" y="72.7773"/>
      <point x="294.084" y="86.167" type="curve" smooth="yes"/>
      <point x="343.074" y="94.2871"/>
      <point x="382.594" y="133.817"/>
    </contour>
  </outline>
</glyph>
<glyph name="seven" format="2">
  <advance width="550"/>
  <unicode hex="0037"/>
  <outline>
    <contour>
      <point x="481.89" y="635.15" type="curve" smooth="yes"/>
      <point x="489.75" y="623.381"/>
      <point x="491.189" y="608.46"/>
      <point x="485.749" y="595.39" type="curve" smooth="yes"/>
      <point x="237.869" y="0.389648" type="line"/>
      <point x="194.709" y="18.3799"/>
      <point x="174.299" y="67.9297"/>
      <point x="192.279" y="111.09" type="curve" smooth="yes"/>
      <point x="383.18" y="569.32" type="line"/>
      <point x="134.68" y="569.221" type="line" smooth="yes"/>
      <point x="87.9199" y="569.201"/>
      <point x="50.0098" y="607.091"/>
      <point x="50" y="653.851" type="curve"/>
      <point x="446.68" y="653.99" type="line" smooth="yes"/>
      <point x="460.83" y="653.99"/>
      <point x="474.05" y="646.92"/>
    </contour>
  </outline>
</glyph>
<glyph name="eight" format="2">
  <advance width="557"/>
  <unicode hex="0038"/>
  <outline>
    <contour>
      <point x="389.498" y="364.842" type="curve"/>
      <point x="447.023" y="329.61"/>
      <point x="485.259" y="268.077"/>
      <point x="485.259" y="197.854" type="curve" smooth="yes"/>
      <point x="485.259" y="88.3486"/>
      <point x="392.516" y="-0.415039"/>
      <point x="278.129" y="-0.415039" type="curve" smooth="yes"/>
      <point x="163.742" y="-0.415039"/>
      <point x="70.999" y="88.3486"/>
      <point x="70.999" y="197.854" type="curve" smooth="yes"/>
      <point x="70.999" y="268.077"/>
      <point x="109.236" y="329.609"/>
      <point x="166.762" y="364.841" type="curve"/>
      <point x="136.821" y="393.907"/>
      <point x="118.154" y="434.529"/>
      <point x="118.154" y="479.554" type="curve" smooth="yes"/>
      <point x="118.154" y="567.908"/>
      <point x="189.775" y="639.529"/>
      <point x="278.13" y="639.529" type="curve" smooth="yes"/>
      <point x="366.484" y="639.529"/>
      <point x="438.105" y="567.908"/>
      <point x="438.105" y="479.554" type="curve" smooth="yes"/>
      <point x="438.105" y="434.529"/>
      <point x="419.438" y="393.922"/>
    </contour>
    <contour>
      <point x="278.129" y="554.884" type="curve" smooth="yes"/>
      <point x="236.604" y="554.884"/>
      <point x="202.812" y="521.091"/>
      <point x="202.812" y="479.566" type="curve" smooth="yes"/>
      <point x="202.812" y="438.042"/>
      <point x="236.604" y="404.249"/>
      <point x="278.129" y="404.249" type="curve" smooth="yes"/>
      <point x="319.653" y="404.249"/>
      <point x="353.446" y="438.042"/>
      <point x="353.446" y="479.566" type="curve" smooth="yes"/>
      <point x="353.446" y="521.091"/>
      <point x="319.653" y="554.884"/>
    </contour>
    <contour>
      <point x="278.129" y="84.2559" type="curve" smooth="yes"/>
      <point x="345.658" y="84.2559"/>
      <point x="400.602" y="135.221"/>
      <point x="400.602" y="197.867" type="curve" smooth="yes"/>
      <point x="400.602" y="260.514"/>
      <point x="345.658" y="311.478"/>
      <point x="278.129" y="311.478" type="curve" smooth="yes"/>
      <point x="210.6" y="311.478"/>
      <point x="155.656" y="260.514"/>
      <point x="155.656" y="197.867" type="curve" smooth="yes"/>
      <point x="155.656" y="135.22"/>
      <point x="210.6" y="84.2559"/>
    </contour>
  </outline>
</glyph>
<glyph name="nine" format="2">
  <advance width="544"/>
  <unicode hex="0039"/>
  <outline>
    <contour>
      <point x="278.602" y="664.44" type="curve" smooth="yes"/>
      <point x="390.161" y="659.29"/>
      <point x="473.962" y="561.901"/>
      <point x="471.972" y="450.241" type="curve" smooth="yes"/>
      <point x="466.481" y="142.961"/>
      <point x="240.392" y="-13.5586"/>
      <point x="230.651" y="-20.1484" type="curve"/>
      <point x="206.932" y="14.9014" type="line" smooth="yes"/>
      <point x="193.951" y="33.9814"/>
      <point x="197.062" y="59.6113"/>
      <point x="214.262" y="74.9912" type="curve" smooth="yes"/>
      <point x="252.012" y="108.741"/>
      <point x="315.132" y="176.231"/>
      <point x="353.822" y="277.371" type="curve"/>
      <point x="317.103" y="260.411"/>
      <point x="274.702" y="253.721"/>
      <point x="230.032" y="262.36" type="curve" smooth="yes"/>
      <point x="146.082" y="278.57"/>
      <point x="79.9316" y="347.75"/>
      <point x="68.0518" y="432.42" type="curve" smooth="yes"/>
      <point x="50.082" y="560.55"/>
      <point x="152.632" y="670.25"/>
    </contour>
    <contour>
      <point x="385.753" y="441.531" type="curve" smooth="yes"/>
      <point x="399.143" y="522.441"/>
      <point x="329.833" y="591.731"/>
      <point x="248.923" y="578.342" type="curve" smooth="yes"/>
      <point x="199.923" y="570.231"/>
      <point x="160.403" y="530.691"/>
      <point x="152.323" y="481.691" type="curve" smooth="yes"/>
      <point x="138.953" y="400.802"/>
      <point x="208.233" y="331.542"/>
      <point x="289.113" y="344.912" type="curve" smooth="yes"/>
      <point x="338.113" y="353.012"/>
      <point x="377.633" y="392.531"/>
    </contour>
  </outline>
</glyph>
<glyph name="colon" format="2">
  <advance width="216"/>
  <unicode hex="003A"/>
  <outline>
    <contour>
      <point x="107.99" y="289.98" type="curve" smooth="yes"/>
      <point x="135.601" y="289.98"/>
      <point x="157.98" y="267.601"/>
      <point x="157.98" y="239.99" type="curve" smooth="yes"/>
      <point x="157.98" y="212.38"/>
      <point x="135.601" y="190"/>
      <point x="107.99" y="190" type="curve" smooth="yes"/>
      <point x="80.3799" y="190"/>
      <point x="58" y="212.38"/>
      <point x="58" y="239.99" type="curve" smooth="yes"/>
      <point x="58" y="267.601"/>
      <point x="80.3799" y="289.98"/>
    </contour>
    <contour>
      <point x="107.99" y="409.971" type="curve" smooth="yes"/>
      <point x="80.3799" y="409.971"/>
      <point x="58" y="432.361"/>
      <point x="58" y="459.972" type="curve" smooth="yes"/>
      <point x="58" y="487.592"/>
      <point x="80.3799" y="509.972"/>
      <point x="107.99" y="509.972" type="curve" smooth="yes"/>
      <point x="135.601" y="509.972"/>
      <point x="157.98" y="487.571"/>
      <point x="157.98" y="459.961" type="curve" smooth="yes"/>
      <point x="157.98" y="432.351"/>
      <point x="135.601" y="409.971"/>
    </contour>
  </outline>
</glyph>
<glyph name="semicolon" format="2">
  <advance width="258"/>
  <unicode hex="003B"/>
  <outline>
    <contour>
      <point x="150.6" y="190" type="curve" smooth="yes"/>
      <point x="122.979" y="190"/>
      <point x="100.6" y="212.38"/>
      <point x="100.6" y="239.99" type="curve" smooth="yes"/>
      <point x="100.6" y="267.61"/>
      <point x="122.979" y="289.98"/>
      <point x="150.6" y="289.98" type="curve" smooth="yes"/>
      <point x="178.21" y="289.98"/>
      <point x="200.59" y="267.61"/>
      <point x="200.59" y="239.99" type="curve" smooth="yes"/>
      <point x="200.59" y="212.38"/>
      <point x="178.21" y="190"/>
    </contour>
    <contour>
      <point x="80.1299" y="53.2197" type="line" smooth="yes"/>
      <point x="101.04" y="95.04"/>
      <point x="151.89" y="111.99"/>
      <point x="193.71" y="91.0801" type="curve"/>
      <point x="151.58" y="6.82031" type="line" smooth="yes"/>
      <point x="130.67" y="-35"/>
      <point x="79.8203" y="-51.9502"/>
      <point x="38" y="-31.04" type="curve"/>
    </contour>
  </outline>
</glyph>
<glyph name="less" format="2">
  <advance width="581"/>
  <unicode hex="003C"/>
  <outline>
    <contour>
      <point x="194.823" y="289.35" type="line"/>
      <point x="519.254" y="126.747" type="line"/>
      <point x="498.304" y="84.9375"/>
      <point x="447.434" y="68.0371"/>
      <point x="405.644" y="88.9873" type="curve" smooth="yes"/>
      <point x="83.3232" y="250.537" type="line" smooth="yes"/>
      <point x="71.9229" y="256.237"/>
      <point x="62.6133" y="266.107"/>
      <point x="59.4033" y="278.457" type="curve" smooth="yes"/>
      <point x="54.2129" y="298.438"/>
      <point x="63.833" y="318.418"/>
      <point x="81.373" y="327.208" type="curve" smooth="yes"/>
      <point x="405.633" y="489.608" type="line" smooth="yes"/>
      <point x="447.433" y="510.549"/>
      <point x="498.303" y="493.629"/>
      <point x="519.243" y="451.819" type="curve"/>
    </contour>
  </outline>
</glyph>
<glyph name="equal" format="2">
  <advance width="350"/>
  <unicode hex="003D"/>
  <outline>
    <contour>
      <point x="210.32" y="254.66" type="line" smooth="yes"/>
      <point x="257.08" y="254.66"/>
      <point x="294.98" y="216.76"/>
      <point x="294.98" y="170" type="curve"/>
      <point x="139.66" y="170" type="line" smooth="yes"/>
      <point x="92.9004" y="170"/>
      <point x="55" y="207.9"/>
      <point x="55" y="254.66" type="curve"/>
    </contour>
    <contour>
      <point x="139.66" y="319.51" type="line" smooth="yes"/>
      <point x="92.9004" y="319.51"/>
      <point x="55" y="357.399"/>
      <point x="55" y="404.159" type="curve"/>
      <point x="210.32" y="404.159" type="line" smooth="yes"/>
      <point x="257.08" y="404.159"/>
      <point x="294.98" y="366.27"/>
      <point x="294.98" y="319.51" type="curve"/>
    </contour>
  </outline>
</glyph>
<glyph name="greater" format="2">
  <advance width="580"/>
  <unicode hex="003E"/>
  <outline>
    <contour>
      <point x="519.86" y="300.14" type="curve" smooth="yes"/>
      <point x="525.051" y="280.159"/>
      <point x="515.399" y="260.183"/>
      <point x="497.859" y="251.393" type="curve" smooth="yes"/>
      <point x="173.609" y="88.9922" type="line" smooth="yes"/>
      <point x="131.8" y="68.0518"/>
      <point x="80.9395" y="84.9619"/>
      <point x="59.999" y="126.771" type="curve"/>
      <point x="384.429" y="289.241" type="line"/>
      <point x="59.999" y="451.841" type="line"/>
      <point x="80.9492" y="493.65"/>
      <point x="131.819" y="510.54"/>
      <point x="173.609" y="489.6" type="curve" smooth="yes"/>
      <point x="495.939" y="328.06" type="line" smooth="yes"/>
      <point x="507.34" y="322.359"/>
      <point x="516.66" y="312.479"/>
    </contour>
  </outline>
</glyph>
<glyph name="question" format="2">
  <advance width="500"/>
  <unicode hex="003F"/>
  <outline>
    <contour>
      <point x="247.125" y="99.9814" type="curve" smooth="yes"/>
      <point x="274.737" y="99.9814"/>
      <point x="297.115" y="77.6035"/>
      <point x="297.115" y="49.9912" type="curve" smooth="yes"/>
      <point x="297.115" y="22.3789"/>
      <point x="274.737" y="0.000976562"/>
      <point x="247.125" y="0.000976562" type="curve" smooth="yes"/>
      <point x="219.513" y="0.000976562"/>
      <point x="197.135" y="22.3789"/>
      <point x="197.135" y="49.9912" type="curve" smooth="yes"/>
      <point x="197.135" y="77.6035"/>
      <point x="219.513" y="99.9814"/>
    </contour>
    <contour>
      <point x="435.094" y="480.181" type="line" smooth="yes"/>
      <point x="437.958" y="415.149"/>
      <point x="395.136" y="369.858"/>
      <point x="362.049" y="341.216" type="curve" smooth="yes"/>
      <point x="288.27" y="268.113"/>
      <point x="288.919" y="239.993"/>
      <point x="289.878" y="197.537" type="curve" smooth="yes"/>
      <point x="289.878" y="197.185" type="line" smooth="yes"/>
      <point x="290.372" y="175.512"/>
      <point x="272.072" y="158.143"/>
      <point x="250.456" y="159.737" type="curve" smooth="yes"/>
      <point x="204.896" y="163.109" type="line"/>
      <point x="205.714" y="174.171"/>
      <point x="205.488" y="184.598"/>
      <point x="205.234" y="195.646" type="curve" smooth="yes"/>
      <point x="203.823" y="258.476"/>
      <point x="210.06" y="310.089"/>
      <point x="303.564" y="402.437" type="curve"/>
      <point x="305.709" y="404.412" type="line" smooth="yes"/>
      <point x="337.371" y="431.644"/>
      <point x="351.227" y="453.683"/>
      <point x="350.549" y="475.778" type="curve" smooth="yes"/>
      <point x="345.018" y="540.316"/>
      <point x="280.72" y="555.922"/>
      <point x="243.371" y="555.019" type="curve" smooth="yes"/>
      <point x="218.608" y="554.384"/>
      <point x="181.909" y="545.565"/>
      <point x="160.604" y="519.801" type="curve" smooth="yes"/>
      <point x="135.771" y="489.762"/>
      <point x="97.957" y="473.521"/>
      <point x="59" y="474.594" type="curve"/>
      <point x="61.6104" y="569.114"/>
      <point x="136.533" y="636.981"/>
      <point x="241.227" y="639.634" type="curve" smooth="yes"/>
      <point x="331.67" y="641.948"/>
      <point x="426.67" y="588.359"/>
      <point x="435.009" y="481.62" type="curve" smooth="yes"/>
    </contour>
  </outline>
</glyph>
<glyph name="at" format="2">
  <advance width="618"/>
  <unicode hex="0040"/>
  <outline>
    <contour>
      <point x="370.074" y="308.36" type="curve"/>
      <point x="380.214" y="323.351"/>
      <point x="397.373" y="333.189"/>
      <point x="416.833" y="333.189" type="curve"/>
      <point x="416.833" y="194.499" type="line" smooth="yes"/>
      <point x="416.833" y="163.329"/>
      <point x="391.563" y="138.06"/>
      <point x="360.394" y="138.06" type="curve"/>
      <point x="360.394" y="158.59" type="line"/>
      <point x="343.634" y="145.76"/>
      <point x="322.744" y="138.06"/>
      <point x="300.014" y="138.06" type="curve" smooth="yes"/>
      <point x="245.014" y="138.06"/>
      <point x="200.443" y="182.63"/>
      <point x="200.443" y="237.63" type="curve" smooth="yes"/>
      <point x="200.443" y="292.63"/>
      <point x="245.033" y="337.2"/>
      <point x="300.014" y="337.2" type="curve" smooth="yes"/>
      <point x="327.344" y="337.2"/>
      <point x="352.084" y="326.181"/>
    </contour>
    <contour>
      <point x="300.014" y="194.51" type="curve" smooth="yes"/>
      <point x="323.804" y="194.51"/>
      <point x="343.153" y="213.85"/>
      <point x="343.153" y="237.64" type="curve" smooth="yes"/>
      <point x="343.153" y="261.43"/>
      <point x="323.804" y="280.779"/>
      <point x="300.014" y="280.779" type="curve" smooth="yes"/>
      <point x="276.224" y="280.779"/>
      <point x="256.884" y="261.43"/>
      <point x="256.884" y="237.64" type="curve" smooth="yes"/>
      <point x="256.884" y="213.85"/>
      <point x="276.224" y="194.51"/>
    </contour>
    <contour>
      <point x="281.023" y="481.74" type="curve" smooth="yes"/>
      <point x="426.563" y="497.971"/>
      <point x="550.285" y="383.972"/>
      <point x="550.285" y="241.662" type="curve" smooth="yes"/>
      <point x="550.285" y="199.222"/>
      <point x="539.105" y="157.472"/>
      <point x="517.985" y="120.912" type="curve"/>
      <point x="480.875" y="142.362"/>
      <point x="460.715" y="183.672"/>
      <point x="464.875" y="226.332" type="curve" smooth="yes"/>
      <point x="465.375" y="231.412"/>
      <point x="465.625" y="236.532"/>
      <point x="465.625" y="241.662" type="curve" smooth="yes"/>
      <point x="465.625" y="337.982"/>
      <point x="378.425" y="414.312"/>
      <point x="278.814" y="395.872" type="curve" smooth="yes"/>
      <point x="216.274" y="384.292"/>
      <point x="166.015" y="334.032"/>
      <point x="154.435" y="271.492" type="curve" smooth="yes"/>
      <point x="135.975" y="171.882"/>
      <point x="212.314" y="84.6816"/>
      <point x="308.635" y="84.6816" type="curve" smooth="yes"/>
      <point x="309.175" y="84.6816" type="line" smooth="yes"/>
      <point x="341.444" y="84.7812"/>
      <point x="370.654" y="65.8213"/>
      <point x="381.374" y="35.3809" type="curve" smooth="yes"/>
      <point x="389.004" y="13.7109" type="line"/>
      <point x="363.214" y="4.62109"/>
      <point x="336.184" y="0.0107422"/>
      <point x="308.634" y="0.0107422" type="curve" smooth="yes"/>
      <point x="166.304" y="0.0107422"/>
      <point x="52.3037" y="123.721"/>
      <point x="68.5439" y="269.261" type="curve" smooth="yes"/>
      <point x="80.8936" y="379.94"/>
      <point x="170.354" y="469.391"/>
    </contour>
  </outline>
</glyph>
<glyph name="A" format="2">
  <advance width="730"/>
  <unicode hex="0041"/>
  <outline>
    <contour>
      <point x="403.462" y="615.407" type="curve" smooth="yes"/>
      <point x="711.208" y="-0.125977" type="line"/>
      <point x="653.203" y="-0.125977"/>
      <point x="600.165" y="32.6504"/>
      <point x="574.231" y="84.5312" type="curve" smooth="yes"/>
      <point x="531.832" y="169.33" type="line"/>
      <point x="197.376" y="169.33" type="line"/>
      <point x="154.977" y="84.5166" type="line" smooth="yes"/>
      <point x="129.029" y="32.6494"/>
      <point x="76.0049" y="-0.126953"/>
      <point x="18" y="-0.126953" type="curve"/>
      <point x="326.776" y="617.354" type="line" smooth="yes"/>
      <point x="335.553" y="634.907"/>
      <point x="355.546" y="644.544"/>
      <point x="375.539" y="639.352" type="curve" smooth="yes"/>
      <point x="387.885" y="636.135"/>
      <point x="397.762" y="626.822"/>
    </contour>
    <contour>
      <point x="239.733" y="253.989" type="line"/>
      <point x="489.517" y="253.989" type="line"/>
      <point x="364.632" y="503.772" type="line"/>
    </contour>
  </outline>
</glyph>
<glyph name="B" format="2">
  <advance width="619"/>
  <unicode hex="0042"/>
  <outline>
    <contour>
      <point x="467.468" y="346.142" type="curve"/>
      <point x="530.75" y="317.965"/>
      <point x="575.024" y="254.598"/>
      <point x="575.024" y="180.987" type="curve" smooth="yes"/>
      <point x="575.024" y="81.2881"/>
      <point x="493.908" y="0.171875"/>
      <point x="394.209" y="0.171875" type="curve" smooth="yes"/>
      <point x="121.328" y="0.171875" type="line" smooth="yes"/>
      <point x="97.9629" y="0.171875"/>
      <point x="78.999" y="19.1211"/>
      <point x="78.999" y="42.501" type="curve" smooth="yes"/>
      <point x="78.999" y="596.433" type="line" smooth="yes"/>
      <point x="78.999" y="619.812"/>
      <point x="97.9629" y="638.762"/>
      <point x="121.328" y="638.762" type="curve" smooth="yes"/>
      <point x="325.637" y="638.762" type="line" smooth="yes"/>
      <point x="425.336" y="638.762"/>
      <point x="506.452" y="557.646"/>
      <point x="506.452" y="457.946" type="curve" smooth="yes"/>
      <point x="506.452" y="415.73"/>
      <point x="491.807" y="376.943"/>
    </contour>
    <contour>
      <point x="163.656" y="554.104" type="line"/>
      <point x="163.656" y="361.789" type="line"/>
      <point x="325.636" y="361.789" type="line" smooth="yes"/>
      <point x="378.66" y="361.789"/>
      <point x="421.793" y="404.922"/>
      <point x="421.793" y="457.946" type="curve" smooth="yes"/>
      <point x="421.793" y="510.971"/>
      <point x="378.66" y="554.104"/>
      <point x="325.636" y="554.104" type="curve" smooth="yes"/>
    </contour>
    <contour>
      <point x="394.208" y="84.8301" type="line" smooth="yes"/>
      <point x="447.232" y="84.8301"/>
      <point x="490.365" y="127.979"/>
      <point x="490.365" y="180.988" type="curve" smooth="yes"/>
      <point x="490.365" y="233.998"/>
      <point x="447.232" y="277.131"/>
      <point x="394.208" y="277.131" type="curve" smooth="yes"/>
      <point x="163.656" y="277.131" type="line"/>
      <point x="163.656" y="84.8301" type="line"/>
    </contour>
  </outline>
</glyph>
<glyph name="C" format="2">
  <advance width="557"/>
  <unicode hex="0043"/>
  <outline>
    <contour>
      <point x="364.934" y="555.47" type="curve" smooth="yes"/>
      <point x="236.31" y="555.47"/>
      <point x="131.658" y="449.843"/>
      <point x="131.658" y="320.006" type="curve" smooth="yes"/>
      <point x="131.658" y="190.169"/>
      <point x="236.31" y="84.5439"/>
      <point x="364.934" y="84.5439" type="curve" smooth="yes"/>
      <point x="383.389" y="84.5439"/>
      <point x="401.688" y="86.7451"/>
      <point x="419.438" y="91.0342" type="curve" smooth="yes"/>
      <point x="461.161" y="101.123"/>
      <point x="504.422" y="81.0732"/>
      <point x="526.349" y="44.1768" type="curve"/>
      <point x="477.614" y="15.1953"/>
      <point x="421.796" y="-0.113281"/>
      <point x="364.934" y="-0.113281" type="curve" smooth="yes"/>
      <point x="189.621" y="-0.113281"/>
      <point x="47" y="143.495"/>
      <point x="47" y="320.007" type="curve" smooth="yes"/>
      <point x="47" y="496.519"/>
      <point x="189.621" y="640.127"/>
      <point x="364.934" y="640.127" type="curve" smooth="yes"/>
      <point x="421.796" y="640.127"/>
      <point x="477.614" y="624.818"/>
      <point x="526.349" y="595.852" type="curve"/>
      <point x="504.408" y="558.955"/>
      <point x="461.147" y="538.905"/>
      <point x="419.425" y="548.979" type="curve" smooth="yes"/>
      <point x="401.675" y="553.269"/>
      <point x="383.375" y="555.47"/>
    </contour>
  </outline>
</glyph>
<glyph name="D" format="2">
  <advance width="606"/>
  <unicode hex="0044"/>
  <outline>
    <contour>
      <point x="238.989" y="640.406" type="line" smooth="yes"/>
      <point x="415.699" y="640.406"/>
      <point x="558.955" y="497.151"/>
      <point x="558.955" y="320.441" type="curve" smooth="yes"/>
      <point x="558.955" y="143.731"/>
      <point x="415.699" y="0.475586"/>
      <point x="238.989" y="0.475586" type="curve" smooth="yes"/>
      <point x="79" y="0.475586" type="line"/>
      <point x="79" y="640.406" type="line"/>
    </contour>
    <contour>
      <point x="238.989" y="85.1348" type="line" smooth="yes"/>
      <point x="368.742" y="85.1348"/>
      <point x="474.297" y="190.688"/>
      <point x="474.297" y="320.441" type="curve" smooth="yes"/>
      <point x="474.297" y="450.194"/>
      <point x="368.742" y="555.749"/>
      <point x="238.989" y="555.749" type="curve" smooth="yes"/>
      <point x="163.657" y="555.749" type="line"/>
      <point x="163.657" y="85.1348" type="line"/>
    </contour>
  </outline>
</glyph>
<glyph name="E" format="2">
  <advance width="503"/>
  <unicode hex="0045"/>
  <outline>
    <contour>
      <point x="382.626" y="553.509" type="curve" smooth="yes"/>
      <point x="163.658" y="553.509" type="line"/>
      <point x="163.658" y="361.42" type="line"/>
      <point x="398.091" y="361.42" type="line"/>
      <point x="398.091" y="314.66"/>
      <point x="360.192" y="276.762"/>
      <point x="313.433" y="276.762" type="curve" smooth="yes"/>
      <point x="163.658" y="276.762" type="line"/>
      <point x="163.658" y="84.6582" type="line"/>
      <point x="382.626" y="84.6582" type="line" smooth="yes"/>
      <point x="429.386" y="84.6582"/>
      <point x="467.284" y="46.7598"/>
      <point x="467.284" y="0" type="curve"/>
      <point x="121.329" y="0" type="line" smooth="yes"/>
      <point x="97.9492" y="-0"/>
      <point x="79" y="18.9492"/>
      <point x="79" y="42.3291" type="curve" smooth="yes"/>
      <point x="79" y="595.838" type="line" smooth="yes"/>
      <point x="79" y="619.218"/>
      <point x="97.9492" y="638.167"/>
      <point x="121.329" y="638.167" type="curve" smooth="yes"/>
      <point x="467.284" y="638.167" type="line"/>
      <point x="467.284" y="591.407"/>
      <point x="429.371" y="553.509"/>
    </contour>
  </outline>
</glyph>
<glyph name="F" format="2">
  <advance width="456"/>
  <unicode hex="0046"/>
  <outline>
    <contour>
      <point x="275.193" y="555.568" type="line" smooth="yes"/>
      <point x="209.725" y="555.568"/>
      <point x="156.658" y="502.502"/>
      <point x="156.658" y="437.033" type="curve" smooth="yes"/>
      <point x="156.658" y="320.262" type="line"/>
      <point x="354.307" y="320.262" type="line"/>
      <point x="354.307" y="273.502"/>
      <point x="316.408" y="235.604"/>
      <point x="269.648" y="235.604" type="curve" smooth="yes"/>
      <point x="156.658" y="235.604" type="line"/>
      <point x="156.658" y="84.9541" type="line" smooth="yes"/>
      <point x="156.658" y="38.209"/>
      <point x="118.76" y="0.295898"/>
      <point x="72" y="0.295898" type="curve"/>
      <point x="72" y="437.033" type="line" smooth="yes"/>
      <point x="72" y="549.247"/>
      <point x="162.965" y="640.227"/>
      <point x="275.193" y="640.227" type="curve" smooth="yes"/>
      <point x="434.294" y="640.227" type="line"/>
      <point x="434.294" y="593.467"/>
      <point x="396.396" y="555.568"/>
      <point x="349.636" y="555.568" type="curve" smooth="yes"/>
    </contour>
  </outline>
</glyph>
<glyph name="G" format="2">
  <advance width="731"/>
  <unicode hex="0047"/>
  <outline>
    <contour>
      <point x="642.02" y="297.289" type="line" smooth="yes"/>
      <point x="665.399" y="297.289"/>
      <point x="684.335" y="278.354"/>
      <point x="684.335" y="254.975" type="curve" smooth="yes"/>
      <point x="684.335" y="251.588"/>
      <point x="683.939" y="247.566"/>
      <point x="683.135" y="244.279" type="curve" smooth="yes"/>
      <point x="648.044" y="100.389"/>
      <point x="519.096" y="-0.114258"/>
      <point x="369.575" y="-0.114258" type="curve" smooth="yes"/>
      <point x="191.709" y="-0.114258"/>
      <point x="47" y="143.339"/>
      <point x="47" y="319.653" type="curve" smooth="yes"/>
      <point x="47" y="495.968"/>
      <point x="191.709" y="639.421"/>
      <point x="369.575" y="639.421" type="curve" smooth="yes"/>
      <point x="515.103" y="639.421"/>
      <point x="643.19" y="542.233"/>
      <point x="681.047" y="403.098" type="curve"/>
      <point x="672.327" y="400.713"/>
      <point x="663.48" y="399.57"/>
      <point x="654.746" y="399.57" type="curve" smooth="yes"/>
      <point x="621.307" y="399.57"/>
      <point x="589.334" y="416.36"/>
      <point x="570.625" y="445.482" type="curve" smooth="yes"/>
      <point x="527.83" y="512.08"/>
      <point x="452.569" y="554.748"/>
      <point x="369.576" y="554.748" type="curve" smooth="yes"/>
      <point x="238.385" y="554.748"/>
      <point x="131.659" y="449.278"/>
      <point x="131.659" y="319.639" type="curve" smooth="yes"/>
      <point x="131.659" y="189.999"/>
      <point x="238.385" y="84.5293"/>
      <point x="369.576" y="84.5293" type="curve" smooth="yes"/>
      <point x="460.922" y="84.5293"/>
      <point x="541.812" y="135.169"/>
      <point x="581.63" y="212.631" type="curve"/>
      <point x="511.279" y="212.631" type="line" smooth="yes"/>
      <point x="464.534" y="212.631"/>
      <point x="426.621" y="250.529"/>
      <point x="426.621" y="297.289" type="curve"/>
    </contour>
  </outline>
</glyph>
<glyph name="H" format="2">
  <advance width="637"/>
  <unicode hex="0048"/>
  <outline>
    <contour>
      <point x="474.297" y="555.272" type="line" smooth="yes"/>
      <point x="474.297" y="602.032"/>
      <point x="512.21" y="639.931"/>
      <point x="558.955" y="639.931" type="curve"/>
      <point x="558.955" y="84.6582" type="line" smooth="yes"/>
      <point x="558.955" y="37.8984"/>
      <point x="521.057" y="0"/>
      <point x="474.297" y="-0" type="curve"/>
      <point x="474.297" y="277.636" type="line"/>
      <point x="163.658" y="277.636" type="line"/>
      <point x="163.658" y="84.6572" type="line" smooth="yes"/>
      <point x="163.658" y="37.8975"/>
      <point x="125.76" y="-0.000976562"/>
      <point x="79" y="-0.000976562" type="curve"/>
      <point x="79" y="555.271" type="line" smooth="yes"/>
      <point x="79" y="602.031"/>
      <point x="116.898" y="639.93"/>
      <point x="163.658" y="639.93" type="curve"/>
      <point x="163.658" y="362.294" type="line"/>
      <point x="474.297" y="362.294" type="line"/>
    </contour>
  </outline>
</glyph>
<glyph name="I" format="2">
  <advance width="241"/>
  <unicode hex="0049"/>
  <outline>
    <contour>
      <point x="78" y="555.272" type="line" smooth="yes"/>
      <point x="78" y="602.032"/>
      <point x="115.898" y="639.931"/>
      <point x="162.658" y="639.931" type="curve"/>
      <point x="162.658" y="84.6582" type="line" smooth="yes"/>
      <point x="162.658" y="37.8984"/>
      <point x="124.76" y="0"/>
      <point x="78" y="0" type="curve"/>
    </contour>
  </outline>
</glyph>
<glyph name="J" format="2">
  <advance width="461"/>
  <unicode hex="004A"/>
  <outline>
    <contour>
      <point x="166.25" y="639.14" type="curve"/>
      <point x="345.654" y="639.138" type="line" smooth="yes"/>
      <point x="369.034" y="639.138"/>
      <point x="387.983" y="620.188"/>
      <point x="387.983" y="596.809" type="curve" smooth="yes"/>
      <point x="387.983" y="186.104" type="line" smooth="yes"/>
      <point x="387.983" y="88.7764"/>
      <point x="313.329" y="4.89453"/>
      <point x="216.113" y="0.0976562" type="curve" smooth="yes"/>
      <point x="112.195" y="-5.03809"/>
      <point x="25.999" y="78.04"/>
      <point x="25.999" y="180.857" type="curve"/>
      <point x="67.0586" y="180.857"/>
      <point x="104.436" y="159.594"/>
      <point x="127.9" y="125.914" type="curve" smooth="yes"/>
      <point x="147.541" y="97.7227"/>
      <point x="181.855" y="80.4805"/>
      <point x="219.684" y="85.334" type="curve" smooth="yes"/>
      <point x="268.235" y="91.5703"/>
      <point x="303.34" y="135.254"/>
      <point x="303.34" y="184.215" type="curve" smooth="yes"/>
      <point x="303.34" y="554.481" type="line"/>
      <point x="250.908" y="554.481" type="line" smooth="yes"/>
      <point x="204.148" y="554.481"/>
      <point x="166.25" y="592.38"/>
    </contour>
  </outline>
</glyph>
<glyph name="K" format="2">
  <advance width="676"/>
  <unicode hex="004B"/>
  <outline>
    <contour>
      <point x="660.559" y="640.227" type="curve"/>
      <point x="195.7" y="316.086" type="line"/>
      <point x="656.028" y="-0.25293" type="line"/>
      <point x="652.783" y="-0.25293" type="line" smooth="yes"/>
      <point x="557.543" y="-0.25293"/>
      <point x="464.518" y="28.6152"/>
      <point x="386.025" y="82.5703" type="curve" smooth="yes"/>
      <point x="163.657" y="235.378" type="line"/>
      <point x="163.657" y="84.3906" type="line" smooth="yes"/>
      <point x="163.657" y="37.6309"/>
      <point x="125.759" y="-0.267578"/>
      <point x="78.999" y="-0.267578" type="curve"/>
      <point x="78.999" y="553.734" type="line" smooth="yes"/>
      <point x="78.999" y="600.494"/>
      <point x="116.897" y="638.393"/>
      <point x="163.657" y="638.393" type="curve"/>
      <point x="163.657" y="396.934" type="line"/>
      <point x="391.147" y="555.568" type="line" smooth="yes"/>
      <point x="470.176" y="610.681"/>
      <point x="564.203" y="640.227"/>
    </contour>
  </outline>
</glyph>
<glyph name="L" format="2">
  <advance width="415"/>
  <unicode hex="004C"/>
  <outline>
    <contour>
      <point x="314.321" y="84.9404" type="line" smooth="yes"/>
      <point x="361.066" y="84.9404"/>
      <point x="398.979" y="47.0557"/>
      <point x="398.979" y="0.295898" type="curve"/>
      <point x="121.343" y="0.295898" type="line" smooth="yes"/>
      <point x="97.9629" y="0.295898"/>
      <point x="78.999" y="19.2451"/>
      <point x="78.999" y="42.625" type="curve" smooth="yes"/>
      <point x="78.999" y="640.227" type="line"/>
      <point x="125.759" y="640.227"/>
      <point x="163.672" y="602.328"/>
      <point x="163.672" y="555.568" type="curve" smooth="yes"/>
      <point x="163.672" y="84.9404" type="line"/>
    </contour>
  </outline>
</glyph>
<glyph name="M" format="2">
  <advance width="766"/>
  <unicode hex="004D"/>
  <outline>
    <contour>
      <point x="578.54" y="608.9" type="curve" smooth="yes"/>
      <point x="736.049" y="0.280273" type="line"/>
      <point x="734.829" y="0.280273" type="line" smooth="yes"/>
      <point x="684.069" y="0.280273"/>
      <point x="639.72" y="34.6104"/>
      <point x="627.01" y="83.75" type="curve" smooth="yes"/>
      <point x="530.5" y="456.66" type="line"/>
      <point x="419.17" y="154.49" type="line" smooth="yes"/>
      <point x="412.1" y="135.311"/>
      <point x="392.119" y="123.541"/>
      <point x="371.239" y="127.581" type="curve" smooth="yes"/>
      <point x="356.169" y="130.491"/>
      <point x="344.279" y="142.171"/>
      <point x="338.97" y="156.561" type="curve" smooth="yes"/>
      <point x="229.34" y="454.15" type="line"/>
      <point x="138.12" y="84.9404" type="line" smooth="yes"/>
      <point x="125.84" y="35.2207"/>
      <point x="81.2197" y="0.280273"/>
      <point x="30" y="0.280273" type="curve"/>
      <point x="180.25" y="608.45" type="line" smooth="yes"/>
      <point x="185.36" y="629.08"/>
      <point x="205.17" y="643.16"/>
      <point x="227.12" y="640.25" type="curve" smooth="yes"/>
      <point x="243.19" y="638.12"/>
      <point x="256.23" y="626.07"/>
      <point x="261.83" y="610.86" type="curve" smooth="yes"/>
      <point x="379.45" y="291.58" type="line"/>
      <point x="497.851" y="612.94" type="line" smooth="yes"/>
      <point x="504.24" y="630.29"/>
      <point x="521.11" y="641.69"/>
      <point x="539.67" y="640.58" type="curve" smooth="yes"/>
      <point x="558.16" y="639.65"/>
      <point x="573.9" y="626.82"/>
    </contour>
  </outline>
</glyph>
<glyph name="N" format="2">
  <advance width="737"/>
  <unicode hex="004E"/>
  <outline>
    <contour>
      <point x="657.723" y="640.227" type="curve"/>
      <point x="657.737" y="53.3193" type="line" smooth="yes"/>
      <point x="657.737" y="35.583"/>
      <point x="649.596" y="18.1152"/>
      <point x="634.513" y="8.77441" type="curve" smooth="yes"/>
      <point x="613.574" y="-4.19238"/>
      <point x="587.146" y="0.181641"/>
      <point x="571.429" y="17.8613" type="curve" smooth="yes"/>
      <point x="177.769" y="460.807" type="line"/>
      <point x="177.769" y="99.0625" type="line" smooth="yes"/>
      <point x="177.769" y="44.5146"/>
      <point x="133.549" y="0.294922"/>
      <point x="79.001" y="0.294922" type="curve"/>
      <point x="79.001" y="588.076" type="line" smooth="yes"/>
      <point x="79.001" y="605.812"/>
      <point x="87.1279" y="623.267"/>
      <point x="102.211" y="632.607" type="curve" smooth="yes"/>
      <point x="123.149" y="645.574"/>
      <point x="149.577" y="641.187"/>
      <point x="165.295" y="623.521" type="curve" smooth="yes"/>
      <point x="558.955" y="180.576" type="line"/>
      <point x="558.955" y="541.459" type="line" smooth="yes"/>
      <point x="558.955" y="596.007"/>
      <point x="603.175" y="640.227"/>
    </contour>
  </outline>
</glyph>
<glyph name="O" format="2">
  <advance width="734"/>
  <unicode hex="004F"/>
  <outline>
    <contour>
      <point x="366.965" y="640.393" type="curve" smooth="yes"/>
      <point x="543.675" y="640.393"/>
      <point x="686.931" y="497.137"/>
      <point x="686.931" y="320.427" type="curve" smooth="yes"/>
      <point x="686.931" y="143.717"/>
      <point x="543.675" y="0.460938"/>
      <point x="366.965" y="0.460938" type="curve" smooth="yes"/>
      <point x="190.255" y="0.460938"/>
      <point x="46.999" y="143.717"/>
      <point x="46.999" y="320.427" type="curve" smooth="yes"/>
      <point x="46.999" y="497.137"/>
      <point x="190.255" y="640.393"/>
    </contour>
    <contour>
      <point x="366.965" y="85.1201" type="curve" smooth="yes"/>
      <point x="496.718" y="85.1201"/>
      <point x="602.272" y="190.675"/>
      <point x="602.272" y="320.428" type="curve" smooth="yes"/>
      <point x="602.272" y="450.181"/>
      <point x="496.718" y="555.735"/>
      <point x="366.965" y="555.735" type="curve" smooth="yes"/>
      <point x="237.212" y="555.735"/>
      <point x="131.657" y="450.181"/>
      <point x="131.657" y="320.428" type="curve" smooth="yes"/>
      <point x="131.657" y="190.675"/>
      <point x="237.212" y="85.1201"/>
    </contour>
  </outline>
</glyph>
<glyph name="P" format="2">
  <advance width="695"/>
  <unicode hex="0050"/>
  <outline>
    <contour>
      <point x="412.283" y="639.916" type="line" smooth="yes"/>
      <point x="523.82" y="639.916"/>
      <point x="614.588" y="549.147"/>
      <point x="614.588" y="437.597" type="curve" smooth="yes"/>
      <point x="614.588" y="326.046"/>
      <point x="523.834" y="235.292"/>
      <point x="412.283" y="235.292" type="curve" smooth="yes"/>
      <point x="164.658" y="235.292" type="line"/>
      <point x="164.658" y="84.6572" type="line" smooth="yes"/>
      <point x="164.658" y="37.8975"/>
      <point x="126.76" y="-0.000976562"/>
      <point x="80" y="-0.000976562" type="curve"/>
      <point x="80" y="591.9" type="line" smooth="yes"/>
      <point x="80" y="618.427"/>
      <point x="101.489" y="639.916"/>
      <point x="128.016" y="639.916" type="curve" smooth="yes"/>
    </contour>
    <contour>
      <point x="412.283" y="319.964" type="line" smooth="yes"/>
      <point x="477.159" y="319.964"/>
      <point x="529.93" y="372.734"/>
      <point x="529.93" y="437.597" type="curve" smooth="yes"/>
      <point x="529.93" y="502.459"/>
      <point x="477.159" y="555.243"/>
      <point x="412.283" y="555.243" type="curve" smooth="yes"/>
      <point x="164.658" y="555.243" type="line"/>
      <point x="164.658" y="319.964" type="line"/>
    </contour>
  </outline>
</glyph>
<glyph name="Q" format="2">
  <advance width="592"/>
  <unicode hex="0051"/>
  <outline>
    <contour>
      <point x="488.624" y="90.4355" type="curve" smooth="yes"/>
      <point x="513.979" y="80.4463"/>
      <point x="531.784" y="57.3643"/>
      <point x="531.784" y="30.1182" type="curve" smooth="yes"/>
      <point x="531.784" y="13.6377"/>
      <point x="531.771" y="-0.189453"/>
      <point x="531.742" y="-0.189453" type="curve" smooth="yes"/>
      <point x="469.081" y="-0.189453"/>
      <point x="432.805" y="19.3379"/>
      <point x="409.82" y="44.0576" type="curve"/>
      <point x="374.998" y="17.8701"/>
      <point x="334.813" y="2.84375"/>
      <point x="291.977" y="2.84375" type="curve" smooth="yes"/>
      <point x="159.444" y="2.84375"/>
      <point x="51.999" y="145.958"/>
      <point x="51.999" y="322.47" type="curve" smooth="yes"/>
      <point x="51.999" y="498.981"/>
      <point x="159.444" y="642.082"/>
      <point x="291.977" y="642.082" type="curve" smooth="yes"/>
      <point x="424.509" y="642.082"/>
      <point x="531.954" y="498.981"/>
      <point x="531.954" y="322.47" type="curve" smooth="yes"/>
      <point x="531.954" y="238.87"/>
      <point x="507.841" y="162.805"/>
      <point x="468.391" y="105.844" type="curve"/>
      <point x="473.513" y="99.1133"/>
      <point x="479.721" y="93.9346"/>
    </contour>
    <contour>
      <point x="136.67" y="322.471" type="curve" smooth="yes"/>
      <point x="136.67" y="195.103"/>
      <point x="207.784" y="87.4883"/>
      <point x="291.977" y="87.4883" type="curve" smooth="yes"/>
      <point x="319.505" y="87.4883"/>
      <point x="345.579" y="99.1572"/>
      <point x="368.281" y="119.094" type="curve"/>
      <point x="355.216" y="149.839"/>
      <point x="344.21" y="164.075"/>
      <point x="292.258" y="164.075" type="curve"/>
      <point x="292.258" y="164.075"/>
      <point x="292.258" y="164.399"/>
      <point x="292.258" y="164.992" type="curve" smooth="yes"/>
      <point x="291.82" y="218.228"/>
      <point x="352.068" y="251.964"/>
      <point x="395.428" y="221.063" type="curve" smooth="yes"/>
      <point x="406.137" y="213.43"/>
      <point x="414.616" y="204.668"/>
      <point x="421.728" y="195.497" type="curve"/>
      <point x="437.784" y="232.408"/>
      <point x="447.309" y="276.078"/>
      <point x="447.309" y="322.471" type="curve" smooth="yes"/>
      <point x="447.309" y="449.824"/>
      <point x="376.182" y="557.425"/>
      <point x="291.989" y="557.425" type="curve" smooth="yes"/>
      <point x="207.797" y="557.425"/>
      <point x="136.67" y="449.839"/>
    </contour>
  </outline>
</glyph>
<glyph name="R" format="2">
  <advance width="710"/>
  <unicode hex="0052"/>
  <outline>
    <contour>
      <point x="643.498" y="446.967" type="curve" smooth="yes"/>
      <point x="643.499" y="437.853" type="line" smooth="yes"/>
      <point x="643.499" y="377.562"/>
      <point x="615.731" y="323.648"/>
      <point x="572.344" y="288.148" type="curve"/>
      <point x="615.548" y="252.705"/>
      <point x="643.499" y="197.564"/>
      <point x="643.499" y="135.553" type="curve" smooth="yes"/>
      <point x="643.499" y="0.000976562" type="line"/>
      <point x="596.739" y="0.000976562"/>
      <point x="558.841" y="37.9141"/>
      <point x="558.841" y="84.6592" type="curve" smooth="yes"/>
      <point x="558.841" y="135.553" type="line" smooth="yes"/>
      <point x="558.841" y="195.604"/>
      <point x="514.311" y="244.466"/>
      <point x="459.593" y="244.466" type="curve"/>
      <point x="459.593" y="244.945" type="line"/>
      <point x="456.418" y="244.79"/>
      <point x="453.3" y="244.466"/>
      <point x="450.097" y="244.466" type="curve" smooth="yes"/>
      <point x="164.658" y="244.466" type="line"/>
      <point x="164.658" y="84.6592" type="line" smooth="yes"/>
      <point x="164.658" y="37.9141"/>
      <point x="126.745" y="0.000976562"/>
      <point x="80" y="0.000976562" type="curve"/>
      <point x="80" y="598.025" type="line" smooth="yes"/>
      <point x="80" y="621.405"/>
      <point x="98.9492" y="640.354"/>
      <point x="122.329" y="640.368" type="curve" smooth="yes"/>
      <point x="450.097" y="640.368" type="line" smooth="yes"/>
      <point x="556.737" y="640.368"/>
      <point x="643.498" y="553.607"/>
    </contour>
    <contour>
      <point x="164.659" y="555.696" type="line"/>
      <point x="164.659" y="329.109" type="line"/>
      <point x="450.098" y="329.109" type="line" smooth="yes"/>
      <point x="510.063" y="329.109"/>
      <point x="558.841" y="377.887"/>
      <point x="558.841" y="437.853" type="curve" smooth="yes"/>
      <point x="558.841" y="446.953" type="line" smooth="yes"/>
      <point x="558.841" y="506.919"/>
      <point x="510.063" y="555.696"/>
      <point x="450.098" y="555.696" type="curve" smooth="yes"/>
    </contour>
  </outline>
</glyph>
<glyph name="S" format="2">
  <advance width="657"/>
  <unicode hex="0053"/>
  <outline>
    <contour>
      <point x="333.99" y="365.47" type="curve" smooth="yes"/>
      <point x="449.641" y="348.42"/>
      <point x="593.601" y="327.201"/>
      <point x="602.751" y="186.291" type="curve"/>
      <point x="602.841" y="183.611" type="line" smooth="yes"/>
      <point x="602.911" y="127.821"/>
      <point x="571.602" y="78.9814"/>
      <point x="514.672" y="46.0615" type="curve" smooth="yes"/>
      <point x="462.142" y="15.7012"/>
      <point x="391.722" y="0.431641"/>
      <point x="321.962" y="0.431641" type="curve" smooth="yes"/>
      <point x="254.562" y="0.431641"/>
      <point x="187.771" y="14.6719"/>
      <point x="138.291" y="43.2715" type="curve" smooth="yes"/>
      <point x="83.8711" y="74.7217"/>
      <point x="53.9414" y="122.042"/>
      <point x="54.0117" y="176.512" type="curve"/>
      <point x="62.9717" y="176.512" type="line" smooth="yes"/>
      <point x="98.5713" y="176.472"/>
      <point x="131.501" y="160.422"/>
      <point x="156.351" y="134.932" type="curve" smooth="yes"/>
      <point x="162.251" y="128.872"/>
      <point x="170.121" y="122.642"/>
      <point x="180.631" y="116.571" type="curve" smooth="yes"/>
      <point x="216.611" y="95.791"/>
      <point x="268.812" y="85.4609"/>
      <point x="321.661" y="85.4609" type="curve" smooth="yes"/>
      <point x="377.102" y="85.4609"/>
      <point x="433.281" y="96.8213"/>
      <point x="472.281" y="119.361" type="curve" smooth="yes"/>
      <point x="502.241" y="136.682"/>
      <point x="517.661" y="157.812"/>
      <point x="518.142" y="182.212" type="curve" smooth="yes"/>
      <point x="513.102" y="246.492"/>
      <point x="451.132" y="262.622"/>
      <point x="321.632" y="281.712" type="curve" smooth="yes"/>
      <point x="206.682" y="298.662"/>
      <point x="63.6221" y="319.752"/>
      <point x="54.1025" y="459.042" type="curve"/>
      <point x="54.0029" y="461.862" type="line" smooth="yes"/>
      <point x="53.9229" y="516.692"/>
      <point x="84.7031" y="564.712"/>
      <point x="140.723" y="597.092" type="curve" smooth="yes"/>
      <point x="193.143" y="627.382"/>
      <point x="263.442" y="642.592"/>
      <point x="333.242" y="642.592" type="curve" smooth="yes"/>
      <point x="401.302" y="642.592"/>
      <point x="468.852" y="628.162"/>
      <point x="518.972" y="599.182" type="curve" smooth="yes"/>
      <point x="573.122" y="567.852"/>
      <point x="602.912" y="520.911"/>
      <point x="602.812" y="467.001" type="curve"/>
      <point x="592.522" y="467.001" type="line" smooth="yes"/>
      <point x="557.532" y="467.051"/>
      <point x="525.152" y="482.771"/>
      <point x="500.662" y="507.761" type="curve" smooth="yes"/>
      <point x="494.802" y="513.73"/>
      <point x="487.012" y="519.87"/>
      <point x="476.602" y="525.89" type="curve" smooth="yes"/>
      <point x="440.031" y="547.04"/>
      <point x="387.001" y="557.57"/>
      <point x="333.471" y="557.57" type="curve" smooth="yes"/>
      <point x="277.99" y="557.57"/>
      <point x="221.96" y="546.28"/>
      <point x="183.09" y="523.8" type="curve" smooth="yes"/>
      <point x="154.12" y="507.06"/>
      <point x="139.19" y="486.72"/>
      <point x="138.69" y="463.34" type="curve" smooth="yes"/>
      <point x="143.921" y="400.33"/>
      <point x="205.471" y="384.41"/>
    </contour>
  </outline>
</glyph>
<glyph name="T" format="2">
  <advance width="515"/>
  <unicode hex="0054"/>
  <outline>
    <contour>
      <point x="103.658" y="640.227" type="curve" smooth="yes"/>
      <point x="498.955" y="640.227" type="line"/>
      <point x="498.955" y="593.467"/>
      <point x="461.057" y="555.568"/>
      <point x="414.297" y="555.568" type="curve" smooth="yes"/>
      <point x="301.292" y="555.568" type="line"/>
      <point x="301.292" y="84.9541" type="line" smooth="yes"/>
      <point x="301.292" y="38.209"/>
      <point x="263.394" y="0.295898"/>
      <point x="216.634" y="0.295898" type="curve"/>
      <point x="216.634" y="555.568" type="line"/>
      <point x="19" y="555.568" type="line"/>
      <point x="19" y="602.328"/>
      <point x="56.8984" y="640.227"/>
    </contour>
  </outline>
</glyph>
<glyph name="U" format="2">
  <advance width="668"/>
  <unicode hex="0055"/>
  <outline>
    <contour>
      <point x="515.153" y="555.09" type="line" smooth="yes"/>
      <point x="515.153" y="601.85"/>
      <point x="553.05" y="639.749"/>
      <point x="599.81" y="639.749" type="curve"/>
      <point x="599.81" y="266.731" type="line" smooth="yes"/>
      <point x="599.81" y="116.139"/>
      <point x="474.445" y="-5.72656"/>
      <point x="322.611" y="0.015625" type="curve" smooth="yes"/>
      <point x="178.171" y="5.47559"/>
      <point x="65.999" y="128.737"/>
      <point x="65.999" y="273.276" type="curve" smooth="yes"/>
      <point x="65.999" y="555.089" type="line" smooth="yes"/>
      <point x="65.999" y="601.849"/>
      <point x="103.897" y="639.747"/>
      <point x="150.657" y="639.747" type="curve"/>
      <point x="150.657" y="272.007" type="line" smooth="yes"/>
      <point x="150.657" y="173.987"/>
      <point x="225.834" y="89.541"/>
      <point x="323.727" y="84.7012" type="curve" smooth="yes"/>
      <point x="428.364" y="79.5371"/>
      <point x="515.153" y="163.193"/>
      <point x="515.153" y="266.73" type="curve" smooth="yes"/>
    </contour>
  </outline>
</glyph>
<glyph name="V" format="2">
  <advance width="816"/>
  <unicode hex="0056"/>
  <outline>
    <contour>
      <point x="602.608" y="555.284" type="line" smooth="yes"/>
      <point x="626.919" y="606.954"/>
      <point x="678.914" y="639.929"/>
      <point x="736.016" y="639.929" type="curve"/>
      <point x="446.302" y="24.3096" type="line" smooth="yes"/>
      <point x="437.794" y="6.2207"/>
      <point x="417.476" y="-3.89551"/>
      <point x="397.073" y="1.41016" type="curve" smooth="yes"/>
      <point x="384.417" y="4.69727"/>
      <point x="374.356" y="14.4189"/>
      <point x="368.783" y="26.2568" type="curve" smooth="yes"/>
      <point x="80" y="639.929" type="line"/>
      <point x="137.102" y="639.929"/>
      <point x="189.082" y="606.94"/>
      <point x="213.393" y="555.271" type="curve" smooth="yes"/>
      <point x="407.993" y="141.744" type="line"/>
    </contour>
  </outline>
</glyph>
<glyph name="W" format="2">
  <advance width="743"/>
  <unicode hex="0057"/>
  <outline>
    <contour>
      <point x="605.001" y="555.568" type="line" smooth="yes"/>
      <point x="618.137" y="605.46"/>
      <point x="663.263" y="640.227"/>
      <point x="714.848" y="640.227" type="curve"/>
      <point x="554.576" y="31.8311" type="line" smooth="yes"/>
      <point x="548.706" y="9.59375"/>
      <point x="525.792" y="-4.58691"/>
      <point x="502.102" y="1.84668" type="curve" smooth="yes"/>
      <point x="487.286" y="5.85352"/>
      <point x="476.252" y="18.3545"/>
      <point x="472.344" y="33.1982" type="curve" smooth="yes"/>
      <point x="371.432" y="416.22" type="line"/>
      <point x="270.152" y="31.8301" type="line" smooth="yes"/>
      <point x="264.282" y="9.5791"/>
      <point x="241.368" y="-4.60156"/>
      <point x="217.678" y="1.83203" type="curve" smooth="yes"/>
      <point x="202.877" y="5.85352"/>
      <point x="191.843" y="18.3408"/>
      <point x="187.935" y="33.1846" type="curve" smooth="yes"/>
      <point x="28.001" y="640.211" type="line"/>
      <point x="79.5859" y="640.211"/>
      <point x="124.694" y="605.444"/>
      <point x="137.845" y="555.553" type="curve" smooth="yes"/>
      <point x="229.219" y="208.751" type="line"/>
      <point x="330.498" y="593.141" type="line" smooth="yes"/>
      <point x="336.367" y="615.378"/>
      <point x="359.281" y="629.559"/>
      <point x="382.972" y="623.125" type="curve" smooth="yes"/>
      <point x="397.772" y="619.118"/>
      <point x="408.807" y="606.617"/>
      <point x="412.715" y="591.788" type="curve" smooth="yes"/>
      <point x="513.627" y="208.753" type="line"/>
    </contour>
  </outline>
</glyph>
<glyph name="X" format="2">
  <advance width="653"/>
  <unicode hex="0058"/>
  <outline>
    <contour>
      <point x="629.16" y="638.59" type="curve"/>
      <point x="379.72" y="317.859" type="line"/>
      <point x="627.189" y="-0.310547" type="line"/>
      <point x="559.52" y="-0.310547"/>
      <point x="495.64" y="30.9297"/>
      <point x="454.09" y="84.3496" type="curve" smooth="yes"/>
      <point x="326.09" y="248.909" type="line"/>
      <point x="198.08" y="84.3496" type="line" smooth="yes"/>
      <point x="156.55" y="30.9297"/>
      <point x="92.6602" y="-0.310547"/>
      <point x="24.9902" y="-0.310547" type="curve"/>
      <point x="272.46" y="317.859" type="line"/>
      <point x="23" y="638.59" type="line"/>
      <point x="90.6699" y="638.59"/>
      <point x="154.54" y="607.35"/>
      <point x="196.09" y="553.93" type="curve" smooth="yes"/>
      <point x="326.07" y="386.819" type="line"/>
      <point x="456.07" y="553.93" type="line" smooth="yes"/>
      <point x="497.62" y="607.35"/>
      <point x="561.49" y="638.59"/>
    </contour>
  </outline>
</glyph>
<glyph name="Y" format="2">
  <advance width="589"/>
  <unicode hex="0059"/>
  <outline>
    <contour>
      <point x="576.641" y="639.141" type="curve"/>
      <point x="336.649" y="309.92" type="line"/>
      <point x="336.649" y="84.6592" type="line" smooth="yes"/>
      <point x="336.649" y="37.9141"/>
      <point x="298.751" y="0.000976562"/>
      <point x="251.991" y="0.000976562" type="curve"/>
      <point x="251.991" y="309.92" type="line"/>
      <point x="12" y="639.141" type="line"/>
      <point x="77.8359" y="639.141"/>
      <point x="139.692" y="607.676"/>
      <point x="178.479" y="554.482" type="curve" smooth="yes"/>
      <point x="294.32" y="395.565" type="line"/>
      <point x="410.161" y="554.482" type="line" smooth="yes"/>
      <point x="448.948" y="607.676"/>
      <point x="510.805" y="639.141"/>
    </contour>
  </outline>
</glyph>
<glyph name="Z" format="2">
  <advance width="579"/>
  <unicode hex="005A"/>
  <outline>
    <contour>
      <point x="460.733" y="86.1504" type="line" smooth="yes"/>
      <point x="507.493" y="86.2803"/>
      <point x="545.494" y="48.4805"/>
      <point x="545.614" y="1.7207" type="curve"/>
      <point x="73.5244" y="0.480469" type="line"/>
      <point x="73.4043" y="0.480469" type="line" smooth="yes"/>
      <point x="52.6543" y="0.480469"/>
      <point x="34.2139" y="15.6602"/>
      <point x="31.3135" y="37.7998" type="curve" smooth="yes"/>
      <point x="29.833" y="49.1797"/>
      <point x="33.6934" y="60.6396"/>
      <point x="40.7334" y="69.7295" type="curve" smooth="yes"/>
      <point x="417.134" y="555.579" type="line"/>
      <point x="65.5635" y="555.579" type="line"/>
      <point x="65.5635" y="602.339"/>
      <point x="103.464" y="640.239"/>
      <point x="150.224" y="640.239" type="curve" smooth="yes"/>
      <point x="501.323" y="640.239" type="line" smooth="yes"/>
      <point x="514.184" y="640.239"/>
      <point x="527.044" y="635.47"/>
      <point x="535.434" y="625.72" type="curve" smooth="yes"/>
      <point x="548.974" y="609.95"/>
      <point x="549.033" y="587.601"/>
      <point x="536.934" y="571.99" type="curve" smooth="yes"/>
      <point x="159.924" y="85.3604" type="line"/>
    </contour>
  </outline>
</glyph>
<glyph name="bracketleft" format="2">
  <advance width="308"/>
  <unicode hex="005B"/>
  <outline>
    <contour>
      <point x="189.59" y="555.62" type="line" smooth="yes"/>
      <point x="175.2" y="554.97"/>
      <point x="163.66" y="543.168"/>
      <point x="163.66" y="528.598" type="curve" smooth="yes"/>
      <point x="163.66" y="111.817" type="line" smooth="yes"/>
      <point x="163.66" y="97.2578"/>
      <point x="175.2" y="85.4277"/>
      <point x="189.59" y="84.7881" type="curve" smooth="yes"/>
      <point x="216.63" y="84.7881" type="line" smooth="yes"/>
      <point x="228.97" y="84.7881"/>
      <point x="238.989" y="74.7686"/>
      <point x="238.989" y="62.4189" type="curve" smooth="yes"/>
      <point x="238.989" y="-0.000976562" type="line"/>
      <point x="188.359" y="-0.000976562" type="line"/>
      <point x="188.359" y="0.128906" type="line"/>
      <point x="127.85" y="1.44922"/>
      <point x="79" y="50.9893"/>
      <point x="79" y="111.819" type="curve" smooth="yes"/>
      <point x="79" y="528.6" type="line" smooth="yes"/>
      <point x="79" y="589.43"/>
      <point x="127.85" y="638.97"/>
      <point x="188.359" y="640.279" type="curve"/>
      <point x="188.359" y="640.409" type="line"/>
      <point x="238.989" y="640.409" type="line"/>
      <point x="238.989" y="591.479" type="line" smooth="yes"/>
      <point x="238.989" y="571.68"/>
      <point x="222.93" y="555.62"/>
      <point x="203.14" y="555.62" type="curve" smooth="yes"/>
    </contour>
  </outline>
</glyph>
<glyph name="backslash" format="2">
  <advance width="368"/>
  <unicode hex="005C"/>
  <outline>
    <contour>
      <point x="164.72" y="557.83" type="curve" smooth="yes"/>
      <point x="304.08" y="2.57031" type="line"/>
      <point x="258.73" y="-8.81934"/>
      <point x="212.75" y="18.7109"/>
      <point x="201.36" y="64.0605" type="curve" smooth="yes"/>
      <point x="62" y="619.32" type="line"/>
      <point x="107.35" y="630.7"/>
      <point x="153.33" y="603.16"/>
    </contour>
  </outline>
</glyph>
<glyph name="bracketright" format="2">
  <advance width="308"/>
  <unicode hex="005D"/>
  <outline>
    <contour>
      <point x="118.4" y="84.79" type="line" smooth="yes"/>
      <point x="132.79" y="85.4404"/>
      <point x="144.33" y="97.2412"/>
      <point x="144.33" y="111.812" type="curve" smooth="yes"/>
      <point x="144.33" y="528.592" type="line" smooth="yes"/>
      <point x="144.33" y="543.151"/>
      <point x="132.79" y="554.981"/>
      <point x="118.4" y="555.621" type="curve" smooth="yes"/>
      <point x="91.3604" y="555.621" type="line" smooth="yes"/>
      <point x="79.0205" y="555.621"/>
      <point x="69.001" y="565.641"/>
      <point x="69.001" y="577.99" type="curve" smooth="yes"/>
      <point x="69.001" y="640.41" type="line"/>
      <point x="119.631" y="640.41" type="line"/>
      <point x="119.631" y="640.28" type="line"/>
      <point x="180.141" y="638.971"/>
      <point x="228.99" y="589.431"/>
      <point x="228.99" y="528.601" type="curve" smooth="yes"/>
      <point x="228.99" y="111.82" type="line" smooth="yes"/>
      <point x="228.99" y="50.9805"/>
      <point x="180.141" y="1.44043"/>
      <point x="119.631" y="0.130859" type="curve"/>
      <point x="119.631" y="0.000976562" type="line"/>
      <point x="69.001" y="0.000976562" type="line"/>
      <point x="69.001" y="48.9307" type="line" smooth="yes"/>
      <point x="69.001" y="68.7305"/>
      <point x="85.0605" y="84.79"/>
      <point x="104.851" y="84.79" type="curve" smooth="yes"/>
    </contour>
  </outline>
</glyph>
<glyph name="asciicircum" format="2">
  <advance width="424"/>
  <unicode hex="005E"/>
  <outline>
    <contour>
      <point x="249.71" y="579.09" type="curve" smooth="yes"/>
      <point x="369.7" y="338.948" type="line"/>
      <point x="327.88" y="318.048"/>
      <point x="277.03" y="335.008"/>
      <point x="256.13" y="376.828" type="curve" smooth="yes"/>
      <point x="211.84" y="465.468" type="line"/>
      <point x="167.57" y="376.838" type="line" smooth="yes"/>
      <point x="146.67" y="335.018"/>
      <point x="95.8203" y="318.058"/>
      <point x="54" y="338.958" type="curve"/>
      <point x="173.03" y="577.188" type="line" smooth="yes"/>
      <point x="178.73" y="588.589"/>
      <point x="188.631" y="597.909"/>
      <point x="200.98" y="601.1" type="curve" smooth="yes"/>
      <point x="220.99" y="606.279"/>
      <point x="240.94" y="596.64"/>
    </contour>
  </outline>
</glyph>
<glyph name="underscore" format="2">
  <advance width="572"/>
  <unicode hex="005F"/>
  <outline>
    <contour>
      <point x="130.66" y="84.6602" type="curve" smooth="yes"/>
      <point x="525.95" y="84.6602" type="line"/>
      <point x="525.95" y="37.9004"/>
      <point x="488.04" y="0"/>
      <point x="441.3" y="0" type="curve" smooth="yes"/>
      <point x="46" y="-0" type="line"/>
      <point x="46" y="46.7598"/>
      <point x="83.9004" y="84.6602"/>
    </contour>
  </outline>
</glyph>
<glyph name="grave" format="2">
  <advance width="143"/>
  <unicode hex="0060"/>
  <outline>
    <contour>
      <point x="130.34" y="-47.0703" type="curve" smooth="yes"/>
      <point x="134.74" y="-79.21" type="line"/>
      <point x="88.4199" y="-85.54"/>
      <point x="45.7402" y="-53.1201"/>
      <point x="39.4004" y="-6.7998" type="curve" smooth="yes"/>
      <point x="35" y="25.3398" type="line"/>
      <point x="81.3203" y="31.6797"/>
      <point x="124" y="-0.75"/>
    </contour>
  </outline>
</glyph>
<glyph name="a" format="2">
  <advance width="598"/>
  <unicode hex="0061"/>
  <outline>
    <contour>
      <point x="445.853" y="419.75" type="curve"/>
      <point x="456.266" y="454.699"/>
      <point x="488.62" y="480.21"/>
      <point x="526.956" y="480.21" type="curve"/>
      <point x="526.956" y="84.9131" type="line" smooth="yes"/>
      <point x="526.956" y="38.1533"/>
      <point x="489.043" y="0.254883"/>
      <point x="442.298" y="0.254883" type="curve"/>
      <point x="442.298" y="57.4834" type="line"/>
      <point x="400.42" y="21.8564"/>
      <point x="346.253" y="0.254883"/>
      <point x="286.979" y="0.254883" type="curve" smooth="yes"/>
      <point x="154.433" y="0.254883"/>
      <point x="47.002" y="107.7"/>
      <point x="47.002" y="240.232" type="curve" smooth="yes"/>
      <point x="47.002" y="372.765"/>
      <point x="154.433" y="480.21"/>
      <point x="286.979" y="480.21" type="curve" smooth="yes"/>
      <point x="347.988" y="480.21"/>
      <point x="403.51" y="457.254"/>
    </contour>
    <contour>
      <point x="286.979" y="84.9131" type="curve" smooth="yes"/>
      <point x="372.624" y="84.9131"/>
      <point x="442.298" y="154.587"/>
      <point x="442.298" y="240.232" type="curve" smooth="yes"/>
      <point x="442.298" y="325.878"/>
      <point x="372.624" y="395.552"/>
      <point x="286.979" y="395.552" type="curve" smooth="yes"/>
      <point x="201.333" y="395.552"/>
      <point x="131.659" y="325.878"/>
      <point x="131.659" y="240.232" type="curve" smooth="yes"/>
      <point x="131.659" y="154.587"/>
      <point x="201.333" y="84.9131"/>
    </contour>
  </outline>
</glyph>
<glyph name="b" format="2">
  <advance width="599"/>
  <unicode hex="0062"/>
  <outline>
    <contour>
      <point x="311.978" y="483.794" type="curve" smooth="yes"/>
      <point x="444.51" y="483.794"/>
      <point x="551.955" y="376.35"/>
      <point x="551.955" y="243.817" type="curve" smooth="yes"/>
      <point x="551.955" y="111.285"/>
      <point x="444.51" y="3.83984"/>
      <point x="311.978" y="3.83984" type="curve" smooth="yes"/>
      <point x="251.334" y="3.83984"/>
      <point x="196.095" y="26.5137"/>
      <point x="153.851" y="63.6221" type="curve"/>
      <point x="144.383" y="27.1904"/>
      <point x="111.395" y="0.254883"/>
      <point x="72" y="0.254883" type="curve"/>
      <point x="72" y="555.527" type="line" smooth="yes"/>
      <point x="72" y="602.287"/>
      <point x="109.898" y="640.186"/>
      <point x="156.658" y="640.186" type="curve"/>
      <point x="156.658" y="426.565" type="line"/>
      <point x="198.521" y="462.192"/>
      <point x="252.688" y="483.794"/>
    </contour>
    <contour>
      <point x="311.978" y="88.498" type="curve" smooth="yes"/>
      <point x="397.623" y="88.498"/>
      <point x="467.297" y="158.172"/>
      <point x="467.297" y="243.817" type="curve" smooth="yes"/>
      <point x="467.297" y="329.463"/>
      <point x="397.623" y="399.137"/>
      <point x="311.978" y="399.137" type="curve" smooth="yes"/>
      <point x="226.332" y="399.137"/>
      <point x="156.658" y="329.463"/>
      <point x="156.658" y="243.817" type="curve" smooth="yes"/>
      <point x="156.658" y="158.172"/>
      <point x="226.332" y="88.498"/>
    </contour>
  </outline>
</glyph>
<glyph name="c" format="2">
  <advance width="503"/>
  <unicode hex="0063"/>
  <outline>
    <contour>
      <point x="349.978" y="98.4023" type="curve" smooth="yes"/>
      <point x="387.692" y="115.264"/>
      <point x="431.489" y="110.425"/>
      <point x="462.263" y="82.8828" type="curve" smooth="yes"/>
      <point x="465.367" y="80.1035" type="line"/>
      <point x="419.92" y="29.3369"/>
      <point x="354.804" y="0.228516"/>
      <point x="286.71" y="0.228516" type="curve" smooth="yes"/>
      <point x="154.545" y="0.228516"/>
      <point x="47.001" y="107.772"/>
      <point x="47.001" y="239.938" type="curve" smooth="yes"/>
      <point x="47.001" y="372.103"/>
      <point x="154.531" y="479.646"/>
      <point x="286.711" y="479.646" type="curve" smooth="yes"/>
      <point x="354.805" y="479.646"/>
      <point x="419.921" y="450.524"/>
      <point x="465.368" y="399.758" type="curve"/>
      <point x="462.066" y="396.809" type="line" smooth="yes"/>
      <point x="431.392" y="369.337"/>
      <point x="387.722" y="364.54"/>
      <point x="350.147" y="381.387" type="curve" smooth="yes"/>
      <point x="310.768" y="399.052"/>
      <point x="264.079" y="400.321"/>
      <point x="220.818" y="380.385" type="curve" smooth="yes"/>
      <point x="174.99" y="359.263"/>
      <point x="141.945" y="315.805"/>
      <point x="133.79" y="266.012" type="curve" smooth="yes"/>
      <point x="117.902" y="169.05"/>
      <point x="192.655" y="84.8857"/>
      <point x="286.71" y="84.8857" type="curve" smooth="yes"/>
      <point x="308.721" y="84.8857"/>
      <point x="330.267" y="89.584"/>
    </contour>
  </outline>
</glyph>
<glyph name="d" format="2">
  <advance width="598"/>
  <unicode hex="0064"/>
  <outline>
    <contour>
      <point x="442.297" y="555.541" type="line" smooth="yes"/>
      <point x="442.297" y="602.301"/>
      <point x="480.209" y="640.199"/>
      <point x="526.954" y="640.199" type="curve"/>
      <point x="526.954" y="84.8984" type="line" smooth="yes"/>
      <point x="526.954" y="38.1387"/>
      <point x="489.056" y="0.240234"/>
      <point x="442.296" y="0.240234" type="curve"/>
      <point x="442.296" y="57.4688" type="line"/>
      <point x="400.433" y="21.8418"/>
      <point x="346.266" y="0.240234"/>
      <point x="286.977" y="0.240234" type="curve" smooth="yes"/>
      <point x="154.444" y="0.240234"/>
      <point x="46.999" y="107.686"/>
      <point x="46.999" y="240.218" type="curve" smooth="yes"/>
      <point x="46.999" y="372.75"/>
      <point x="154.444" y="480.195"/>
      <point x="286.977" y="480.195" type="curve" smooth="yes"/>
      <point x="346.266" y="480.195"/>
      <point x="400.419" y="458.594"/>
      <point x="442.297" y="422.967" type="curve"/>
    </contour>
    <contour>
      <point x="286.977" y="84.8984" type="curve" smooth="yes"/>
      <point x="372.622" y="84.8984"/>
      <point x="442.296" y="154.572"/>
      <point x="442.296" y="240.218" type="curve" smooth="yes"/>
      <point x="442.296" y="325.863"/>
      <point x="372.622" y="395.537"/>
      <point x="286.977" y="395.537" type="curve" smooth="yes"/>
      <point x="201.331" y="395.537"/>
      <point x="131.657" y="325.863"/>
      <point x="131.657" y="240.218" type="curve" smooth="yes"/>
      <point x="131.657" y="154.572"/>
      <point x="201.331" y="84.8984"/>
    </contour>
  </outline>
</glyph>
<glyph name="e" format="2">
  <advance width="573"/>
  <unicode hex="0065"/>
  <outline>
    <contour>
      <point x="526.963" y="209.9" type="line"/>
      <point x="480.162" y="209.909" type="line"/>
      <point x="480.162" y="209.949" type="line"/>
      <point x="134.612" y="209.949" type="line"/>
      <point x="148.643" y="138.629"/>
      <point x="211.593" y="84.6289"/>
      <point x="286.973" y="84.6289" type="curve" smooth="yes"/>
      <point x="322.482" y="84.6289"/>
      <point x="355.192" y="96.6484"/>
      <point x="381.332" y="116.799" type="curve" smooth="yes"/>
      <point x="418.882" y="145.739"/>
      <point x="465.651" y="160.1"/>
      <point x="513.062" y="160.1" type="curve"/>
      <point x="476.701" y="57.1592"/>
      <point x="372.371" y="-13.7012"/>
      <point x="253.812" y="2.19922" type="curve" smooth="yes"/>
      <point x="146.002" y="16.6592"/>
      <point x="60.1123" y="105.119"/>
      <point x="48.4424" y="213.249" type="curve" smooth="yes"/>
      <point x="32.7227" y="358.939"/>
      <point x="147.513" y="481.93"/>
      <point x="290.473" y="479.899" type="curve" smooth="yes"/>
      <point x="420.633" y="478.05"/>
      <point x="526.963" y="363.59"/>
      <point x="526.963" y="233.42" type="curve" smooth="yes"/>
    </contour>
    <contour>
      <point x="141.781" y="294.6" type="curve"/>
      <point x="432.181" y="294.6" type="line"/>
      <point x="409.99" y="353.31"/>
      <point x="353.37" y="395.26"/>
      <point x="286.98" y="395.26" type="curve" smooth="yes"/>
      <point x="220.601" y="395.26"/>
      <point x="163.961" y="353.31"/>
    </contour>
  </outline>
</glyph>
<glyph name="f" format="2">
  <advance width="309"/>
  <unicode hex="0066"/>
  <outline>
    <contour>
      <point x="246.92" y="556.25" type="curve" smooth="yes"/>
      <point x="204.85" y="556.25"/>
      <point x="170.641" y="522.708"/>
      <point x="169.44" y="480.908" type="curve"/>
      <point x="286.96" y="480.908" type="line"/>
      <point x="286.96" y="434.148"/>
      <point x="249.06" y="396.259"/>
      <point x="202.3" y="396.259" type="curve" smooth="yes"/>
      <point x="169.33" y="396.259" type="line"/>
      <point x="169.33" y="84.999" type="line" smooth="yes"/>
      <point x="169.33" y="38.2393"/>
      <point x="131.43" y="0.338867"/>
      <point x="84.6699" y="0.338867" type="curve"/>
      <point x="84.6699" y="396.259" type="line"/>
      <point x="47" y="396.259" type="line"/>
      <point x="47" y="425.619"/>
      <point x="61.9502" y="451.479"/>
      <point x="84.6699" y="466.659" type="curve"/>
      <point x="84.6699" y="478.659" type="line" smooth="yes"/>
      <point x="84.6699" y="568.27"/>
      <point x="157.32" y="640.899"/>
      <point x="246.92" y="640.899" type="curve" smooth="yes"/>
      <point x="286.99" y="640.899" type="line"/>
      <point x="286.99" y="596.319" type="line" smooth="yes"/>
      <point x="286.99" y="574.18"/>
      <point x="269.04" y="556.25"/>
    </contour>
  </outline>
</glyph>
<glyph name="g" format="2">
  <advance width="582"/>
  <unicode hex="0067"/>
  <outline>
    <contour>
      <point x="290.94" y="160.23" type="curve" smooth="yes"/>
      <point x="222.321" y="160.23" type="line" smooth="yes"/>
      <point x="177.852" y="160.23"/>
      <point x="141.672" y="124.051"/>
      <point x="141.672" y="79.5811" type="curve" smooth="yes"/>
      <point x="141.672" y="35.1113"/>
      <point x="177.852" y="-1.06836"/>
      <point x="222.321" y="-1.06836" type="curve" smooth="yes"/>
      <point x="272.932" y="-1.06836" type="line" smooth="yes"/>
      <point x="281.611" y="-0.587891"/>
      <point x="290.401" y="-0.307617"/>
      <point x="299.331" y="-0.307617" type="curve" smooth="yes"/>
      <point x="431.871" y="-0.307617"/>
      <point x="539.312" y="-54.0176"/>
      <point x="539.312" y="-120.298" type="curve" smooth="yes"/>
      <point x="539.312" y="-186.567"/>
      <point x="431.871" y="-240.287"/>
      <point x="299.331" y="-240.287" type="curve" smooth="yes"/>
      <point x="166.801" y="-240.287"/>
      <point x="59.3604" y="-186.567"/>
      <point x="59.3604" y="-120.298" type="curve" smooth="yes"/>
      <point x="59.3604" y="-91.5283"/>
      <point x="79.6504" y="-65.1387"/>
      <point x="113.41" y="-44.4688" type="curve"/>
      <point x="78.9102" y="-14.1484"/>
      <point x="57" y="30.1514"/>
      <point x="57" y="79.5811" type="curve" smooth="yes"/>
      <point x="57" y="133.521"/>
      <point x="83.0898" y="181.371"/>
      <point x="123.17" y="211.562" type="curve"/>
      <point x="83.6797" y="240.081"/>
      <point x="59.3594" y="278.062"/>
      <point x="59.3594" y="319.941" type="curve" smooth="yes"/>
      <point x="59.3594" y="408.291"/>
      <point x="166.8" y="479.931"/>
      <point x="299.33" y="479.931" type="curve"/>
      <point x="299.33" y="480.341" type="line"/>
      <point x="539.311" y="480.341" type="line"/>
      <point x="539.311" y="449.94"/>
      <point x="523.251" y="423.381"/>
      <point x="499.201" y="408.431" type="curve"/>
      <point x="524.501" y="383.081"/>
      <point x="539.311" y="352.671"/>
      <point x="539.311" y="319.94" type="curve" smooth="yes"/>
      <point x="539.311" y="231.57"/>
      <point x="431.87" y="159.95"/>
      <point x="299.33" y="159.95" type="curve" smooth="yes"/>
      <point x="296.5" y="159.95"/>
      <point x="293.75" y="160.16"/>
    </contour>
    <contour>
      <point x="299.312" y="-85.7295" type="line"/>
      <point x="276.501" y="-85.7295" type="line" smooth="yes"/>
      <point x="211.671" y="-89.3291"/>
      <point x="169.951" y="-107.489"/>
      <point x="151.771" y="-120.299" type="curve"/>
      <point x="172.012" y="-134.559"/>
      <point x="221.191" y="-155.629"/>
      <point x="299.312" y="-155.629" type="curve" smooth="yes"/>
      <point x="377.422" y="-155.629"/>
      <point x="426.602" y="-134.559"/>
      <point x="446.842" y="-120.299" type="curve"/>
      <point x="426.602" y="-106.029"/>
      <point x="377.422" y="-84.9697"/>
      <point x="299.312" y="-84.9697" type="curve"/>
    </contour>
    <contour>
      <point x="144.011" y="319.94" type="curve" smooth="yes"/>
      <point x="144.011" y="290.971"/>
      <point x="201.891" y="247.811"/>
      <point x="289.961" y="244.891" type="curve" smooth="yes"/>
      <point x="299.321" y="244.891" type="line"/>
      <point x="299.321" y="244.61" type="line"/>
      <point x="299.331" y="244.61" type="line" smooth="yes"/>
      <point x="392.711" y="244.61"/>
      <point x="454.651" y="289.94"/>
      <point x="454.651" y="319.94" type="curve" smooth="yes"/>
      <point x="454.651" y="349.94"/>
      <point x="392.711" y="395.271"/>
      <point x="299.331" y="395.271" type="curve" smooth="yes"/>
      <point x="205.961" y="395.271"/>
      <point x="144.011" y="349.921"/>
    </contour>
  </outline>
</glyph>
<glyph name="h" format="2">
  <advance width="615"/>
  <unicode hex="0068"/>
  <outline>
    <contour>
      <point x="318.48" y="480.89" type="curve" smooth="yes"/>
      <point x="450.2" y="478.68"/>
      <point x="556.659" y="370.841"/>
      <point x="556.659" y="238.61" type="curve" smooth="yes"/>
      <point x="556.659" y="85.0107" type="line" smooth="yes"/>
      <point x="556.659" y="38.251"/>
      <point x="518.77" y="0.350586"/>
      <point x="472.01" y="0.350586" type="curve"/>
      <point x="472.01" y="233.99" type="line" smooth="yes"/>
      <point x="472.01" y="316.04"/>
      <point x="411.24" y="387.86"/>
      <point x="329.561" y="395.551" type="curve" smooth="yes"/>
      <point x="235.82" y="404.371"/>
      <point x="156.71" y="330.551"/>
      <point x="156.71" y="238.61" type="curve" smooth="yes"/>
      <point x="156.71" y="198.62" type="line"/>
      <point x="156.66" y="198.62" type="line"/>
      <point x="156.66" y="85.0098" type="line" smooth="yes"/>
      <point x="156.66" y="38.25"/>
      <point x="118.76" y="0.349609"/>
      <point x="72" y="0.349609" type="curve"/>
      <point x="72" y="556.529" type="line" smooth="yes"/>
      <point x="72" y="603.289"/>
      <point x="109.9" y="641.189"/>
      <point x="156.66" y="641.189" type="curve"/>
      <point x="156.66" y="419.52" type="line"/>
      <point x="200.061" y="458.25"/>
      <point x="256.62" y="481.92"/>
    </contour>
  </outline>
</glyph>
<glyph name="i" format="2">
  <advance width="226"/>
  <unicode hex="0069"/>
  <outline>
    <contour>
      <point x="111.99" y="499.59" type="curve" smooth="yes"/>
      <point x="84.3799" y="499.59"/>
      <point x="62" y="521.97"/>
      <point x="62" y="549.58" type="curve" smooth="yes"/>
      <point x="62" y="577.19"/>
      <point x="84.3799" y="599.57"/>
      <point x="111.99" y="599.57" type="curve" smooth="yes"/>
      <point x="139.601" y="599.57"/>
      <point x="161.98" y="577.19"/>
      <point x="161.98" y="549.58" type="curve" smooth="yes"/>
      <point x="161.98" y="521.97"/>
      <point x="139.601" y="499.59"/>
    </contour>
    <contour>
      <point x="70.4404" y="355.12" type="line" smooth="yes"/>
      <point x="70.4404" y="401.88"/>
      <point x="108.341" y="439.78"/>
      <point x="155.101" y="439.78" type="curve"/>
      <point x="155.101" y="44.71" type="line" smooth="yes"/>
      <point x="155.101" y="-2.0498"/>
      <point x="117.2" y="-39.9502"/>
      <point x="70.4404" y="-39.9502" type="curve"/>
    </contour>
  </outline>
</glyph>
<glyph name="j" format="2">
  <advance width="229"/>
  <unicode hex="006A"/>
  <outline>
    <contour>
      <point x="113.989" y="538.908" type="curve" smooth="yes"/>
      <point x="86.377" y="538.908"/>
      <point x="63.999" y="561.286"/>
      <point x="63.999" y="588.898" type="curve" smooth="yes"/>
      <point x="63.999" y="616.511"/>
      <point x="86.377" y="638.889"/>
      <point x="113.989" y="638.889" type="curve" smooth="yes"/>
      <point x="141.602" y="638.889"/>
      <point x="163.979" y="616.511"/>
      <point x="163.979" y="588.898" type="curve" smooth="yes"/>
      <point x="163.979" y="561.286"/>
      <point x="141.602" y="538.908"/>
    </contour>
    <contour>
      <point x="71.6602" y="394.256" type="line" smooth="yes"/>
      <point x="71.6602" y="441.016"/>
      <point x="109.558" y="478.912"/>
      <point x="156.317" y="478.912" type="curve"/>
      <point x="156.317" y="-38.0664" type="line" smooth="yes"/>
      <point x="156.317" y="-149.617"/>
      <point x="65.5498" y="-240.385"/>
      <point x="-46.001" y="-240.385" type="curve"/>
      <point x="-46.001" y="-198.916"/>
      <point x="-23.6367" y="-160.834"/>
      <point x="12.3291" y="-140.22" type="curve" smooth="yes"/>
      <point x="47.7441" y="-119.916"/>
      <point x="71.6602" y="-81.7207"/>
      <point x="71.6602" y="-38.0508" type="curve" smooth="yes"/>
    </contour>
  </outline>
</glyph>
<glyph name="k" format="2">
  <advance width="494"/>
  <unicode hex="006B"/>
  <outline>
    <contour>
      <point x="462.17" y="452.35" type="curve"/>
      <point x="185.101" y="209.9" type="line"/>
      <point x="456.73" y="40.1406" type="line"/>
      <point x="431.95" y="0.490234"/>
      <point x="379.73" y="-11.5596"/>
      <point x="340.08" y="13.21" type="curve" smooth="yes"/>
      <point x="156.66" y="127.86" type="line"/>
      <point x="156.66" y="88.9102" type="line" smooth="yes"/>
      <point x="156.66" y="42.1504"/>
      <point x="118.76" y="4.26074"/>
      <point x="72" y="4.26074" type="curve"/>
      <point x="72" y="559.53" type="line" smooth="yes"/>
      <point x="72" y="606.29"/>
      <point x="109.9" y="644.19"/>
      <point x="156.66" y="644.19" type="curve"/>
      <point x="156.66" y="297.511" type="line"/>
      <point x="342.71" y="460.311" type="line" smooth="yes"/>
      <point x="377.89" y="491.11"/>
      <point x="431.38" y="487.54"/>
    </contour>
  </outline>
</glyph>
<glyph name="l" format="2">
  <advance width="228"/>
  <unicode hex="006C"/>
  <outline>
    <contour>
      <point x="72" y="555.527" type="line" smooth="yes"/>
      <point x="72" y="602.287"/>
      <point x="109.913" y="640.186"/>
      <point x="156.658" y="640.186" type="curve"/>
      <point x="156.658" y="84.9131" type="line" smooth="yes"/>
      <point x="156.658" y="38.1533"/>
      <point x="118.76" y="0.254883"/>
      <point x="72" y="0.254883" type="curve"/>
    </contour>
  </outline>
</glyph>
<glyph name="m" format="2">
  <advance width="936"/>
  <unicode hex="006D"/>
  <outline>
    <contour>
      <point x="642.075" y="479.928" type="curve" smooth="yes"/>
      <point x="769.726" y="486.234"/>
      <point x="875.604" y="384.18"/>
      <point x="875.604" y="257.884" type="curve" smooth="yes"/>
      <point x="875.604" y="84.9697" type="line" smooth="yes"/>
      <point x="875.604" y="38.21"/>
      <point x="837.706" y="0.311523"/>
      <point x="790.946" y="0.311523" type="curve"/>
      <point x="790.946" y="253.03" type="line" smooth="yes"/>
      <point x="790.946" y="326.288"/>
      <point x="735.792" y="390.346"/>
      <point x="662.704" y="395.228" type="curve" smooth="yes"/>
      <point x="582.547" y="400.604"/>
      <point x="515.625" y="336.912"/>
      <point x="515.625" y="257.897" type="curve" smooth="yes"/>
      <point x="515.625" y="84.6309" type="line" smooth="yes"/>
      <point x="515.625" y="37.8711"/>
      <point x="477.727" y="-0.0273438"/>
      <point x="430.967" y="-0.0273438" type="curve"/>
      <point x="430.967" y="251.449" type="line" smooth="yes"/>
      <point x="430.967" y="253.622"/>
      <point x="431.221" y="255.738"/>
      <point x="431.277" y="257.897" type="curve"/>
      <point x="430.967" y="257.897" type="line"/>
      <point x="430.967" y="333.808"/>
      <point x="369.223" y="395.552"/>
      <point x="293.312" y="395.552" type="curve" smooth="yes"/>
      <point x="217.402" y="395.552"/>
      <point x="155.658" y="333.794"/>
      <point x="155.658" y="257.898" type="curve" smooth="yes"/>
      <point x="155.658" y="84.9141" type="line" smooth="yes"/>
      <point x="155.658" y="38.1543"/>
      <point x="117.76" y="0.255859"/>
      <point x="71" y="0.255859" type="curve"/>
      <point x="71" y="395.553" type="line" smooth="yes"/>
      <point x="71" y="442.312"/>
      <point x="108.898" y="480.211"/>
      <point x="155.658" y="480.211" type="curve"/>
      <point x="155.658" y="432.14" type="line"/>
      <point x="193.557" y="462.137"/>
      <point x="241.332" y="480.211"/>
      <point x="293.312" y="480.211" type="curve" smooth="yes"/>
      <point x="367.98" y="480.211"/>
      <point x="434.014" y="443.088"/>
      <point x="474.354" y="386.451" type="curve"/>
      <point x="512.449" y="439.927"/>
      <point x="572.472" y="476.499"/>
    </contour>
  </outline>
</glyph>
<glyph name="n" format="2">
  <advance width="614"/>
  <unicode hex="006E"/>
  <outline>
    <contour>
      <point x="332.92" y="479.12" type="curve" smooth="yes"/>
      <point x="457.4" y="469.11"/>
      <point x="555.62" y="364.609"/>
      <point x="555.62" y="237.609" type="curve" smooth="yes"/>
      <point x="555.62" y="84.1094" type="line" smooth="yes"/>
      <point x="555.62" y="37.7998"/>
      <point x="518.07" y="0.259766"/>
      <point x="471.761" y="0.259766" type="curve" smooth="yes"/>
      <point x="471.32" y="0.259766"/>
      <point x="470.96" y="0.609375"/>
      <point x="470.96" y="1.05957" type="curve" smooth="yes"/>
      <point x="470.96" y="232.27" type="line" smooth="yes"/>
      <point x="470.96" y="314.729"/>
      <point x="409.93" y="387.239"/>
      <point x="327.8" y="394.609" type="curve" smooth="yes"/>
      <point x="234.38" y="402.989"/>
      <point x="155.66" y="329.319"/>
      <point x="155.66" y="237.609" type="curve" smooth="yes"/>
      <point x="155.66" y="84.9092" type="line" smooth="yes"/>
      <point x="155.66" y="38.1494"/>
      <point x="117.76" y="0.259766"/>
      <point x="71" y="0.259766" type="curve"/>
      <point x="71" y="395.26" type="line" smooth="yes"/>
      <point x="71" y="442.01"/>
      <point x="108.9" y="479.91"/>
      <point x="155.66" y="479.91" type="curve"/>
      <point x="155.66" y="419.57" type="line"/>
      <point x="202.45" y="461.03"/>
      <point x="264.7" y="484.61"/>
    </contour>
  </outline>
</glyph>
<glyph name="o" format="2">
  <advance width="574"/>
  <unicode hex="006F"/>
  <unicode hex="00F6"/>
  <outline>
    <contour>
      <point x="286.978" y="480.251" type="curve" smooth="yes"/>
      <point x="419.51" y="480.251"/>
      <point x="526.955" y="372.806"/>
      <point x="526.955" y="240.273" type="curve" smooth="yes"/>
      <point x="526.955" y="107.741"/>
      <point x="419.51" y="0.295898"/>
      <point x="286.978" y="0.295898" type="curve" smooth="yes"/>
      <point x="154.445" y="0.295898"/>
      <point x="47" y="107.741"/>
      <point x="47" y="240.273" type="curve" smooth="yes"/>
      <point x="47" y="372.806"/>
      <point x="154.445" y="480.251"/>
    </contour>
    <contour>
      <point x="286.978" y="84.9541" type="curve" smooth="yes"/>
      <point x="372.623" y="84.9541"/>
      <point x="442.297" y="154.628"/>
      <point x="442.297" y="240.273" type="curve" smooth="yes"/>
      <point x="442.297" y="325.919"/>
      <point x="372.623" y="395.593"/>
      <point x="286.978" y="395.593" type="curve" smooth="yes"/>
      <point x="201.332" y="395.593"/>
      <point x="131.658" y="325.919"/>
      <point x="131.658" y="240.273" type="curve" smooth="yes"/>
      <point x="131.658" y="154.628"/>
      <point x="201.332" y="84.9541"/>
    </contour>
  </outline>
</glyph>
<glyph name="p" format="2">
  <advance width="601"/>
  <unicode hex="0070"/>
  <outline>
    <contour>
      <point x="313.306" y="480.195" type="curve" smooth="yes"/>
      <point x="445.838" y="480.195"/>
      <point x="553.283" y="372.764"/>
      <point x="553.283" y="240.231" type="curve" smooth="yes"/>
      <point x="553.283" y="107.699"/>
      <point x="445.838" y="0.253906"/>
      <point x="313.306" y="0.253906" type="curve" smooth="yes"/>
      <point x="252.888" y="0.253906"/>
      <point x="197.846" y="22.7451"/>
      <point x="155.658" y="59.5996" type="curve"/>
      <point x="155.658" y="-155.079" type="line" smooth="yes"/>
      <point x="155.658" y="-201.839"/>
      <point x="117.76" y="-239.737"/>
      <point x="71" y="-239.737" type="curve"/>
      <point x="71" y="395.537" type="line" smooth="yes"/>
      <point x="71" y="442.297"/>
      <point x="108.898" y="480.195"/>
      <point x="155.658" y="480.195" type="curve"/>
      <point x="155.658" y="420.85" type="line"/>
      <point x="197.846" y="457.704"/>
      <point x="252.888" y="480.195"/>
    </contour>
    <contour>
      <point x="313.306" y="84.8984" type="curve" smooth="yes"/>
      <point x="398.951" y="84.8984"/>
      <point x="468.625" y="154.572"/>
      <point x="468.625" y="240.218" type="curve" smooth="yes"/>
      <point x="468.625" y="325.863"/>
      <point x="398.951" y="395.537"/>
      <point x="313.306" y="395.537" type="curve" smooth="yes"/>
      <point x="227.66" y="395.537"/>
      <point x="157.986" y="325.863"/>
      <point x="157.986" y="240.218" type="curve" smooth="yes"/>
      <point x="157.986" y="154.572"/>
      <point x="227.66" y="84.8984"/>
    </contour>
  </outline>
</glyph>
<glyph name="q" format="2">
  <advance width="601"/>
  <unicode hex="0071"/>
  <outline>
    <contour>
      <point x="444.625" y="480.21" type="line"/>
      <point x="491.385" y="480.21"/>
      <point x="529.283" y="442.312"/>
      <point x="529.283" y="395.552" type="curve" smooth="yes"/>
      <point x="529.283" y="-239.736" type="line"/>
      <point x="482.538" y="-239.736"/>
      <point x="444.625" y="-201.823"/>
      <point x="444.625" y="-155.078" type="curve" smooth="yes"/>
      <point x="444.625" y="59.6006" type="line"/>
      <point x="402.438" y="22.7461"/>
      <point x="347.396" y="0.254883"/>
      <point x="286.978" y="0.254883" type="curve" smooth="yes"/>
      <point x="154.445" y="0.254883"/>
      <point x="47" y="107.7"/>
      <point x="47" y="240.232" type="curve" smooth="yes"/>
      <point x="47" y="372.765"/>
      <point x="154.445" y="480.21"/>
      <point x="286.978" y="480.21" type="curve" smooth="yes"/>
      <point x="347.396" y="480.21"/>
      <point x="402.438" y="457.719"/>
      <point x="444.625" y="420.864" type="curve"/>
    </contour>
    <contour>
      <point x="286.978" y="84.9131" type="curve" smooth="yes"/>
      <point x="372.623" y="84.9131"/>
      <point x="442.297" y="154.587"/>
      <point x="442.297" y="240.232" type="curve" smooth="yes"/>
      <point x="442.297" y="325.878"/>
      <point x="372.623" y="395.552"/>
      <point x="286.978" y="395.552" type="curve" smooth="yes"/>
      <point x="201.332" y="395.552"/>
      <point x="131.658" y="325.878"/>
      <point x="131.658" y="240.232" type="curve" smooth="yes"/>
      <point x="131.658" y="154.587"/>
      <point x="201.332" y="84.9131"/>
    </contour>
  </outline>
</glyph>
<glyph name="r" format="2">
  <advance width="397"/>
  <unicode hex="0072"/>
  <outline>
    <contour>
      <point x="273.305" y="479.913" type="curve" smooth="yes"/>
      <point x="308.875" y="479.913"/>
      <point x="343.867" y="470.53"/>
      <point x="374.499" y="452.809" type="curve"/>
      <point x="370.238" y="445.457" type="line" smooth="yes"/>
      <point x="350.993" y="412.172"/>
      <point x="314.59" y="394.295"/>
      <point x="276.141" y="395.212" type="curve" smooth="yes"/>
      <point x="256.26" y="395.691"/>
      <point x="235.941" y="391.162"/>
      <point x="217.176" y="381.088" type="curve" smooth="yes"/>
      <point x="178.205" y="360.178"/>
      <point x="155.658" y="317.722"/>
      <point x="155.658" y="273.488" type="curve" smooth="yes"/>
      <point x="155.658" y="84.6162" type="line" smooth="yes"/>
      <point x="155.658" y="37.8564"/>
      <point x="117.745" y="-0.0419922"/>
      <point x="71" y="-0.0419922" type="curve"/>
      <point x="71" y="395.255" type="line" smooth="yes"/>
      <point x="71" y="442.015"/>
      <point x="108.898" y="479.913"/>
      <point x="155.658" y="479.913" type="curve"/>
      <point x="155.658" y="441.859" type="line"/>
      <point x="188.844" y="465.705"/>
      <point x="229.409" y="479.913"/>
    </contour>
  </outline>
</glyph>
<glyph name="s" format="2">
  <advance width="541"/>
  <unicode hex="0073"/>
  <outline>
    <contour>
      <point x="275.57" y="283.63" type="curve" smooth="yes"/>
      <point x="366.53" y="271.02"/>
      <point x="479.752" y="255.316"/>
      <point x="487.342" y="145.326" type="curve" smooth="yes"/>
      <point x="487.441" y="142.477" type="line" smooth="yes"/>
      <point x="487.491" y="99.417"/>
      <point x="463.312" y="61.6865"/>
      <point x="419.302" y="36.2461" type="curve" smooth="yes"/>
      <point x="378.071" y="12.416"/>
      <point x="321.451" y="0.435547"/>
      <point x="265.361" y="0.435547" type="curve" smooth="yes"/>
      <point x="211.131" y="0.435547"/>
      <point x="157.4" y="11.626"/>
      <point x="118.5" y="34.0957" type="curve" smooth="yes"/>
      <point x="76.2002" y="58.5361"/>
      <point x="52.9404" y="95.2363"/>
      <point x="53" y="137.437" type="curve"/>
      <point x="57.0195" y="137.437" type="line" smooth="yes"/>
      <point x="93.5098" y="137.387"/>
      <point x="128.71" y="126.307"/>
      <point x="160.15" y="107.797" type="curve" smooth="yes"/>
      <point x="160.37" y="107.667"/>
      <point x="160.61" y="107.537"/>
      <point x="160.841" y="107.397" type="curve" smooth="yes"/>
      <point x="213.44" y="77.0078"/>
      <point x="322.48" y="78.0781"/>
      <point x="376.9" y="109.528" type="curve" smooth="yes"/>
      <point x="400.41" y="123.118"/>
      <point x="402.55" y="135.438"/>
      <point x="402.74" y="140.898" type="curve" smooth="yes"/>
      <point x="399.311" y="175.438"/>
      <point x="358.62" y="186.639"/>
      <point x="263.94" y="199.778" type="curve" smooth="yes"/>
      <point x="173.54" y="212.318"/>
      <point x="61.0098" y="227.929"/>
      <point x="53.1094" y="336.729" type="curve" smooth="yes"/>
      <point x="52.999" y="339.719" type="line" smooth="yes"/>
      <point x="52.9189" y="382.129"/>
      <point x="76.7588" y="419.299"/>
      <point x="120.108" y="444.358" type="curve" smooth="yes"/>
      <point x="201.349" y="491.328"/>
      <point x="342.539" y="492.078"/>
      <point x="422.289" y="445.948" type="curve" smooth="yes"/>
      <point x="464.369" y="421.608"/>
      <point x="487.509" y="385.168"/>
      <point x="487.419" y="343.358" type="curve"/>
      <point x="481.159" y="343.358" type="line" smooth="yes"/>
      <point x="445.569" y="343.429"/>
      <point x="411.239" y="354.209"/>
      <point x="380.579" y="372.259" type="curve" smooth="yes"/>
      <point x="380.359" y="372.379"/>
      <point x="380.129" y="372.509"/>
      <point x="379.909" y="372.648" type="curve" smooth="yes"/>
      <point x="326.77" y="403.379"/>
      <point x="217.039" y="402.579"/>
      <point x="162.479" y="371.06" type="curve" smooth="yes"/>
      <point x="140.1" y="358.13"/>
      <point x="137.88" y="346.59"/>
      <point x="137.67" y="341.37" type="curve" smooth="yes"/>
      <point x="141.229" y="307.68"/>
      <point x="181.67" y="296.66"/>
    </contour>
  </outline>
</glyph>
<glyph name="t" format="2">
  <advance width="320"/>
  <unicode hex="0074"/>
  <outline>
    <contour>
      <point x="242.835" y="85.0967" type="curve" smooth="yes"/>
      <point x="265.016" y="85.0967"/>
      <point x="282.99" y="67.1211"/>
      <point x="282.99" y="44.9404" type="curve" smooth="yes"/>
      <point x="282.99" y="0.438477" type="line"/>
      <point x="242.834" y="0.438477" type="line" smooth="yes"/>
      <point x="153.28" y="0.438477"/>
      <point x="80.6719" y="73.0332"/>
      <point x="80.6719" y="162.602" type="curve" smooth="yes"/>
      <point x="80.6719" y="395.256" type="line"/>
      <point x="42.999" y="395.256" type="line"/>
      <point x="42.999" y="424.618"/>
      <point x="57.9697" y="450.481"/>
      <point x="80.6719" y="465.663" type="curve"/>
      <point x="80.6719" y="555.245" type="line" smooth="yes"/>
      <point x="80.6719" y="601.99"/>
      <point x="118.57" y="639.903"/>
      <point x="165.33" y="639.903" type="curve"/>
      <point x="165.33" y="479.928" type="line"/>
      <point x="282.977" y="479.928" type="line"/>
      <point x="282.977" y="433.168"/>
      <point x="245.078" y="395.27"/>
      <point x="198.318" y="395.27" type="curve" smooth="yes"/>
      <point x="165.33" y="395.27" type="line"/>
      <point x="165.33" y="162.601" type="line" smooth="yes"/>
      <point x="165.33" y="119.792"/>
      <point x="200.04" y="85.0967"/>
    </contour>
  </outline>
</glyph>
<glyph name="u" format="2">
  <advance width="585"/>
  <unicode hex="0075"/>
  <outline>
    <contour>
      <point x="515.194" y="399.926" type="curve"/>
      <point x="515.406" y="399.925" type="line"/>
      <point x="515.406" y="84.6299" type="line" smooth="yes"/>
      <point x="515.406" y="37.8701"/>
      <point x="477.508" y="-0.0283203"/>
      <point x="430.748" y="-0.0283203" type="curve"/>
      <point x="430.748" y="51.1055" type="line"/>
      <point x="388.743" y="16.9883"/>
      <point x="334.534" y="-2.65234"/>
      <point x="275.711" y="0.253906" type="curve" smooth="yes"/>
      <point x="153.126" y="6.29297"/>
      <point x="59" y="112.06"/>
      <point x="59" y="234.785" type="curve" smooth="yes"/>
      <point x="59" y="395.903" type="line" smooth="yes"/>
      <point x="59" y="442.663"/>
      <point x="96.9131" y="480.562"/>
      <point x="143.658" y="480.562" type="curve"/>
      <point x="143.658" y="232.372" type="line" smooth="yes"/>
      <point x="143.658" y="157.676"/>
      <point x="198.982" y="92.292"/>
      <point x="273.354" y="85.2793" type="curve" smooth="yes"/>
      <point x="358.689" y="77.2363"/>
      <point x="430.733" y="144.455"/>
      <point x="430.733" y="228.168" type="curve" smooth="yes"/>
      <point x="430.733" y="480.576" type="line"/>
      <point x="476.139" y="480.576"/>
      <point x="513.078" y="444.809"/>
    </contour>
  </outline>
</glyph>
<glyph name="v" format="2">
  <advance width="504"/>
  <unicode hex="0076"/>
  <outline>
    <contour>
      <point x="352.79" y="394.51" type="line" smooth="yes"/>
      <point x="374.15" y="445.77"/>
      <point x="424.218" y="479.172"/>
      <point x="479.748" y="479.172" type="curve"/>
      <point x="290.938" y="26.0215" type="line" smooth="yes"/>
      <point x="282.568" y="5.91113"/>
      <point x="259.838" y="-5.24902"/>
      <point x="237.588" y="2.39062" type="curve" smooth="yes"/>
      <point x="225.988" y="6.36035"/>
      <point x="217.059" y="15.79"/>
      <point x="212.349" y="27.1104" type="curve" smooth="yes"/>
      <point x="23.999" y="479.17" type="line"/>
      <point x="79.5488" y="479.17"/>
      <point x="129.619" y="445.77"/>
      <point x="150.979" y="394.51" type="curve" smooth="yes"/>
      <point x="251.88" y="152.359" type="line"/>
    </contour>
  </outline>
</glyph>
<glyph name="w" format="2">
  <advance width="825"/>
  <unicode hex="0077"/>
  <outline>
    <contour>
      <point x="673.313" y="395.278" type="line" smooth="yes"/>
      <point x="694.676" y="446.553"/>
      <point x="744.738" y="479.951"/>
      <point x="800.274" y="479.951" type="curve"/>
      <point x="611.19" y="26.0996" type="line" smooth="yes"/>
      <point x="604.672" y="10.4092"/>
      <point x="589.377" y="0.151367"/>
      <point x="572.389" y="0.0527344" type="curve" smooth="yes"/>
      <point x="572.12" y="0.0527344" type="line" smooth="yes"/>
      <point x="555.217" y="0.0527344"/>
      <point x="539.936" y="10.0986"/>
      <point x="533.248" y="25.6191" type="curve" smooth="yes"/>
      <point x="412.145" y="306.5" type="line"/>
      <point x="291.027" y="25.6191" type="line" smooth="yes"/>
      <point x="284.34" y="10.0986"/>
      <point x="269.059" y="0.0527344"/>
      <point x="252.155" y="0.0527344" type="curve" smooth="yes"/>
      <point x="251.887" y="0.0527344" type="line" smooth="yes"/>
      <point x="234.969" y="0.0527344"/>
      <point x="219.688" y="10.2256"/>
      <point x="213.183" y="25.8594" type="curve" smooth="yes"/>
      <point x="24" y="479.951" type="line"/>
      <point x="79.5361" y="479.951"/>
      <point x="129.611" y="446.554"/>
      <point x="150.974" y="395.293" type="curve" smooth="yes"/>
      <point x="252.817" y="150.829" type="line"/>
      <point x="373.271" y="430.158" type="line" smooth="yes"/>
      <point x="381.808" y="449.968"/>
      <point x="404.341" y="460.86"/>
      <point x="426.38" y="453.326" type="curve" smooth="yes"/>
      <point x="437.837" y="449.403"/>
      <point x="446.712" y="440.147"/>
      <point x="451.495" y="429.043" type="curve" smooth="yes"/>
      <point x="571.456" y="150.828" type="line"/>
    </contour>
  </outline>
</glyph>
<glyph name="x" format="2">
  <advance width="652"/>
  <unicode hex="0078"/>
  <outline>
    <contour>
      <point x="625.604" y="478.886" type="curve"/>
      <point x="385.655" y="238.938" type="line"/>
      <point x="625.026" y="-0.433594" type="line"/>
      <point x="548.383" y="-0.433594"/>
      <point x="474.871" y="30.0146"/>
      <point x="420.662" y="84.21" type="curve" smooth="yes"/>
      <point x="325.803" y="179.069" type="line"/>
      <point x="230.943" y="84.21" type="line" smooth="yes"/>
      <point x="176.734" y="30.0146"/>
      <point x="103.223" y="-0.433594"/>
      <point x="26.5791" y="-0.433594" type="curve"/>
      <point x="265.95" y="238.938" type="line"/>
      <point x="26.001" y="478.887" type="line"/>
      <point x="102.645" y="478.887"/>
      <point x="176.156" y="448.424"/>
      <point x="230.365" y="394.229" type="curve" smooth="yes"/>
      <point x="325.803" y="298.791" type="line"/>
      <point x="421.24" y="394.229" type="line" smooth="yes"/>
      <point x="475.449" y="448.438"/>
      <point x="548.961" y="478.886"/>
    </contour>
  </outline>
</glyph>
<glyph name="y" format="2">
  <advance width="517"/>
  <unicode hex="0079"/>
  <outline>
    <contour>
      <point x="492.582" y="479.688" type="curve"/>
      <point x="237.213" y="-120.918" type="line" smooth="yes"/>
      <point x="207.131" y="-193.146"/>
      <point x="136.864" y="-240.004"/>
      <point x="58.3018" y="-240.004" type="curve"/>
      <point x="58.3018" y="-198.987"/>
      <point x="79.6641" y="-160.877"/>
      <point x="114.797" y="-139.685" type="curve" smooth="yes"/>
      <point x="134.282" y="-127.932"/>
      <point x="150.015" y="-110.111"/>
      <point x="159.186" y="-88.0859" type="curve" smooth="yes"/>
      <point x="212.958" y="38.3652" type="line"/>
      <point x="24.001" y="479.688" type="line"/>
      <point x="79.875" y="479.688"/>
      <point x="130.359" y="446.389"/>
      <point x="152.342" y="395.029" type="curve" smooth="yes"/>
      <point x="258.291" y="147.588" type="line"/>
      <point x="364.24" y="395.029" type="line" smooth="yes"/>
      <point x="386.237" y="446.389"/>
      <point x="436.722" y="479.688"/>
    </contour>
  </outline>
</glyph>
<glyph name="z" format="2">
  <advance width="576"/>
  <unicode hex="007A"/>
  <outline>
    <contour>
      <point x="523.479" y="405.68" type="curve" smooth="yes"/>
      <point x="186.469" y="85.1475" type="line"/>
      <point x="531.039" y="85.8271" type="line"/>
      <point x="531.139" y="39.0674"/>
      <point x="493.309" y="1.09766"/>
      <point x="446.549" y="0.998047" type="curve" smooth="yes"/>
      <point x="80.3887" y="0.288086" type="line"/>
      <point x="80.3086" y="0.288086" type="line" smooth="yes"/>
      <point x="60.2891" y="0.288086"/>
      <point x="42.5889" y="14.3877"/>
      <point x="38.6787" y="34.8682" type="curve" smooth="yes"/>
      <point x="35.8887" y="49.5283"/>
      <point x="41.9082" y="64.5088"/>
      <point x="52.7178" y="74.7988" type="curve" smooth="yes"/>
      <point x="388.378" y="394.029" type="line"/>
      <point x="51.168" y="394.029" type="line"/>
      <point x="51.168" y="440.789"/>
      <point x="89.0684" y="478.689"/>
      <point x="135.828" y="478.689" type="curve" smooth="yes"/>
      <point x="492.108" y="478.689" type="line" smooth="yes"/>
      <point x="507.028" y="478.689"/>
      <point x="521.729" y="471.97"/>
      <point x="529.809" y="459.43" type="curve" smooth="yes"/>
      <point x="541.089" y="441.899"/>
      <point x="537.999" y="419.479"/>
    </contour>
  </outline>
</glyph>
<glyph name="braceleft" format="2">
  <advance width="345"/>
  <unicode hex="007B"/>
  <outline>
    <contour>
      <point x="213.95" y="545.85" type="curve" smooth="yes"/>
      <point x="213.953" y="401.39" type="line" smooth="yes"/>
      <point x="213.953" y="372"/>
      <point x="201.894" y="344.06"/>
      <point x="181.063" y="322.069" type="curve"/>
      <point x="201.894" y="300.06"/>
      <point x="213.953" y="272.13"/>
      <point x="213.953" y="242.74" type="curve" smooth="yes"/>
      <point x="213.953" y="98.2705" type="line" smooth="yes"/>
      <point x="213.953" y="94.3203"/>
      <point x="223.633" y="84.6602"/>
      <point x="241.562" y="84.6602" type="curve" smooth="yes"/>
      <point x="259.912" y="84.6602"/>
      <point x="274.762" y="69.7998"/>
      <point x="274.762" y="51.46" type="curve" smooth="yes"/>
      <point x="274.762" y="0" type="line"/>
      <point x="241.562" y="0" type="line" smooth="yes"/>
      <point x="179.651" y="0"/>
      <point x="129.291" y="44.0801"/>
      <point x="129.291" y="98.2705" type="curve" smooth="yes"/>
      <point x="129.291" y="242.74" type="line" smooth="yes"/>
      <point x="129.291" y="256.51"/>
      <point x="117.201" y="270.26"/>
      <point x="98.4912" y="277.75" type="curve" smooth="yes"/>
      <point x="79.9609" y="285.16"/>
      <point x="68.001" y="302.55"/>
      <point x="68.001" y="322.069" type="curve" smooth="yes"/>
      <point x="68.001" y="341.579"/>
      <point x="79.9609" y="358.959"/>
      <point x="98.4912" y="366.369" type="curve" smooth="yes"/>
      <point x="117.211" y="373.85"/>
      <point x="129.311" y="387.59"/>
      <point x="129.311" y="401.38" type="curve" smooth="yes"/>
      <point x="129.311" y="545.85" type="line" smooth="yes"/>
      <point x="129.311" y="597.59"/>
      <point x="175.23" y="640"/>
      <point x="233.25" y="643.75" type="curve"/>
      <point x="233.25" y="644.12" type="line"/>
      <point x="274.76" y="644.12" type="line"/>
      <point x="274.76" y="600.97" type="line" smooth="yes"/>
      <point x="274.76" y="580.899"/>
      <point x="260.51" y="564.149"/>
      <point x="241.56" y="560.3" type="curve"/>
      <point x="241.56" y="559.46" type="line"/>
      <point x="223.63" y="559.46"/>
      <point x="213.95" y="549.8"/>
    </contour>
  </outline>
</glyph>
<glyph name="verticalbar" format="2">
  <advance width="243"/>
  <unicode hex="007C"/>
  <outline>
    <contour>
      <point x="79" y="639.93" type="line"/>
      <point x="125.76" y="639.93"/>
      <point x="163.66" y="602.029"/>
      <point x="163.66" y="555.27" type="curve" smooth="yes"/>
      <point x="163.66" y="0" type="line"/>
      <point x="116.9" y="0"/>
      <point x="79" y="37.9004"/>
      <point x="79" y="84.6602" type="curve" smooth="yes"/>
    </contour>
  </outline>
</glyph>
<glyph name="braceright" format="2">
  <advance width="345"/>
  <unicode hex="007D"/>
  <outline>
    <contour>
      <point x="130.81" y="98.2695" type="curve" smooth="yes"/>
      <point x="130.808" y="242.728" type="line" smooth="yes"/>
      <point x="130.808" y="272.117"/>
      <point x="142.878" y="300.058"/>
      <point x="163.698" y="322.048" type="curve"/>
      <point x="142.878" y="344.058"/>
      <point x="130.808" y="371.987"/>
      <point x="130.808" y="401.377" type="curve" smooth="yes"/>
      <point x="130.808" y="545.847" type="line" smooth="yes"/>
      <point x="130.808" y="549.797"/>
      <point x="121.128" y="559.457"/>
      <point x="103.198" y="559.457" type="curve" smooth="yes"/>
      <point x="84.8584" y="559.457"/>
      <point x="69.998" y="574.317"/>
      <point x="69.998" y="592.657" type="curve" smooth="yes"/>
      <point x="69.998" y="644.117" type="line"/>
      <point x="103.198" y="644.117" type="line" smooth="yes"/>
      <point x="165.099" y="644.117"/>
      <point x="215.469" y="600.027"/>
      <point x="215.459" y="545.848" type="curve" smooth="yes"/>
      <point x="215.459" y="401.378" type="line" smooth="yes"/>
      <point x="215.459" y="387.608"/>
      <point x="227.549" y="373.858"/>
      <point x="246.259" y="366.368" type="curve" smooth="yes"/>
      <point x="264.778" y="358.958"/>
      <point x="276.748" y="341.568"/>
      <point x="276.748" y="322.049" type="curve" smooth="yes"/>
      <point x="276.748" y="302.539"/>
      <point x="264.778" y="285.139"/>
      <point x="246.269" y="277.749" type="curve" smooth="yes"/>
      <point x="227.549" y="270.269"/>
      <point x="215.459" y="256.528"/>
      <point x="215.459" y="242.738" type="curve" smooth="yes"/>
      <point x="215.459" y="98.2686" type="line" smooth="yes"/>
      <point x="215.459" y="46.5283"/>
      <point x="169.529" y="4.11816"/>
      <point x="111.51" y="0.368164" type="curve"/>
      <point x="111.51" y="-0.00195312" type="line"/>
      <point x="70" y="-0.00195312" type="line"/>
      <point x="70" y="43.1484" type="line" smooth="yes"/>
      <point x="70" y="63.2285"/>
      <point x="84.25" y="79.9688"/>
      <point x="103.2" y="83.8291" type="curve"/>
      <point x="103.2" y="84.6592" type="line"/>
      <point x="121.13" y="84.6592"/>
      <point x="130.81" y="94.3193"/>
    </contour>
  </outline>
</glyph>
<glyph name="asciitilde" format="2">
  <advance width="639"/>
  <unicode hex="007E"/>
  <outline>
    <contour>
      <point x="587.8" y="262.77" type="curve" smooth="yes"/>
      <point x="588.47" y="262.1" type="line"/>
      <point x="542.569" y="216.1"/>
      <point x="497.39" y="200"/>
      <point x="454.75" y="200" type="curve" smooth="yes"/>
      <point x="396.32" y="200"/>
      <point x="342.66" y="230.21"/>
      <point x="298.46" y="255.11" type="curve" smooth="yes"/>
      <point x="240.89" y="287.54"/>
      <point x="201.199" y="307.71"/>
      <point x="161.81" y="296.1" type="curve" smooth="yes"/>
      <point x="122.34" y="284.47"/>
      <point x="79.7998" y="292.16"/>
      <point x="50.6797" y="321.22" type="curve" smooth="yes"/>
      <point x="50" y="321.89" type="line"/>
      <point x="158.79" y="430.949"/>
      <point x="263.54" y="371.949"/>
      <point x="340" y="328.89" type="curve" smooth="yes"/>
      <point x="397.58" y="296.47"/>
      <point x="437.271" y="276.279"/>
      <point x="476.66" y="287.89" type="curve" smooth="yes"/>
      <point x="516.13" y="299.529"/>
      <point x="558.67" y="291.829"/>
    </contour>
  </outline>
</glyph>
<glyph name="exclamdown" format="2">
  <advance width="252"/>
  <unicode hex="00A1"/>
  <outline>
    <contour>
      <point x="83.6602" y="352.71" type="line" smooth="yes"/>
      <point x="83.6602" y="399.47"/>
      <point x="121.561" y="437.37"/>
      <point x="168.32" y="437.37" type="curve"/>
      <point x="168.32" y="44.6602" type="line" smooth="yes"/>
      <point x="168.32" y="-2.09961"/>
      <point x="130.42" y="-40"/>
      <point x="83.6602" y="-40" type="curve"/>
    </contour>
    <contour>
      <point x="125.99" y="500.78" type="curve" smooth="yes"/>
      <point x="98.3799" y="500.78"/>
      <point x="76" y="523.16"/>
      <point x="76" y="550.771" type="curve" smooth="yes"/>
      <point x="76" y="578.381"/>
      <point x="98.3799" y="600.761"/>
      <point x="125.99" y="600.761" type="curve" smooth="yes"/>
      <point x="153.601" y="600.761"/>
      <point x="175.98" y="578.381"/>
      <point x="175.98" y="550.771" type="curve" smooth="yes"/>
      <point x="175.98" y="523.16"/>
      <point x="153.601" y="500.78"/>
    </contour>
  </outline>
</glyph>
<glyph name="cent" format="2">
  <advance width="484"/>
  <unicode hex="00A2"/>
  <outline>
    <contour>
      <point x="310.15" y="154.76" type="curve" smooth="yes"/>
      <point x="352.74" y="158.229"/>
      <point x="394.161" y="140.14"/>
      <point x="416.871" y="103.949" type="curve" smooth="yes"/>
      <point x="417.021" y="103.719" type="line"/>
      <point x="381.502" y="81.4287"/>
      <point x="340.771" y="69.6484"/>
      <point x="299.212" y="69.6484" type="curve" smooth="yes"/>
      <point x="276.722" y="69.6484"/>
      <point x="255.042" y="73.2188"/>
      <point x="234.482" y="79.5684" type="curve"/>
      <point x="229.982" y="62.7783" type="line" smooth="yes"/>
      <point x="217.872" y="17.6084"/>
      <point x="171.452" y="-9.20117"/>
      <point x="126.292" y="2.90918" type="curve"/>
      <point x="157.932" y="121.049" type="line"/>
      <point x="103.922" y="165.419"/>
      <point x="69.002" y="234.409"/>
      <point x="69.002" y="311.949" type="curve" smooth="yes"/>
      <point x="69.002" y="436.439"/>
      <point x="158.682" y="539.199"/>
      <point x="273.592" y="552.68" type="curve"/>
      <point x="275.852" y="561.13" type="line" smooth="yes"/>
      <point x="287.951" y="606.3"/>
      <point x="334.371" y="633.09"/>
      <point x="379.541" y="621" type="curve"/>
      <point x="359.421" y="545.84" type="line"/>
      <point x="379.581" y="540.109"/>
      <point x="398.971" y="531.51"/>
      <point x="417.021" y="520.2" type="curve"/>
      <point x="416.87" y="519.97" type="line" smooth="yes"/>
      <point x="399.39" y="492.12"/>
      <point x="370.81" y="475.13"/>
      <point x="339.17" y="470.29" type="curve"/>
      <point x="256.38" y="161.3" type="line"/>
      <point x="269.939" y="156.78"/>
      <point x="284.31" y="154.32"/>
      <point x="299.21" y="154.32" type="curve" smooth="yes"/>
      <point x="302.87" y="154.32"/>
      <point x="306.521" y="154.46"/>
    </contour>
    <contour>
      <point x="153.661" y="311.95" type="curve" smooth="yes"/>
      <point x="153.661" y="276.12"/>
      <point x="164.892" y="243.141"/>
      <point x="183.562" y="216.631" type="curve"/>
      <point x="248.661" y="459.601" type="line"/>
      <point x="193.281" y="437.28"/>
      <point x="153.661" y="379.61"/>
    </contour>
  </outline>
</glyph>
<glyph name="sterling" format="2">
  <advance width="634"/>
  <unicode hex="00A3"/>
  <outline>
    <contour>
      <point x="369.207" y="552.32" type="curve" smooth="yes"/>
      <point x="316.154" y="564.808"/>
      <point x="242.886" y="554.251"/>
      <point x="208.854" y="484.084" type="curve"/>
      <point x="193.615" y="425.077"/>
      <point x="207.541" y="394.699"/>
      <point x="225.065" y="356.462" type="curve" smooth="yes"/>
      <point x="230.935" y="343.65"/>
      <point x="236.254" y="331.079"/>
      <point x="240.685" y="318.381" type="curve"/>
      <point x="382.952" y="318.381" type="line"/>
      <point x="382.952" y="271.621"/>
      <point x="345.054" y="233.723"/>
      <point x="298.294" y="233.723" type="curve" smooth="yes"/>
      <point x="252.057" y="233.723" type="line"/>
      <point x="249.348" y="205.531"/>
      <point x="240.05" y="173.954"/>
      <point x="221.086" y="136.38" type="curve"/>
      <point x="260.452" y="136.408"/>
      <point x="296.911" y="124.33"/>
      <point x="329.589" y="113.522" type="curve" smooth="yes"/>
      <point x="373.625" y="98.9473"/>
      <point x="407.39" y="87.7725"/>
      <point x="443.003" y="100.556" type="curve" smooth="yes"/>
      <point x="481.381" y="114.341"/>
      <point x="524.345" y="103.223"/>
      <point x="552.79" y="74.002" type="curve"/>
      <point x="458.114" y="-18.2051"/>
      <point x="372.102" y="10.2822"/>
      <point x="302.964" y="33.1543" type="curve" smooth="yes"/>
      <point x="238.948" y="54.3467"/>
      <point x="196.647" y="68.3574"/>
      <point x="138.798" y="12.0176" type="curve" smooth="yes"/>
      <point x="130.601" y="4.03125"/>
      <point x="119.948" y="0.00976562"/>
      <point x="109.268" y="0.00976562" type="curve" smooth="yes"/>
      <point x="99.7715" y="0.00976562"/>
      <point x="90.2617" y="3.18457"/>
      <point x="82.459" y="9.57617" type="curve" smooth="yes"/>
      <point x="65.0049" y="23.8838"/>
      <point x="63.4814" y="52.1875"/>
      <point x="77.21" y="70.0928" type="curve" smooth="yes"/>
      <point x="136.471" y="147.386"/>
      <point x="160.245" y="196.629"/>
      <point x="166.044" y="233.724" type="curve"/>
      <point x="102.197" y="233.724" type="line"/>
      <point x="102.197" y="268.292"/>
      <point x="122.952" y="297.965"/>
      <point x="152.639" y="311.115" type="curve"/>
      <point x="151.157" y="314.445"/>
      <point x="149.619" y="317.789"/>
      <point x="148.067" y="321.176" type="curve" smooth="yes"/>
      <point x="128.145" y="364.676"/>
      <point x="103.325" y="418.786"/>
      <point x="128.003" y="509.61" type="curve" smooth="yes"/>
      <point x="128.779" y="511.797"/>
      <point x="129.611" y="514.083"/>
      <point x="130.401" y="516.27" type="curve" smooth="yes"/>
      <point x="181.577" y="628.047"/>
      <point x="296.938" y="656.337"/>
      <point x="388.608" y="634.735" type="curve" smooth="yes"/>
      <point x="479.658" y="613.289"/>
      <point x="569.692" y="536.476"/>
      <point x="565.572" y="413.199" type="curve"/>
      <point x="565.29" y="413.199" type="line" smooth="yes"/>
      <point x="523.031" y="414.61"/>
      <point x="486.868" y="440.741"/>
      <point x="468.06" y="478.611" type="curve" smooth="yes"/>
      <point x="447.643" y="519.741"/>
      <point x="406.471" y="543.544"/>
    </contour>
  </outline>
</glyph>
<glyph name="currency" format="2">
  <advance width="512"/>
  <unicode hex="00A4"/>
  <outline>
    <contour>
      <point x="389.87" y="240.49" type="curve"/>
      <point x="450.361" y="180.009" type="line"/>
      <point x="441.451" y="171.108" type="line" smooth="yes"/>
      <point x="413.301" y="142.958"/>
      <point x="367.69" y="142.958"/>
      <point x="339.54" y="171.108" type="curve" smooth="yes"/>
      <point x="330.021" y="180.639" type="line"/>
      <point x="306.66" y="167.318"/>
      <point x="279.71" y="159.599"/>
      <point x="250.92" y="159.599" type="curve" smooth="yes"/>
      <point x="222.12" y="159.599"/>
      <point x="195.17" y="167.299"/>
      <point x="171.83" y="180.619" type="curve"/>
      <point x="143.68" y="152.489"/>
      <point x="98.0693" y="152.489"/>
      <point x="69.9189" y="180.619" type="curve" smooth="yes"/>
      <point x="60.999" y="189.52" type="line"/>
      <point x="111.959" y="240.46" type="line"/>
      <point x="98.6387" y="263.81"/>
      <point x="90.9287" y="290.76"/>
      <point x="90.9287" y="319.56" type="curve" smooth="yes"/>
      <point x="90.9287" y="348.359"/>
      <point x="98.6387" y="375.319"/>
      <point x="111.959" y="398.659" type="curve"/>
      <point x="60.999" y="449.619" type="line"/>
      <point x="69.8994" y="458.529" type="line" smooth="yes"/>
      <point x="98.0498" y="486.669"/>
      <point x="143.67" y="486.669"/>
      <point x="171.82" y="458.529" type="curve"/>
      <point x="195.17" y="471.85"/>
      <point x="222.12" y="479.56"/>
      <point x="250.92" y="479.56" type="curve" smooth="yes"/>
      <point x="279.71" y="479.56"/>
      <point x="306.66" y="471.85"/>
      <point x="330.021" y="458.54" type="curve"/>
      <point x="358.16" y="486.67"/>
      <point x="403.78" y="486.67"/>
      <point x="431.931" y="458.54" type="curve" smooth="yes"/>
      <point x="440.851" y="449.64" type="line"/>
      <point x="389.881" y="398.67" type="line"/>
      <point x="403.19" y="375.34"/>
      <point x="410.91" y="348.39"/>
      <point x="410.91" y="319.59" type="curve" smooth="yes"/>
      <point x="410.91" y="290.79"/>
      <point x="403.19" y="263.83"/>
    </contour>
    <contour>
      <point x="250.921" y="244.259" type="curve" smooth="yes"/>
      <point x="255.73" y="244.259"/>
      <point x="260.411" y="244.787"/>
      <point x="264.971" y="245.647" type="curve" smooth="yes"/>
      <point x="295.081" y="251.367"/>
      <point x="319.141" y="275.467"/>
      <point x="324.841" y="305.577" type="curve" smooth="yes"/>
      <point x="325.701" y="310.117"/>
      <point x="326.251" y="314.777"/>
      <point x="326.251" y="319.558" type="curve" smooth="yes"/>
      <point x="326.251" y="324.298"/>
      <point x="325.711" y="328.928"/>
      <point x="324.871" y="333.428" type="curve" smooth="yes"/>
      <point x="319.191" y="363.578"/>
      <point x="295.111" y="387.738"/>
      <point x="264.972" y="393.469" type="curve" smooth="yes"/>
      <point x="260.401" y="394.339"/>
      <point x="255.731" y="394.889"/>
      <point x="250.922" y="394.889" type="curve" smooth="yes"/>
      <point x="246.202" y="394.889"/>
      <point x="241.622" y="394.349"/>
      <point x="237.152" y="393.519" type="curve" smooth="yes"/>
      <point x="206.582" y="387.809"/>
      <point x="183.222" y="364.879"/>
      <point x="177.162" y="334.389" type="curve" smooth="yes"/>
      <point x="176.222" y="329.589"/>
      <point x="175.602" y="324.648"/>
      <point x="175.602" y="319.568" type="curve" smooth="yes"/>
      <point x="175.602" y="314.759"/>
      <point x="176.161" y="310.079"/>
      <point x="177.021" y="305.52" type="curve" smooth="yes"/>
      <point x="182.722" y="275.439"/>
      <point x="206.812" y="251.369"/>
      <point x="236.911" y="245.669" type="curve" smooth="yes"/>
      <point x="241.451" y="244.809"/>
      <point x="246.121" y="244.259"/>
    </contour>
  </outline>
</glyph>
<glyph name="yen" format="2">
  <advance width="672"/>
  <unicode hex="00A5"/>
  <outline>
    <contour>
      <point x="412.548" y="279.23" type="curve" smooth="yes"/>
      <point x="377.952" y="279.232" type="line"/>
      <point x="377.952" y="235.083" type="line"/>
      <point x="495.612" y="235.083" type="line"/>
      <point x="495.612" y="188.323"/>
      <point x="457.714" y="150.425"/>
      <point x="410.954" y="150.425" type="curve" smooth="yes"/>
      <point x="377.951" y="150.425" type="line"/>
      <point x="377.951" y="84.6592" type="line" smooth="yes"/>
      <point x="377.951" y="37.8994"/>
      <point x="340.053" y="0.000976562"/>
      <point x="293.293" y="0.000976562" type="curve"/>
      <point x="293.293" y="150.424" type="line"/>
      <point x="175.646" y="150.424" type="line"/>
      <point x="175.646" y="197.184"/>
      <point x="213.545" y="235.082"/>
      <point x="260.305" y="235.082" type="curve" smooth="yes"/>
      <point x="293.293" y="235.082" type="line"/>
      <point x="293.293" y="279.231" type="line"/>
      <point x="177.241" y="279.231" type="line"/>
      <point x="177.241" y="322.52"/>
      <point x="209.764" y="358.175"/>
      <point x="251.712" y="363.212" type="curve"/>
      <point x="50" y="639.931" type="line"/>
      <point x="115.836" y="639.931"/>
      <point x="177.692" y="608.466"/>
      <point x="216.479" y="555.272" type="curve" smooth="yes"/>
      <point x="335.622" y="391.826" type="line"/>
      <point x="454.778" y="555.272" type="line" smooth="yes"/>
      <point x="493.552" y="608.466"/>
      <point x="555.408" y="639.931"/>
      <point x="621.244" y="639.931" type="curve"/>
      <point x="420.026" y="363.889" type="line"/>
      <point x="497.206" y="363.889" type="line"/>
      <point x="497.206" y="317.129"/>
      <point x="459.308" y="279.23"/>
    </contour>
  </outline>
</glyph>
<glyph name="section" format="2">
  <advance width="635"/>
  <unicode hex="00A7"/>
  <outline>
    <contour>
      <point x="559.611" y="320.092" type="curve" smooth="yes"/>
      <point x="559.611" y="278.229"/>
      <point x="534.849" y="240.838"/>
      <point x="494.213" y="213.169" type="curve"/>
      <point x="538.376" y="189.112"/>
      <point x="559.611" y="156.321"/>
      <point x="559.611" y="124.716" type="curve" smooth="yes"/>
      <point x="559.611" y="64.6514"/>
      <point x="483.786" y="0.000976562"/>
      <point x="317.306" y="0.000976562" type="curve" smooth="yes"/>
      <point x="150.825" y="0.000976562"/>
      <point x="75" y="64.6514"/>
      <point x="75" y="124.716" type="curve"/>
      <point x="88.6865" y="124.716" type="line" smooth="yes"/>
      <point x="127.248" y="124.716"/>
      <point x="165.726" y="118.62"/>
      <point x="201.86" y="105.131" type="curve" smooth="yes"/>
      <point x="229.063" y="94.958"/>
      <point x="268.472" y="84.6582"/>
      <point x="317.306" y="84.6582" type="curve" smooth="yes"/>
      <point x="409.329" y="84.6582"/>
      <point x="463.426" y="111.537"/>
      <point x="473.896" y="124.716" type="curve"/>
      <point x="463.426" y="137.895"/>
      <point x="409.315" y="164.773"/>
      <point x="317.307" y="164.773" type="curve" smooth="yes"/>
      <point x="181.431" y="164.773"/>
      <point x="75.001" y="233.008"/>
      <point x="75.001" y="320.093" type="curve" smooth="yes"/>
      <point x="75.001" y="361.956"/>
      <point x="99.7637" y="399.347"/>
      <point x="140.399" y="427.016" type="curve"/>
      <point x="96.2363" y="451.072"/>
      <point x="75.001" y="483.863"/>
      <point x="75.001" y="515.469" type="curve" smooth="yes"/>
      <point x="75.001" y="575.533"/>
      <point x="150.826" y="640.184"/>
      <point x="317.307" y="640.184" type="curve" smooth="yes"/>
      <point x="483.787" y="640.184"/>
      <point x="559.612" y="575.533"/>
      <point x="559.612" y="515.469" type="curve"/>
      <point x="545.926" y="515.469" type="line" smooth="yes"/>
      <point x="507.364" y="515.469"/>
      <point x="468.887" y="521.564"/>
      <point x="432.752" y="535.054" type="curve" smooth="yes"/>
      <point x="405.549" y="545.227"/>
      <point x="366.141" y="555.526"/>
      <point x="317.307" y="555.526" type="curve" smooth="yes"/>
      <point x="225.283" y="555.526"/>
      <point x="171.187" y="528.647"/>
      <point x="160.717" y="515.469" type="curve"/>
      <point x="171.187" y="502.29"/>
      <point x="225.297" y="475.411"/>
      <point x="317.306" y="475.411" type="curve" smooth="yes"/>
      <point x="453.182" y="475.411"/>
      <point x="559.611" y="407.19"/>
    </contour>
    <contour>
      <point x="159.658" y="320.092" type="curve" smooth="yes"/>
      <point x="159.658" y="291.28"/>
      <point x="221.077" y="249.431"/>
      <point x="317.305" y="249.431" type="curve" smooth="yes"/>
      <point x="413.532" y="249.431"/>
      <point x="474.951" y="291.28"/>
      <point x="474.951" y="320.092" type="curve" smooth="yes"/>
      <point x="474.951" y="348.903"/>
      <point x="413.532" y="390.753"/>
      <point x="317.305" y="390.753" type="curve" smooth="yes"/>
      <point x="221.077" y="390.753"/>
      <point x="159.658" y="348.903"/>
    </contour>
  </outline>
</glyph>
<glyph name="dieresis" format="2">
  <advance width="358"/>
  <unicode hex="00A8"/>
  <outline>
    <contour>
      <point x="258.98" y="579.98" type="curve" smooth="yes"/>
      <point x="286.591" y="579.98"/>
      <point x="308.971" y="557.601"/>
      <point x="308.971" y="529.99" type="curve" smooth="yes"/>
      <point x="308.971" y="502.38"/>
      <point x="286.591" y="480"/>
      <point x="258.98" y="480" type="curve" smooth="yes"/>
      <point x="231.37" y="480"/>
      <point x="208.99" y="502.38"/>
      <point x="208.99" y="529.99" type="curve" smooth="yes"/>
      <point x="208.99" y="557.601"/>
      <point x="231.37" y="579.98"/>
    </contour>
    <contour>
      <point x="98.9902" y="579.98" type="curve" smooth="yes"/>
      <point x="126.601" y="579.98"/>
      <point x="148.98" y="557.601"/>
      <point x="148.98" y="529.99" type="curve" smooth="yes"/>
      <point x="148.98" y="502.38"/>
      <point x="126.601" y="480"/>
      <point x="98.9902" y="480" type="curve" smooth="yes"/>
      <point x="71.3799" y="480"/>
      <point x="49" y="502.38"/>
      <point x="49" y="529.99" type="curve" smooth="yes"/>
      <point x="49" y="557.601"/>
      <point x="71.3799" y="579.98"/>
    </contour>
  </outline>
</glyph>
<glyph name="copyright" format="2">
  <advance width="640"/>
  <unicode hex="00A9"/>
  <outline>
    <contour>
      <point x="323.236" y="450.293" type="curve" smooth="yes"/>
      <point x="291.688" y="450.293"/>
      <point x="266.842" y="421.113"/>
      <point x="274.249" y="388.322" type="curve" smooth="yes"/>
      <point x="278.439" y="369.754"/>
      <point x="293.734" y="354.826"/>
      <point x="312.345" y="350.833" type="curve" smooth="yes"/>
      <point x="323.421" y="348.448"/>
      <point x="334.003" y="349.816"/>
      <point x="343.174" y="353.838" type="curve" smooth="yes"/>
      <point x="356" y="359.468"/>
      <point x="369.446" y="363.531"/>
      <point x="383.443" y="363.531" type="curve" smooth="yes"/>
      <point x="423.486" y="363.531" type="line"/>
      <point x="408.572" y="322.543"/>
      <point x="369.39" y="293.223"/>
      <point x="323.251" y="293.223" type="curve" smooth="yes"/>
      <point x="257.246" y="293.223"/>
      <point x="205.224" y="353.133"/>
      <point x="218.613" y="421.551" type="curve" smooth="yes"/>
      <point x="226.712" y="462.935"/>
      <point x="259.969" y="496.318"/>
      <point x="301.338" y="504.544" type="curve" smooth="yes"/>
      <point x="356.647" y="515.55"/>
      <point x="406.271" y="483.761"/>
      <point x="423.485" y="436.423" type="curve"/>
      <point x="386.038" y="436.423" type="line" smooth="yes"/>
      <point x="370.828" y="436.423"/>
      <point x="356.211" y="440.755"/>
      <point x="342.144" y="446.554" type="curve" smooth="yes"/>
      <point x="336.316" y="448.952"/>
      <point x="329.938" y="450.293"/>
    </contour>
    <contour>
      <point x="319.979" y="639.954" type="curve" smooth="yes"/>
      <point x="452.511" y="639.954"/>
      <point x="559.956" y="532.509"/>
      <point x="559.956" y="399.977" type="curve" smooth="yes"/>
      <point x="559.956" y="267.444"/>
      <point x="452.511" y="159.999"/>
      <point x="319.979" y="159.999" type="curve" smooth="yes"/>
      <point x="187.446" y="159.999"/>
      <point x="80.001" y="267.444"/>
      <point x="80.001" y="399.977" type="curve" smooth="yes"/>
      <point x="80.001" y="532.509"/>
      <point x="187.446" y="639.954"/>
    </contour>
    <contour>
      <point x="319.979" y="244.657" type="curve" smooth="yes"/>
      <point x="405.624" y="244.657"/>
      <point x="475.298" y="314.331"/>
      <point x="475.298" y="399.977" type="curve" smooth="yes"/>
      <point x="475.298" y="485.622"/>
      <point x="405.624" y="555.296"/>
      <point x="319.979" y="555.296" type="curve" smooth="yes"/>
      <point x="234.333" y="555.296"/>
      <point x="164.659" y="485.622"/>
      <point x="164.659" y="399.977" type="curve" smooth="yes"/>
      <point x="164.659" y="314.331"/>
      <point x="234.333" y="244.657"/>
    </contour>
  </outline>
</glyph>
<glyph name="guillemotleft" format="2">
  <advance width="591"/>
  <unicode hex="00AB"/>
  <outline>
    <contour>
      <point x="292.168" y="444.92" type="curve"/>
      <point x="162.118" y="314.859" type="line"/>
      <point x="292.168" y="184.81" type="line"/>
      <point x="259.108" y="151.75"/>
      <point x="205.528" y="151.75"/>
      <point x="172.469" y="184.81" type="curve" smooth="yes"/>
      <point x="70.7383" y="286.54" type="line" smooth="yes"/>
      <point x="55.0879" y="302.19"/>
      <point x="55.0879" y="327.561"/>
      <point x="70.7383" y="343.2" type="curve" smooth="yes"/>
      <point x="172.469" y="444.92" type="line" smooth="yes"/>
      <point x="205.528" y="477.979"/>
      <point x="259.108" y="477.979"/>
    </contour>
    <contour>
      <point x="402.088" y="314.859" type="line"/>
      <point x="532.148" y="184.809" type="line"/>
      <point x="499.089" y="151.749"/>
      <point x="445.499" y="151.749"/>
      <point x="412.439" y="184.809" type="curve" smooth="yes"/>
      <point x="310.709" y="286.539" type="line" smooth="yes"/>
      <point x="295.069" y="302.189"/>
      <point x="295.069" y="327.56"/>
      <point x="310.709" y="343.199" type="curve" smooth="yes"/>
      <point x="412.429" y="444.919" type="line" smooth="yes"/>
      <point x="445.488" y="477.979"/>
      <point x="499.078" y="477.979"/>
      <point x="532.138" y="444.919" type="curve"/>
    </contour>
  </outline>
</glyph>
<glyph name="registered" format="2">
  <advance width="614"/>
  <unicode hex="00AE"/>
  <outline>
    <contour>
      <point x="306.98" y="639.95" type="curve" smooth="yes"/>
      <point x="439.511" y="639.95"/>
      <point x="546.951" y="532.51"/>
      <point x="546.951" y="399.979" type="curve" smooth="yes"/>
      <point x="546.951" y="267.449"/>
      <point x="439.511" y="159.999"/>
      <point x="306.98" y="159.999" type="curve" smooth="yes"/>
      <point x="174.45" y="159.999"/>
      <point x="67" y="267.449"/>
      <point x="67" y="399.979" type="curve" smooth="yes"/>
      <point x="67" y="532.51"/>
      <point x="174.45" y="639.95"/>
    </contour>
    <contour>
      <point x="306.98" y="244.66" type="curve" smooth="yes"/>
      <point x="392.62" y="244.66"/>
      <point x="462.3" y="314.33"/>
      <point x="462.3" y="399.98" type="curve" smooth="yes"/>
      <point x="462.3" y="485.62"/>
      <point x="392.62" y="555.3"/>
      <point x="306.98" y="555.3" type="curve" smooth="yes"/>
      <point x="221.33" y="555.3"/>
      <point x="151.66" y="485.62"/>
      <point x="151.66" y="399.98" type="curve" smooth="yes"/>
      <point x="151.66" y="314.33"/>
      <point x="221.33" y="244.66"/>
    </contour>
    <contour>
      <point x="397.521" y="432.53" type="curve" smooth="yes"/>
      <point x="398.221" y="416.46"/>
      <point x="393.24" y="401.661"/>
      <point x="384.62" y="389.621" type="curve"/>
      <point x="392.67" y="378.381"/>
      <point x="397.59" y="364.591"/>
      <point x="397.59" y="349.541" type="curve" smooth="yes"/>
      <point x="397.59" y="306.971" type="line"/>
      <point x="383.72" y="306.971" type="line" smooth="yes"/>
      <point x="360.21" y="306.971"/>
      <point x="341.15" y="326.03"/>
      <point x="341.15" y="349.54" type="curve" smooth="yes"/>
      <point x="341.15" y="355.6"/>
      <point x="337.17" y="360.72"/>
      <point x="332.47" y="360.72" type="curve"/>
      <point x="332.47" y="361.09" type="line"/>
      <point x="331.229" y="361.02"/>
      <point x="330.069" y="360.72"/>
      <point x="328.819" y="360.72" type="curve" smooth="yes"/>
      <point x="272.8" y="360.72" type="line"/>
      <point x="272.8" y="349.54" type="line" smooth="yes"/>
      <point x="272.8" y="326.03"/>
      <point x="253.74" y="306.971"/>
      <point x="230.23" y="306.971" type="curve" smooth="yes"/>
      <point x="216.37" y="306.971" type="line"/>
      <point x="216.37" y="463.82" type="line" smooth="yes"/>
      <point x="216.37" y="482.86"/>
      <point x="231.79" y="498.28"/>
      <point x="250.82" y="498.28" type="curve" smooth="yes"/>
      <point x="325.4" y="498.28" type="line" smooth="yes"/>
      <point x="362.811" y="498.28"/>
      <point x="395.87" y="469.891"/>
    </contour>
    <contour>
      <point x="328.82" y="417.161" type="line" smooth="yes"/>
      <point x="335.62" y="417.161"/>
      <point x="341.15" y="422.691"/>
      <point x="341.15" y="429.491" type="curve" smooth="yes"/>
      <point x="341.15" y="436.301"/>
      <point x="335.62" y="441.831"/>
      <point x="328.82" y="441.831" type="curve" smooth="yes"/>
      <point x="272.801" y="441.831" type="line"/>
      <point x="272.801" y="417.161" type="line"/>
    </contour>
  </outline>
</glyph>
<glyph name="degree" format="2">
  <advance width="268"/>
  <unicode hex="00B0"/>
  <outline>
    <contour>
      <point x="133.99" y="583.54" type="curve" smooth="yes"/>
      <point x="121.01" y="583.54"/>
      <point x="110.439" y="572.97"/>
      <point x="110.439" y="559.989" type="curve" smooth="yes"/>
      <point x="110.439" y="547.009"/>
      <point x="121.01" y="536.438"/>
      <point x="133.99" y="536.438" type="curve" smooth="yes"/>
      <point x="146.971" y="536.438"/>
      <point x="157.541" y="547.009"/>
      <point x="157.541" y="559.989" type="curve" smooth="yes"/>
      <point x="157.541" y="572.97"/>
      <point x="146.971" y="583.54"/>
    </contour>
    <contour>
      <point x="54" y="559.99" type="curve" smooth="yes"/>
      <point x="54" y="604.17"/>
      <point x="89.8086" y="639.979"/>
      <point x="133.988" y="639.979" type="curve" smooth="yes"/>
      <point x="178.179" y="639.979"/>
      <point x="213.979" y="604.17"/>
      <point x="213.979" y="559.99" type="curve" smooth="yes"/>
      <point x="213.979" y="515.811"/>
      <point x="178.169" y="480.001"/>
      <point x="133.989" y="480.001" type="curve" smooth="yes"/>
      <point x="89.8096" y="480.001"/>
      <point x="54" y="515.811"/>
    </contour>
  </outline>
</glyph>
<glyph name="plusminus" format="2">
  <advance width="364"/>
  <unicode hex="00B1"/>
  <outline>
    <contour>
      <point x="139.66" y="262.32" type="curve"/>
      <point x="139.66" y="339.98" type="line"/>
      <point x="62" y="339.98" type="line"/>
      <point x="62" y="384.48"/>
      <point x="96.3701" y="420.881"/>
      <point x="140" y="424.301" type="curve"/>
      <point x="143.4" y="467.921"/>
      <point x="179.82" y="502.291"/>
      <point x="224.32" y="502.291" type="curve"/>
      <point x="224.32" y="424.631" type="line"/>
      <point x="301.98" y="424.631" type="line"/>
      <point x="301.98" y="380.131"/>
      <point x="267.61" y="343.721"/>
      <point x="223.98" y="340.32" type="curve"/>
      <point x="220.58" y="296.69"/>
      <point x="184.16" y="262.32"/>
    </contour>
    <contour>
      <point x="62" y="140" type="line"/>
      <point x="62" y="186.76"/>
      <point x="99.9004" y="224.66"/>
      <point x="146.66" y="224.66" type="curve" smooth="yes"/>
      <point x="301.98" y="224.66" type="line"/>
      <point x="301.98" y="177.9"/>
      <point x="264.08" y="140"/>
      <point x="217.32" y="140" type="curve" smooth="yes"/>
    </contour>
  </outline>
</glyph>
<glyph name="twosuperior" format="2">
  <advance width="269"/>
  <unicode hex="00B2"/>
  <outline>
    <contour>
      <point x="124.26" y="522.33" type="line"/>
      <point x="171.661" y="522.331" type="line" smooth="yes"/>
      <point x="195.041" y="522.331"/>
      <point x="213.991" y="503.381"/>
      <point x="213.991" y="480.001" type="curve"/>
      <point x="73.1709" y="480.001" type="line" smooth="yes"/>
      <point x="64.6113" y="480.001"/>
      <point x="56.8916" y="485.151"/>
      <point x="53.6221" y="493.071" type="curve" smooth="yes"/>
      <point x="50.332" y="500.981"/>
      <point x="52.1523" y="510.081"/>
      <point x="58.2021" y="516.131" type="curve" smooth="yes"/>
      <point x="163.282" y="621.201" type="line" smooth="yes"/>
      <point x="175.032" y="632.961"/>
      <point x="175.062" y="648.261"/>
      <point x="171.173" y="658.661" type="curve" smooth="yes"/>
      <point x="166.482" y="671.171"/>
      <point x="155.952" y="679.171"/>
      <point x="143.022" y="680.051" type="curve" smooth="yes"/>
      <point x="142.042" y="680.101"/>
      <point x="140.972" y="680.15"/>
      <point x="139.882" y="680.15" type="curve" smooth="yes"/>
      <point x="129.322" y="680.15"/>
      <point x="119.442" y="676.521"/>
      <point x="111.593" y="670.311" type="curve" smooth="yes"/>
      <point x="95.4023" y="657.49"/>
      <point x="74.8223" y="651.561"/>
      <point x="54.832" y="656.771" type="curve"/>
      <point x="64.9121" y="695.44"/>
      <point x="99.8818" y="722.46"/>
      <point x="139.901" y="722.46" type="curve" smooth="yes"/>
      <point x="141.892" y="722.46"/>
      <point x="143.852" y="722.39"/>
      <point x="145.812" y="722.26" type="curve" smooth="yes"/>
      <point x="175.411" y="720.26"/>
      <point x="200.291" y="701.58"/>
      <point x="210.811" y="673.5" type="curve" smooth="yes"/>
      <point x="221.69" y="644.49"/>
      <point x="214.95" y="612.98"/>
      <point x="193.2" y="591.25" type="curve" smooth="yes"/>
    </contour>
  </outline>
</glyph>
<glyph name="threesuperior" format="2">
  <advance width="262"/>
  <unicode hex="00B3"/>
  <outline>
    <contour>
      <point x="180.65" y="609.287" type="curve"/>
      <point x="196.241" y="595.699"/>
      <point x="206.116" y="576.072"/>
      <point x="206.116" y="554.202" type="curve" smooth="yes"/>
      <point x="206.116" y="513.284"/>
      <point x="171.773" y="479.999"/>
      <point x="129.558" y="479.999" type="curve" smooth="yes"/>
      <point x="87.3418" y="479.999"/>
      <point x="52.999" y="513.284"/>
      <point x="52.999" y="554.188" type="curve"/>
      <point x="79.6377" y="554.188" type="line" smooth="yes"/>
      <point x="87.4824" y="554.188"/>
      <point x="94.6641" y="549.646"/>
      <point x="97.7539" y="542.436" type="curve" smooth="yes"/>
      <point x="102.791" y="530.668"/>
      <point x="115.151" y="522.329"/>
      <point x="129.571" y="522.329" type="curve" smooth="yes"/>
      <point x="148.45" y="522.329"/>
      <point x="163.802" y="536.637"/>
      <point x="163.802" y="554.203" type="curve" smooth="yes"/>
      <point x="163.802" y="568.765"/>
      <point x="153.233" y="581.082"/>
      <point x="138.87" y="584.863" type="curve" smooth="yes"/>
      <point x="133.494" y="586.274"/>
      <point x="129.571" y="590.86"/>
      <point x="129.571" y="596.42" type="curve" smooth="yes"/>
      <point x="129.571" y="619.108" type="line" smooth="yes"/>
      <point x="129.571" y="624.132"/>
      <point x="133.113" y="628.125"/>
      <point x="137.883" y="629.72" type="curve" smooth="yes"/>
      <point x="148.338" y="633.205"/>
      <point x="155.9" y="643.082"/>
      <point x="155.9" y="654.694" type="curve" smooth="yes"/>
      <point x="155.9" y="669.213"/>
      <point x="144.091" y="681.022"/>
      <point x="129.572" y="681.022" type="curve" smooth="yes"/>
      <point x="119.413" y="681.022"/>
      <point x="110.58" y="675.237"/>
      <point x="106.192" y="666.785" type="curve" smooth="yes"/>
      <point x="102.523" y="659.716"/>
      <point x="95.9062" y="654.692"/>
      <point x="87.9482" y="654.692" type="curve" smooth="yes"/>
      <point x="60.9141" y="654.692" type="line"/>
      <point x="60.9141" y="697.219"/>
      <point x="99.7725" y="730.828"/>
      <point x="143.823" y="721.911" type="curve" smooth="yes"/>
      <point x="170.477" y="716.507"/>
      <point x="191.74" y="694.679"/>
      <point x="196.919" y="667.983" type="curve" smooth="yes"/>
      <point x="201.321" y="645.281"/>
      <point x="194.125" y="624.427"/>
    </contour>
  </outline>
</glyph>
<glyph name="acute" format="2">
  <advance width="143"/>
  <unicode hex="00B4"/>
  <outline>
    <contour>
      <point x="12.3896" y="-47.0703" type="line" smooth="yes"/>
      <point x="18.7197" y="-0.75"/>
      <point x="61.4199" y="31.6797"/>
      <point x="107.74" y="25.3398" type="curve"/>
      <point x="103.34" y="-6.7998" type="line" smooth="yes"/>
      <point x="97" y="-53.1201"/>
      <point x="54.3203" y="-85.54"/>
      <point x="8" y="-79.21" type="curve"/>
    </contour>
  </outline>
</glyph>
<glyph name="paragraph" format="2">
  <advance width="537"/>
  <unicode hex="00B6"/>
  <outline>
    <contour>
      <point x="464.97" y="561.89" type="curve"/>
      <point x="427.288" y="561.892" type="line"/>
      <point x="427.288" y="84.6611" type="line" smooth="yes"/>
      <point x="427.288" y="37.9014"/>
      <point x="389.398" y="0.000976562"/>
      <point x="342.639" y="0.000976562" type="curve"/>
      <point x="342.639" y="561.891" type="line"/>
      <point x="267.349" y="561.891" type="line"/>
      <point x="267.349" y="91.2607" type="line" smooth="yes"/>
      <point x="267.349" y="44.501"/>
      <point x="229.448" y="6.60059"/>
      <point x="182.688" y="6.60059" type="curve"/>
      <point x="182.688" y="332.41" type="line"/>
      <point x="114.889" y="350.98"/>
      <point x="64.999" y="412.86"/>
      <point x="64.999" y="486.561" type="curve" smooth="yes"/>
      <point x="64.999" y="574.91"/>
      <point x="136.629" y="646.55"/>
      <point x="224.989" y="646.55" type="curve"/>
      <point x="224.989" y="633.33" type="line"/>
      <point x="225.02" y="633.33" type="line"/>
      <point x="225.02" y="646.55" type="line"/>
      <point x="380.31" y="646.55" type="line" smooth="yes"/>
      <point x="427.069" y="646.55"/>
      <point x="464.97" y="608.649"/>
    </contour>
  </outline>
</glyph>
<glyph name="cedilla" format="2">
  <advance width="383"/>
  <unicode hex="00B8"/>
  <outline>
    <contour>
      <point x="221.662" y="81.0557" type="line"/>
      <point x="267.998" y="78.5156"/>
      <point x="305.191" y="38.2188"/>
      <point x="302.694" y="-9.99414" type="curve" smooth="yes"/>
      <point x="300.281" y="-56.5986"/>
      <point x="259.363" y="-92"/>
      <point x="212.688" y="-92" type="curve" smooth="yes"/>
      <point x="99.8389" y="-92" type="line"/>
      <point x="99.8389" y="-45.2402"/>
      <point x="137.737" y="-7.3418"/>
      <point x="184.497" y="-7.3418" type="curve" smooth="yes"/>
      <point x="216.229" y="-7.3418" type="line" smooth="yes"/>
      <point x="217.288" y="-7.3418"/>
      <point x="218.163" y="-6.4668"/>
      <point x="218.163" y="-5.4082" type="curve" smooth="yes"/>
      <point x="218.163" y="-4.34961"/>
      <point x="217.288" y="-3.47461"/>
      <point x="216.229" y="-3.47461" type="curve" smooth="yes"/>
      <point x="122.725" y="-1.75293" type="line" smooth="yes"/>
      <point x="110.604" y="-1.52734"/>
      <point x="98.6816" y="3.19922"/>
      <point x="90.7236" y="12.3418" type="curve" smooth="yes"/>
      <point x="75.415" y="29.9365"/>
      <point x="77.0234" y="54.9385"/>
      <point x="92.1914" y="70.3184" type="curve" smooth="yes"/>
      <point x="167.185" y="146.384" type="line"/>
      <point x="227.476" y="86.9395" type="line"/>
    </contour>
  </outline>
</glyph>
<glyph name="onesuperior" format="2">
  <advance width="209"/>
  <unicode hex="00B9"/>
  <outline>
    <contour>
      <point x="139.186" y="718.937" type="curve" smooth="yes"/>
      <point x="147.102" y="715.649"/>
      <point x="152.252" y="707.945"/>
      <point x="152.252" y="699.395" type="curve" smooth="yes"/>
      <point x="152.252" y="522.332" type="line" smooth="yes"/>
      <point x="152.252" y="498.952"/>
      <point x="133.303" y="480.003"/>
      <point x="109.923" y="480.003" type="curve"/>
      <point x="109.923" y="648.289" type="line"/>
      <point x="102.854" y="641.22" type="line" smooth="yes"/>
      <point x="86.3311" y="624.697"/>
      <point x="59.5225" y="624.697"/>
      <point x="43" y="641.22" type="curve"/>
      <point x="116.116" y="714.351" type="line" smooth="yes"/>
      <point x="122.155" y="720.403"/>
      <point x="131.256" y="722.224"/>
    </contour>
  </outline>
</glyph>
<glyph name="guillemotright" format="2">
  <advance width="591"/>
  <unicode hex="00BB"/>
  <outline>
    <contour>
      <point x="519.4" y="343.19" type="line" smooth="yes"/>
      <point x="535.051" y="327.54"/>
      <point x="535.04" y="302.161"/>
      <point x="519.39" y="286.511" type="curve" smooth="yes"/>
      <point x="417.67" y="184.791" type="line" smooth="yes"/>
      <point x="384.61" y="151.741"/>
      <point x="331.03" y="151.741"/>
      <point x="297.971" y="184.791" type="curve"/>
      <point x="428.021" y="314.841" type="line"/>
      <point x="297.971" y="444.921" type="line"/>
      <point x="331.03" y="477.98"/>
      <point x="384.61" y="477.98"/>
      <point x="417.67" y="444.921" type="curve" smooth="yes"/>
    </contour>
    <contour>
      <point x="177.71" y="444.922" type="curve" smooth="yes"/>
      <point x="279.441" y="343.183" type="line" smooth="yes"/>
      <point x="295.092" y="327.532"/>
      <point x="295.092" y="302.162"/>
      <point x="279.441" y="286.512" type="curve" smooth="yes"/>
      <point x="177.711" y="184.792" type="line" smooth="yes"/>
      <point x="144.671" y="151.742"/>
      <point x="91.0605" y="151.742"/>
      <point x="58.001" y="184.792" type="curve"/>
      <point x="188.051" y="314.842" type="line"/>
      <point x="58.001" y="444.922" type="line"/>
      <point x="91.0605" y="477.981"/>
      <point x="144.65" y="477.981"/>
    </contour>
  </outline>
</glyph>
<glyph name="questiondown" format="2">
  <advance width="500"/>
  <unicode hex="00BF"/>
  <outline>
    <contour>
      <point x="252.107" y="499.78" type="curve" smooth="yes"/>
      <point x="224.497" y="499.78"/>
      <point x="202.117" y="522.16"/>
      <point x="202.117" y="549.771" type="curve" smooth="yes"/>
      <point x="202.117" y="577.381"/>
      <point x="224.497" y="599.761"/>
      <point x="252.107" y="599.761" type="curve" smooth="yes"/>
      <point x="279.718" y="599.761"/>
      <point x="302.098" y="577.381"/>
      <point x="302.098" y="549.771" type="curve" smooth="yes"/>
      <point x="302.098" y="522.16"/>
      <point x="279.718" y="499.78"/>
    </contour>
    <contour>
      <point x="338.627" y="79.96" type="curve" smooth="yes"/>
      <point x="363.457" y="110"/>
      <point x="401.271" y="126.2"/>
      <point x="440.23" y="125.13" type="curve"/>
      <point x="437.62" y="30.6104"/>
      <point x="362.7" y="-37.2598"/>
      <point x="258" y="-39.9102" type="curve" smooth="yes"/>
      <point x="167.56" y="-42.2305"/>
      <point x="72.5596" y="11.3799"/>
      <point x="64.2197" y="118.11" type="curve" smooth="yes"/>
      <point x="64.1396" y="119.551" type="line" smooth="yes"/>
      <point x="61.2695" y="184.591"/>
      <point x="104.1" y="229.891"/>
      <point x="137.18" y="258.53" type="curve" smooth="yes"/>
      <point x="210.96" y="331.641"/>
      <point x="210.31" y="359.761"/>
      <point x="209.35" y="402.211" type="curve" smooth="yes"/>
      <point x="209.35" y="402.581" type="line" smooth="yes"/>
      <point x="208.859" y="424.251"/>
      <point x="227.159" y="441.641"/>
      <point x="248.779" y="440.03" type="curve" smooth="yes"/>
      <point x="294.339" y="436.65" type="line"/>
      <point x="293.519" y="425.591"/>
      <point x="293.738" y="415.171"/>
      <point x="293.998" y="404.121" type="curve" smooth="yes"/>
      <point x="295.408" y="341.291"/>
      <point x="289.168" y="289.671"/>
      <point x="195.668" y="197.331" type="curve"/>
      <point x="193.518" y="195.351" type="line" smooth="yes"/>
      <point x="161.857" y="168.12"/>
      <point x="148.008" y="146.08"/>
      <point x="148.678" y="123.98" type="curve" smooth="yes"/>
      <point x="154.208" y="59.4502"/>
      <point x="218.508" y="43.8398"/>
      <point x="255.857" y="44.7402" type="curve" smooth="yes"/>
      <point x="280.617" y="45.3799"/>
      <point x="317.317" y="54.2002"/>
    </contour>
  </outline>
</glyph>
<glyph name="Agrave" format="2">
  <advance width="730"/>
  <unicode hex="00C0"/>
  <outline>
    <contour>
      <point x="438.02" y="672.94" type="line" smooth="yes"/>
      <point x="411.38" y="646.301"/>
      <point x="368.189" y="646.281"/>
      <point x="341.55" y="672.921" type="curve" smooth="yes"/>
      <point x="269.8" y="744.681" type="line"/>
      <point x="281.43" y="756.311" type="line" smooth="yes"/>
      <point x="308.069" y="782.95"/>
      <point x="351.26" y="782.95"/>
      <point x="377.899" y="756.311" type="curve" smooth="yes"/>
      <point x="449.64" y="684.561" type="line"/>
    </contour>
    <contour>
      <point x="403.46" y="615.541" type="curve" smooth="yes"/>
      <point x="711.212" y="0.000976562" type="line"/>
      <point x="653.202" y="0.000976562"/>
      <point x="600.172" y="32.7812"/>
      <point x="574.231" y="84.6611" type="curve" smooth="yes"/>
      <point x="531.831" y="169.461" type="line"/>
      <point x="197.381" y="169.461" type="line"/>
      <point x="154.98" y="84.6514" type="line" smooth="yes"/>
      <point x="129.03" y="32.7812"/>
      <point x="76" y="0.000976562"/>
      <point x="18" y="0.000976562" type="curve"/>
      <point x="326.78" y="617.481" type="line" smooth="yes"/>
      <point x="335.55" y="635.041"/>
      <point x="355.55" y="644.671"/>
      <point x="375.54" y="639.48" type="curve" smooth="yes"/>
      <point x="387.89" y="636.261"/>
      <point x="397.76" y="626.951"/>
    </contour>
    <contour>
      <point x="239.731" y="254.121" type="line"/>
      <point x="489.521" y="254.121" type="line"/>
      <point x="364.632" y="503.901" type="line"/>
    </contour>
  </outline>
</glyph>
<glyph name="Aacute" format="2">
  <advance width="730"/>
  <unicode hex="00C1"/>
  <outline>
    <contour>
      <point x="382.75" y="672.94" type="line" smooth="yes"/>
      <point x="356.12" y="646.301"/>
      <point x="312.93" y="646.311"/>
      <point x="286.3" y="672.95" type="curve" smooth="yes"/>
      <point x="274.67" y="684.58" type="line"/>
      <point x="346.43" y="756.32" type="line" smooth="yes"/>
      <point x="373.06" y="782.96"/>
      <point x="416.25" y="782.96"/>
      <point x="442.88" y="756.32" type="curve" smooth="yes"/>
      <point x="454.51" y="744.7" type="line"/>
    </contour>
    <contour>
      <point x="403.45" y="615.54" type="curve" smooth="yes"/>
      <point x="711.212" y="0" type="line"/>
      <point x="653.202" y="0"/>
      <point x="600.172" y="32.7803"/>
      <point x="574.231" y="84.6602" type="curve" smooth="yes"/>
      <point x="531.831" y="169.46" type="line"/>
      <point x="197.391" y="169.46" type="line"/>
      <point x="154.98" y="84.6504" type="line" smooth="yes"/>
      <point x="129.03" y="32.7803"/>
      <point x="76" y="0"/>
      <point x="18" y="0" type="curve"/>
      <point x="326.76" y="617.48" type="line" smooth="yes"/>
      <point x="335.54" y="635.04"/>
      <point x="355.53" y="644.67"/>
      <point x="375.53" y="639.479" type="curve" smooth="yes"/>
      <point x="387.87" y="636.26"/>
      <point x="397.75" y="626.95"/>
    </contour>
    <contour>
      <point x="239.722" y="254.12" type="line"/>
      <point x="489.521" y="254.12" type="line"/>
      <point x="364.632" y="503.9" type="line"/>
    </contour>
  </outline>
</glyph>
<glyph name="Acircumflex" format="2">
  <advance width="730"/>
  <unicode hex="00C2"/>
  <outline>
    <contour>
      <point x="352.17" y="674.61" type="line" smooth="yes"/>
      <point x="325.53" y="647.98"/>
      <point x="282.359" y="647.98"/>
      <point x="255.72" y="674.61" type="curve" smooth="yes"/>
      <point x="244.09" y="686.24" type="line"/>
      <point x="315.859" y="758" type="line" smooth="yes"/>
      <point x="329.3" y="771.45"/>
      <point x="346.97" y="778.07"/>
      <point x="364.6" y="777.931" type="curve" smooth="yes"/>
      <point x="382.21" y="778.07"/>
      <point x="399.88" y="771.45"/>
      <point x="413.32" y="758" type="curve" smooth="yes"/>
      <point x="485.07" y="686.24" type="line"/>
      <point x="473.45" y="674.61" type="line" smooth="yes"/>
      <point x="446.811" y="647.98"/>
      <point x="403.62" y="647.98"/>
      <point x="376.98" y="674.61" type="curve" smooth="yes"/>
      <point x="364.58" y="687.021" type="line"/>
    </contour>
    <contour>
      <point x="403.449" y="615.54" type="curve" smooth="yes"/>
      <point x="711.211" y="0" type="line"/>
      <point x="653.201" y="0"/>
      <point x="600.171" y="32.7803"/>
      <point x="574.23" y="84.6602" type="curve" smooth="yes"/>
      <point x="531.83" y="169.46" type="line"/>
      <point x="197.39" y="169.46" type="line"/>
      <point x="154.979" y="84.6504" type="line" smooth="yes"/>
      <point x="129.029" y="32.7803"/>
      <point x="75.999" y="0"/>
      <point x="17.999" y="0" type="curve"/>
      <point x="326.759" y="617.48" type="line" smooth="yes"/>
      <point x="335.539" y="635.04"/>
      <point x="355.529" y="644.67"/>
      <point x="375.529" y="639.479" type="curve" smooth="yes"/>
      <point x="387.869" y="636.26"/>
      <point x="397.749" y="626.95"/>
    </contour>
    <contour>
      <point x="239.721" y="254.12" type="line"/>
      <point x="489.501" y="254.12" type="line"/>
      <point x="364.621" y="503.9" type="line"/>
    </contour>
  </outline>
</glyph>
<glyph name="Atilde" format="2">
  <advance width="730"/>
  <unicode hex="00C3"/>
  <outline>
    <contour>
      <point x="279.13" y="707.17" type="curve" smooth="yes"/>
      <point x="243.57" y="706.67"/>
      <point x="208.752" y="717.08"/>
      <point x="183.582" y="742.2" type="curve" smooth="yes"/>
      <point x="179.572" y="746.19" type="line"/>
      <point x="259.842" y="826.66"/>
      <point x="338.352" y="782.44"/>
      <point x="390.302" y="753.181" type="curve" smooth="yes"/>
      <point x="421.932" y="735.36"/>
      <point x="442.382" y="725.181"/>
      <point x="459.932" y="725.421" type="curve" smooth="yes"/>
      <point x="495.502" y="725.901"/>
      <point x="530.312" y="715.501"/>
      <point x="555.491" y="690.391" type="curve" smooth="yes"/>
      <point x="559.491" y="686.41" type="line"/>
      <point x="525.551" y="652.391"/>
      <point x="491.931" y="640.65"/>
      <point x="460.49" y="640.65" type="curve" smooth="yes"/>
      <point x="417.57" y="640.65"/>
      <point x="378.74" y="662.521"/>
      <point x="348.76" y="679.41" type="curve" smooth="yes"/>
      <point x="317.13" y="697.23"/>
      <point x="296.68" y="707.41"/>
    </contour>
    <contour>
      <point x="403.452" y="615.54" type="curve" smooth="yes"/>
      <point x="711.214" y="0" type="line"/>
      <point x="653.204" y="0"/>
      <point x="600.174" y="32.7803"/>
      <point x="574.233" y="84.6602" type="curve" smooth="yes"/>
      <point x="531.833" y="169.46" type="line"/>
      <point x="197.393" y="169.46" type="line"/>
      <point x="154.982" y="84.6504" type="line" smooth="yes"/>
      <point x="129.032" y="32.7803"/>
      <point x="76.002" y="0"/>
      <point x="18.002" y="0" type="curve"/>
      <point x="326.762" y="617.48" type="line" smooth="yes"/>
      <point x="335.542" y="635.04"/>
      <point x="355.532" y="644.67"/>
      <point x="375.532" y="639.479" type="curve" smooth="yes"/>
      <point x="387.872" y="636.26"/>
      <point x="397.752" y="626.95"/>
    </contour>
    <contour>
      <point x="239.724" y="254.12" type="line"/>
      <point x="489.504" y="254.12" type="line"/>
      <point x="364.624" y="503.9" type="line"/>
    </contour>
  </outline>
</glyph>
<glyph name="Adieresis" format="2">
  <advance width="730"/>
  <unicode hex="00C4"/>
  <outline>
    <contour>
      <point x="403.45" y="615.54" type="curve" smooth="yes"/>
      <point x="711.212" y="0" type="line"/>
      <point x="653.202" y="0"/>
      <point x="600.172" y="32.7803"/>
      <point x="574.231" y="84.6602" type="curve" smooth="yes"/>
      <point x="531.831" y="169.46" type="line"/>
      <point x="197.391" y="169.46" type="line"/>
      <point x="154.98" y="84.6504" type="line" smooth="yes"/>
      <point x="129.03" y="32.7803"/>
      <point x="76" y="0"/>
      <point x="18" y="0" type="curve"/>
      <point x="326.76" y="617.48" type="line" smooth="yes"/>
      <point x="335.54" y="635.04"/>
      <point x="355.53" y="644.67"/>
      <point x="375.53" y="639.479" type="curve" smooth="yes"/>
      <point x="387.87" y="636.26"/>
      <point x="397.75" y="626.95"/>
    </contour>
    <contour>
      <point x="239.722" y="254.12" type="line"/>
      <point x="489.502" y="254.12" type="line"/>
      <point x="364.622" y="503.9" type="line"/>
    </contour>
    <contour>
      <point x="444.582" y="666.32" type="curve" smooth="yes"/>
      <point x="416.972" y="666.32"/>
      <point x="394.592" y="688.7"/>
      <point x="394.592" y="716.311" type="curve" smooth="yes"/>
      <point x="394.592" y="743.921"/>
      <point x="416.972" y="766.301"/>
      <point x="444.582" y="766.301" type="curve" smooth="yes"/>
      <point x="472.192" y="766.301"/>
      <point x="494.572" y="743.921"/>
      <point x="494.572" y="716.311" type="curve" smooth="yes"/>
      <point x="494.572" y="688.7"/>
      <point x="472.192" y="666.32"/>
    </contour>
    <contour>
      <point x="284.602" y="666.32" type="curve" smooth="yes"/>
      <point x="256.991" y="666.32"/>
      <point x="234.611" y="688.7"/>
      <point x="234.611" y="716.311" type="curve" smooth="yes"/>
      <point x="234.611" y="743.921"/>
      <point x="256.991" y="766.301"/>
      <point x="284.602" y="766.301" type="curve" smooth="yes"/>
      <point x="312.222" y="766.301"/>
      <point x="334.592" y="743.921"/>
      <point x="334.592" y="716.311" type="curve" smooth="yes"/>
      <point x="334.592" y="688.7"/>
      <point x="312.222" y="666.32"/>
    </contour>
  </outline>
</glyph>
<glyph name="Aring" format="2">
  <advance width="730"/>
  <unicode hex="00C5"/>
  <outline>
    <contour>
      <point x="403.45" y="615.54" type="curve" smooth="yes"/>
      <point x="711.213" y="-0.000976562" type="line"/>
      <point x="653.203" y="-0.000976562"/>
      <point x="600.173" y="32.7793"/>
      <point x="574.232" y="84.6592" type="curve" smooth="yes"/>
      <point x="531.832" y="169.459" type="line"/>
      <point x="197.392" y="169.459" type="line"/>
      <point x="154.981" y="84.6494" type="line" smooth="yes"/>
      <point x="129.031" y="32.7793"/>
      <point x="76.001" y="-0.000976562"/>
      <point x="18.001" y="-0.000976562" type="curve"/>
      <point x="326.761" y="617.479" type="line" smooth="yes"/>
      <point x="329.581" y="623.13"/>
      <point x="333.651" y="627.83"/>
      <point x="338.421" y="631.61" type="curve"/>
      <point x="305.681" y="641.63"/>
      <point x="281.871" y="672.07"/>
      <point x="281.871" y="708.101" type="curve" smooth="yes"/>
      <point x="281.871" y="752.271"/>
      <point x="317.681" y="788.08"/>
      <point x="361.851" y="788.08" type="curve" smooth="yes"/>
      <point x="406.03" y="788.08"/>
      <point x="441.84" y="752.271"/>
      <point x="441.84" y="708.101" type="curve" smooth="yes"/>
      <point x="441.84" y="673.391"/>
      <point x="419.67" y="643.91"/>
      <point x="388.75" y="632.851" type="curve"/>
      <point x="394.88" y="628.36"/>
      <point x="400.01" y="622.44"/>
    </contour>
    <contour>
      <point x="361.853" y="731.659" type="curve" smooth="yes"/>
      <point x="348.872" y="731.659"/>
      <point x="338.301" y="721.089"/>
      <point x="338.301" y="708.108" type="curve" smooth="yes"/>
      <point x="338.301" y="695.128"/>
      <point x="348.871" y="684.558"/>
      <point x="361.852" y="684.558" type="curve" smooth="yes"/>
      <point x="374.832" y="684.558"/>
      <point x="385.402" y="695.128"/>
      <point x="385.402" y="708.108" type="curve" smooth="yes"/>
      <point x="385.402" y="721.089"/>
      <point x="374.853" y="731.659"/>
    </contour>
    <contour>
      <point x="239.722" y="254.129" type="line"/>
      <point x="489.502" y="254.129" type="line"/>
      <point x="364.622" y="503.919" type="line"/>
    </contour>
  </outline>
</glyph>
<glyph name="AE" format="2">
  <advance width="735"/>
  <unicode hex="00C6"/>
  <outline>
    <contour>
      <point x="614.832" y="84.7686" type="line" smooth="yes"/>
      <point x="661.592" y="84.7686"/>
      <point x="699.503" y="46.8857"/>
      <point x="699.503" y="0.125977" type="curve"/>
      <point x="353.548" y="0.125977" type="line" smooth="yes"/>
      <point x="330.168" y="0.125977"/>
      <point x="311.219" y="19.0752"/>
      <point x="311.219" y="42.4551" type="curve" smooth="yes"/>
      <point x="311.219" y="236.971" type="line"/>
      <point x="207.217" y="236.971" type="line"/>
      <point x="123.081" y="37.5303" type="line" smooth="yes"/>
      <point x="110.34" y="7.30762"/>
      <point x="75.5029" y="-6.84473"/>
      <point x="45.2939" y="5.89648" type="curve" smooth="yes"/>
      <point x="21.999" y="15.7305" type="line"/>
      <point x="270.979" y="605.938" type="line" smooth="yes"/>
      <point x="278.344" y="623.393"/>
      <point x="293.851" y="634.863"/>
      <point x="311.205" y="637.968" type="curve"/>
      <point x="311.205" y="638.292" type="line"/>
      <point x="314.465" y="638.292" type="line" smooth="yes"/>
      <point x="318.515" y="638.758"/>
      <point x="322.606" y="638.758"/>
      <point x="326.727" y="638.292" type="curve" smooth="yes"/>
      <point x="699.49" y="638.292" type="line"/>
      <point x="699.49" y="591.532"/>
      <point x="661.592" y="553.634"/>
      <point x="614.832" y="553.634" type="curve" smooth="yes"/>
      <point x="395.864" y="553.634" type="line"/>
      <point x="395.864" y="361.53" type="line"/>
      <point x="630.297" y="361.53" type="line"/>
      <point x="630.297" y="314.771"/>
      <point x="592.398" y="276.872"/>
      <point x="545.639" y="276.872" type="curve" smooth="yes"/>
      <point x="395.864" y="276.872" type="line"/>
      <point x="395.864" y="84.7686" type="line"/>
    </contour>
    <contour>
      <point x="242.928" y="321.615" type="line"/>
      <point x="311.219" y="321.615" type="line"/>
      <point x="311.219" y="483.495" type="line"/>
    </contour>
  </outline>
</glyph>
<glyph name="Ccedilla" format="2">
  <advance width="557"/>
  <unicode hex="00C7"/>
  <outline>
    <contour>
      <point x="526.348" y="44.1172" type="curve"/>
      <point x="483.06" y="18.3955"/>
      <point x="434.181" y="3.49316"/>
      <point x="383.95" y="0.473633" type="curve"/>
      <point x="364.804" y="-18.9414" type="line"/>
      <point x="388.748" y="-18.9414" type="line" smooth="yes"/>
      <point x="429.962" y="-18.9414"/>
      <point x="463.035" y="-54.4834"/>
      <point x="458.93" y="-96.5166" type="curve" smooth="yes"/>
      <point x="455.36" y="-133.159"/>
      <point x="422.414" y="-159.996"/>
      <point x="385.602" y="-159.996" type="curve" smooth="yes"/>
      <point x="269.141" y="-159.996" type="line"/>
      <point x="269.141" y="-128.828"/>
      <point x="294.411" y="-103.558"/>
      <point x="325.579" y="-103.558" type="curve" smooth="yes"/>
      <point x="388.763" y="-103.558" type="line" smooth="yes"/>
      <point x="396.523" y="-103.558"/>
      <point x="402.845" y="-97.2227"/>
      <point x="402.845" y="-89.4619" type="curve" smooth="yes"/>
      <point x="402.845" y="-81.7012"/>
      <point x="396.523" y="-75.3799"/>
      <point x="388.763" y="-75.3799" type="curve" smooth="yes"/>
      <point x="297.36" y="-75.3799" type="line" smooth="yes"/>
      <point x="285.988" y="-75.3799"/>
      <point x="275.73" y="-68.5508"/>
      <point x="271.328" y="-58.0527" type="curve" smooth="yes"/>
      <point x="266.94" y="-47.5547"/>
      <point x="269.282" y="-35.4482"/>
      <point x="277.269" y="-27.3496" type="curve" smooth="yes"/>
      <point x="309.044" y="4.89062" type="line"/>
      <point x="160.313" y="31.5723"/>
      <point x="46.999" y="162.651"/>
      <point x="46.999" y="319.96" type="curve" smooth="yes"/>
      <point x="46.999" y="496.472"/>
      <point x="189.62" y="640.08"/>
      <point x="364.933" y="640.08" type="curve" smooth="yes"/>
      <point x="421.795" y="640.08"/>
      <point x="477.613" y="624.771"/>
      <point x="526.348" y="595.805" type="curve"/>
      <point x="504.407" y="558.894"/>
      <point x="461.146" y="538.857"/>
      <point x="419.424" y="548.932" type="curve" smooth="yes"/>
      <point x="401.674" y="553.221"/>
      <point x="383.374" y="555.422"/>
      <point x="364.933" y="555.422" type="curve" smooth="yes"/>
      <point x="236.309" y="555.422"/>
      <point x="131.657" y="449.783"/>
      <point x="131.657" y="319.946" type="curve" smooth="yes"/>
      <point x="131.657" y="190.109"/>
      <point x="236.309" y="84.4844"/>
      <point x="364.933" y="84.4844" type="curve" smooth="yes"/>
      <point x="383.388" y="84.4844"/>
      <point x="401.674" y="86.6855"/>
      <point x="419.438" y="90.9746" type="curve" smooth="yes"/>
      <point x="461.16" y="101.063"/>
      <point x="504.421" y="81.0137"/>
    </contour>
  </outline>
</glyph>
<glyph name="Egrave" format="2">
  <advance width="504"/>
  <unicode hex="00C8"/>
  <outline>
    <contour>
      <point x="351.43" y="672.368" type="line" smooth="yes"/>
      <point x="324.791" y="645.729"/>
      <point x="281.602" y="645.716"/>
      <point x="254.963" y="672.354" type="curve" smooth="yes"/>
      <point x="183.215" y="744.116" type="line"/>
      <point x="194.841" y="755.742" type="line" smooth="yes"/>
      <point x="221.479" y="782.381"/>
      <point x="264.669" y="782.381"/>
      <point x="291.308" y="755.742" type="curve" smooth="yes"/>
      <point x="363.056" y="683.994" type="line"/>
    </contour>
    <contour>
      <point x="382.626" y="84.6445" type="line" smooth="yes"/>
      <point x="429.386" y="84.6445"/>
      <point x="467.284" y="46.7607"/>
      <point x="467.284" y="0.000976562" type="curve"/>
      <point x="121.329" y="0.000976562" type="line" smooth="yes"/>
      <point x="97.9492" y="0.000976562"/>
      <point x="79" y="18.9502"/>
      <point x="79" y="42.3301" type="curve" smooth="yes"/>
      <point x="79" y="595.839" type="line" smooth="yes"/>
      <point x="79" y="619.219"/>
      <point x="97.9492" y="638.168"/>
      <point x="121.329" y="638.168" type="curve" smooth="yes"/>
      <point x="467.284" y="638.168" type="line"/>
      <point x="467.284" y="591.408"/>
      <point x="429.386" y="553.51"/>
      <point x="382.626" y="553.51" type="curve" smooth="yes"/>
      <point x="163.658" y="553.51" type="line"/>
      <point x="163.658" y="361.406" type="line"/>
      <point x="398.091" y="361.406" type="line"/>
      <point x="398.091" y="314.646"/>
      <point x="360.192" y="276.748"/>
      <point x="313.433" y="276.748" type="curve" smooth="yes"/>
      <point x="163.658" y="276.748" type="line"/>
      <point x="163.658" y="84.6445" type="line"/>
    </contour>
  </outline>
</glyph>
